{
.appVersion = "3259";
.formatVersion = 3;
axes = (
{
name = Color;
tag = COLR;
}
);
classes = (
{
automatic = 1;

glyphs = (
{
color = 6;
glyphname = A;
kernLeft = A;
kernRight = A;
lastChange = "2024-09-27 09:10:39 +0000";
layers = (
{
anchors = (
{
name = bottom;
pos = (450,0);
},
{
name = ogonek;
pos = (744,0);
},
{
name = top;
pos = (471,900);
}
);
layerId = m01;
shapes = (
{
attr = {
strokeHeight = 28;
strokeWidth = 30;
};
closed = 1;
nodes = (
(792,-18,o),
(870,105,o),
(870,333,cs),
(870,639,o),
(730,918,o),
(471,918,cs),
(222,918,o),
(30,662,o),
(30,342,cs),
(30,126,o),
(117,18,o),
(236,18,cs),
(394,18,o),
(467,208,o),
(467,254,cs),
(467,265,o),
(463,276,o),
(455,276,cs),
(446,276,o),
(439,265,o),
(439,245,cs),
(439,183,o),
(506,-18,o),
(666,-18,cs)
);
},
{
attr = {
strokeHeight = 26;
strokeWidth = 28;
};
closed = 1;
nodes = (
(433,486,o),
(420,500,o),
(420,516,cs),
(420,532,o),
(433,546,o),
(450,546,cs),
(467,546,o),
(480,532,o),
(480,516,cs),
(480,500,o),
(467,486,o),
(450,486,cs)
);
}
);
width = 900;
},
{
anchors = (
{
name = bottom;
pos = (450,0);
},
{
name = ogonek;
pos = (744,0);
},
{
name = top;
pos = (471,900);
}
);
layerId = "AA01E2DD-0766-4133-B890-CA2A0BF1A57D";
shapes = (
{
closed = 1;
nodes = (
(792,-18,o),
(870,105,o),
(870,333,cs),
(870,639,o),
(730,918,o),
(471,918,cs),
(222,918,o),
(30,662,o),
(30,342,cs),
(30,126,o),
(117,18,o),
(236,18,cs),
(349,18,o),
(419,115,o),
(449,187,c),
(473,104,o),
(541,-18,o),
(666,-18,cs)
);
},
{
closed = 1;
nodes = (
(420,532,o),
(433,546,o),
(450,546,cs),
(467,546,o),
(480,532,o),
(480,516,cs),
(480,500,o),
(467,486,o),
(450,486,cs),
(433,486,o),
(420,500,o),
(420,516,cs)
);
}
);
width = 900;
},
{
anchors = (
{
name = bottom;
pos = (450,0);
},
{
name = ogonek;
pos = (744,0);
},
{
name = top;
pos = (471,900);
}
);
layerId = "18EF3260-CEF7-4699-AE8F-A1FB16D1B078";
shapes = (
{
attr = {
lineCapEnd = "1";
lineCapStart = "1";
strokeWidth = 28;
};
closed = 0;
nodes = (
(366,841,l),
(352,837,o),
(336,829,o),
(326,823,c)
);
},
{
attr = {
lineCapEnd = "1";
lineCapStart = "1";
strokeWidth = 28;
};
closed = 0;
nodes = (
(278,793,l),
(239,764,o),
(205,727,o),
(177,681,cs)
);
}
);
width = 900;
},
{
anchors = (
{
name = bottom;
pos = (450,0);
},
{
name = ogonek;
pos = (744,0);
},
{
name = top;
pos = (471,900);
}
);
layerId = "F563C7B0-622D-42B3-911E-B48219F56EF3";
shapes = (
{
attr = {
lineCapEnd = "1";
lineCapStart = "1";
strokeWidth = 28;
};
closed = 0;
nodes = (
(366,841,l),
(352,837,o),
(336,829,o),
(326,823,c)
);
},
{
attr = {
lineCapEnd = "1";
lineCapStart = "1";
strokeWidth = 28;
};
closed = 0;
nodes = (
(278,793,l),
(239,764,o),
(205,727,o),
(177,681,cs)
);
}
);
width = 900;
},
{
anchors = (
{
name = bottom;
pos = (450,0);
},
{
name = ogonek;
pos = (744,0);
},
{
name = top;
pos = (471,900);
}
);
layerId = "F41CCFAE-1054-41CD-BE75-8F05F0A4F59E";
shapes = (
{
closed = 1;
nodes = (
(832,-63,o),
(915,68,o),
(915,303,cs),
(915,510,o),
(852,706,o),
(731,815,c),
(664,888,o),
(577,933,o),
(471,933,cs),
(213,933,o),
(15,669,o),
(15,342,cs),
(15,195,o),
(55,95,o),
(119,44,c),
(157,-3,o),
(208,-27,o),
(266,-27,cs),
(362,-27,o),
(429,38,o),
(468,103,c),
(485,71,o),
(508,40,o),
(537,15,c),
(575,-29,o),
(628,-63,o),
(696,-63,cs)
);
},
{
closed = 1;
nodes = (
(552,-4,o),
(488,107,o),
(465,186,c),
(476,215,o),
(482,240,o),
(482,254,cs),
(482,275,o),
(471,290,o),
(455,290,cs),
(438,290,o),
(424,275,o),
(424,245,cs),
(424,231,o),
(427,211,o),
(434,188,c),
(404,120,o),
(340,32,o),
(236,32,cs),
(124,32,o),
(45,131,o),
(45,342,cs),
(45,658,o),
(230,904,o),
(471,904,cs),
(720,904,o),
(855,636,o),
(855,333,cs),
(855,109,o),
(783,-4,o),
(666,-4,cs)
);
},
{
closed = 1;
nodes = (
(475,473,o),
(494,493,o),
(494,516,cs),
(494,539,o),
(475,559,o),
(450,559,cs),
(425,559,o),
(406,539,o),
(406,516,cs),
(406,493,o),
(425,473,o),
(450,473,cs)
);
}
);
width = 900;
},
{
anchors = (
{
name = bottom;
pos = (450,0);
},
{
name = ogonek;
pos = (744,0);
},
{
name = top;
pos = (471,900);
}
);
layerId = "9609D89D-5179-4910-93A4-3439D6828341";
shapes = (
{
closed = 1;
nodes = (
(803,-32,o),
(885,99,o),
(885,333,cs),
(885,644,o),
(741,932,o),
(471,932,cs),
(212,932,o),
(15,668,o),
(15,342,cs),
(15,119,o),
(107,4,o),
(236,4,cs),
(340,4,o),
(409,79,o),
(447,149,c),
(479,66,o),
(549,-32,o),
(666,-32,cs)
);
},
{
closed = 1;
nodes = (
(552,-4,o),
(488,107,o),
(465,186,c),
(476,215,o),
(482,240,o),
(482,254,cs),
(482,275,o),
(471,290,o),
(455,290,cs),
(438,290,o),
(424,275,o),
(424,245,cs),
(424,231,o),
(427,211,o),
(434,188,c),
(404,120,o),
(340,32,o),
(236,32,cs),
(124,32,o),
(45,131,o),
(45,342,cs),
(45,658,o),
(230,904,o),
(471,904,cs),
(720,904,o),
(855,636,o),
(855,333,cs),
(855,109,o),
(783,-4,o),
(666,-4,cs)
);
},
{
closed = 1;
nodes = (
(475,473,o),
(494,493,o),
(494,516,cs),
(494,539,o),
(475,559,o),
(450,559,cs),
(425,559,o),
(406,539,o),
(406,516,cs),
(406,493,o),
(425,473,o),
(450,473,cs)
);
},
{
closed = 1;
nodes = (
(439,499,o),
(434,505,o),
(434,516,cs),
(434,527,o),
(439,533,o),
(450,533,cs),
(461,533,o),
(466,527,o),
(466,516,cs),
(466,505,o),
(461,499,o),
(450,499,cs)
);
}
);
width = 900;
},
{
anchors = (
{
name = bottom;
pos = (450,0);
},
{
name = ogonek;
pos = (744,0);
},
{
name = top;
pos = (471,900);
}
);
layerId = m006;
shapes = (
{
closed = 1;
nodes = (
(783,-4,o),
(855,109,o),
(855,333,cs),
(855,636,o),
(720,904,o),
(471,904,cs),
(230,904,o),
(45,658,o),
(45,342,cs),
(45,131,o),
(124,32,o),
(236,32,cs),
(340,32,o),
(404,120,o),
(434,188,c),
(427,211,o),
(424,231,o),
(424,245,cs),
(424,275,o),
(438,290,o),
(455,290,cs),
(471,290,o),
(482,275,o),
(482,254,cs),
(482,240,o),
(476,215,o),
(465,186,c),
(488,107,o),
(552,-4,o),
(666,-4,cs)
);
},
{
closed = 1;
nodes = (
(425,473,o),
(406,493,o),
(406,516,cs),
(406,539,o),
(425,559,o),
(450,559,cs),
(475,559,o),
(494,539,o),
(494,516,cs),
(494,493,o),
(475,473,o),
(450,473,cs)
);
}
);
width = 900;
}
);
unicode = (65,97);
},
{
color = 6;
glyphname = Aogonek;
kernLeft = A;
kernRight = A;
lastChange = "2024-09-27 09:10:39 +0000";
layers = (
{
background = {
shapes = (
{
attr = {
strokeHeight = 28;
strokeWidth = 30;
};
closed = 1;
nodes = (
(792,-18,o),
(870,105,o),
(870,333,cs),
(870,639,o),
(730,918,o),
(471,918,cs),
(222,918,o),
(30,662,o),
(30,342,cs),
(30,126,o),
(117,18,o),
(236,18,cs),
(394,18,o),
(467,208,o),
(467,254,cs),
(467,265,o),
(463,276,o),
(455,276,cs),
(446,276,o),
(439,265,o),
(439,245,cs),
(439,183,o),
(506,-18,o),
(666,-18,cs)
);
}
);
};
layerId = m01;
shapes = (
{
attr = {
strokeHeight = 28;
strokeWidth = 30;
};
closed = 1;
nodes = (
(770,-255,o),
(837,-211,o),
(837,-154,cs),
(837,-103,o),
(780,-75,o),
(738,-75,cs),
(715,-75,o),
(707,-82,o),
(707,-85,cs),
(707,-87,o),
(708,-88,o),
(711,-88,cs),
(716,-88,o),
(724,-85,o),
(735,-76,cs),
(766,-51,o),
(870,58,o),
(870,328,cs),
(870,641,o),
(730,918,o),
(471,918,cs),
(222,918,o),
(30,662,o),
(30,342,cs),
(30,126,o),
(117,18,o),
(236,18,cs),
(394,18,o),
(467,208,o),
(467,254,cs),
(467,265,o),
(463,276,o),
(455,276,cs),
(446,276,o),
(439,265,o),
(439,244,cs),
(439,161,o),
(527,19,o),
(619,19,cs),
(631,19,o),
(636,23,o),
(636,27,cs),
(636,32,o),
(630,36,o),
(619,36,cs),
(562,36,o),
(487,-48,o),
(487,-119,cs),
(487,-200,o),
(566,-255,o),
(673,-255,cs)
);
},
{
attr = {
strokeHeight = 26;
strokeWidth = 28;
};
closed = 1;
nodes = (
(433,486,o),
(420,500,o),
(420,516,cs),
(420,532,o),
(433,546,o),
(450,546,cs),
(467,546,o),
(480,532,o),
(480,516,cs),
(480,500,o),
(467,486,o),
(450,486,cs)
);
}
);
width = 900;
},
{
background = {
shapes = (
{
attr = {
strokeHeight = 28;
strokeWidth = 30;
};
closed = 1;
nodes = (
(792,-18,o),
(870,105,o),
(870,333,cs),
(870,639,o),
(730,918,o),
(471,918,cs),
(222,918,o),
(30,662,o),
(30,342,cs),
(30,126,o),
(117,18,o),
(236,18,cs),
(394,18,o),
(467,208,o),
(467,254,cs),
(467,265,o),
(463,276,o),
(455,276,cs),
(446,276,o),
(439,265,o),
(439,245,cs),
(439,183,o),
(506,-18,o),
(666,-18,cs)
);
}
);
};
layerId = "AA01E2DD-0766-4133-B890-CA2A0BF1A57D";
shapes = (
{
closed = 1;
nodes = (
(770,-255,o),
(837,-211,o),
(837,-154,cs),
(837,-103,o),
(780,-75,o),
(738,-75,cs),
(736,-75,l),
(769,-48,o),
(870,61,o),
(870,328,cs),
(870,641,o),
(730,918,o),
(471,918,cs),
(222,918,o),
(30,662,o),
(30,342,cs),
(30,126,o),
(117,18,o),
(236,18,cs),
(349,18,o),
(419,116,o),
(449,188,c),
(471,122,o),
(523,49,o),
(582,26,c),
(534,2,o),
(487,-63,o),
(487,-119,cs),
(487,-200,o),
(566,-255,o),
(673,-255,cs)
);
},
{
closed = 1;
nodes = (
(433,486,o),
(420,500,o),
(420,516,cs),
(420,532,o),
(433,546,o),
(450,546,cs),
(467,546,o),
(480,532,o),
(480,516,cs),
(480,500,o),
(467,486,o),
(450,486,cs)
);
}
);
width = 900;
},
{
background = {
shapes = (
{
attr = {
strokeHeight = 28;
strokeWidth = 30;
};
closed = 1;
nodes = (
(792,-18,o),
(870,105,o),
(870,333,cs),
(870,639,o),
(730,918,o),
(471,918,cs),
(222,918,o),
(30,662,o),
(30,342,cs),
(30,126,o),
(117,18,o),
(236,18,cs),
(394,18,o),
(467,208,o),
(467,254,cs),
(467,265,o),
(463,276,o),
(455,276,cs),
(446,276,o),
(439,265,o),
(439,245,cs),
(439,183,o),
(506,-18,o),
(666,-18,cs)
);
}
);
};
layerId = "18EF3260-CEF7-4699-AE8F-A1FB16D1B078";
shapes = (
{
attr = {
lineCapEnd = "1";
lineCapStart = "1";
strokeHeight = 28;
strokeWidth = 28;
};
closed = 0;
nodes = (
(365,840,l),
(289,813,o),
(225,758,o),
(177,681,cs)
);
}
);
width = 900;
},
{
background = {
shapes = (
{
attr = {
strokeHeight = 28;
strokeWidth = 30;
};
closed = 1;
nodes = (
(792,-18,o),
(870,105,o),
(870,333,cs),
(870,639,o),
(730,918,o),
(471,918,cs),
(222,918,o),
(30,662,o),
(30,342,cs),
(30,126,o),
(117,18,o),
(236,18,cs),
(394,18,o),
(467,208,o),
(467,254,cs),
(467,265,o),
(463,276,o),
(455,276,cs),
(446,276,o),
(439,265,o),
(439,245,cs),
(439,183,o),
(506,-18,o),
(666,-18,cs)
);
}
);
};
layerId = "F563C7B0-622D-42B3-911E-B48219F56EF3";
shapes = (
{
attr = {
lineCapEnd = "1";
lineCapStart = "1";
strokeHeight = 28;
strokeWidth = 28;
};
closed = 0;
nodes = (
(365,840,l),
(289,813,o),
(225,758,o),
(177,681,cs)
);
}
);
width = 900;
},
{
background = {
shapes = (
{
attr = {
strokeHeight = 28;
strokeWidth = 30;
};
closed = 1;
nodes = (
(792,-18,o),
(870,105,o),
(870,333,cs),
(870,639,o),
(730,918,o),
(471,918,cs),
(222,918,o),
(30,662,o),
(30,342,cs),
(30,126,o),
(117,18,o),
(236,18,cs),
(394,18,o),
(467,208,o),
(467,254,cs),
(467,265,o),
(463,276,o),
(455,276,cs),
(446,276,o),
(439,265,o),
(439,245,cs),
(439,183,o),
(506,-18,o),
(666,-18,cs)
);
}
);
};
layerId = "F41CCFAE-1054-41CD-BE75-8F05F0A4F59E";
shapes = (
{
closed = 1;
nodes = (
(807,-300,o),
(882,-251,o),
(882,-184,cs),
(882,-152,o),
(864,-128,o),
(840,-112,c),
(832,-100,o),
(822,-89,o),
(809,-81,c),
(854,-26,o),
(915,89,o),
(915,298,cs),
(915,509,o),
(852,706,o),
(731,815,c),
(664,888,o),
(577,933,o),
(471,933,cs),
(213,933,o),
(15,669,o),
(15,342,cs),
(15,195,o),
(55,95,o),
(119,44,c),
(157,-3,o),
(208,-27,o),
(266,-27,cs),
(365,-27,o),
(432,41,o),
(471,108,c),
(487,83,o),
(506,61,o),
(527,43,c),
(534,35,o),
(541,28,o),
(548,21,c),
(545,19,o),
(543,17,o),
(541,15,cs),
(502,-19,o),
(472,-71,o),
(472,-119,cs),
(472,-128,o),
(473,-137,o),
(475,-146,cs),
(481,-178,o),
(500,-206,o),
(528,-227,c),
(562,-273,o),
(626,-300,o),
(703,-300,cs)
);
},
{
closed = 1;
nodes = (
(571,-241,o),
(502,-193,o),
(502,-119,cs),
(502,-68,o),
(542,-12,o),
(583,11,c),
(595,7,o),
(607,5,o),
(619,5,cs),
(639,5,o),
(651,15,o),
(651,27,cs),
(651,40,o),
(638,50,o),
(619,50,cs),
(607,50,o),
(594,47,o),
(582,41,c),
(530,64,o),
(485,128,o),
(465,187,c),
(476,216,o),
(482,240,o),
(482,254,cs),
(482,275,o),
(471,290,o),
(455,290,cs),
(438,290,o),
(424,275,o),
(424,244,cs),
(424,227,o),
(427,208,o),
(434,188,c),
(404,120,o),
(340,32,o),
(236,32,cs),
(124,32,o),
(45,131,o),
(45,342,cs),
(45,658,o),
(230,904,o),
(471,904,cs),
(720,904,o),
(855,638,o),
(855,328,cs),
(855,76,o),
(764,-31,o),
(730,-61,c),
(701,-63,o),
(692,-76,o),
(692,-85,cs),
(692,-95,o),
(700,-102,o),
(711,-102,cs),
(718,-102,o),
(729,-98,o),
(742,-89,c),
(779,-90,o),
(822,-113,o),
(822,-154,cs),
(822,-204,o),
(765,-241,o),
(673,-241,cs)
);
},
{
closed = 1;
nodes = (
(475,473,o),
(494,493,o),
(494,516,cs),
(494,539,o),
(475,559,o),
(450,559,cs),
(425,559,o),
(406,539,o),
(406,516,cs),
(406,493,o),
(425,473,o),
(450,473,cs)
);
}
);
width = 900;
},
{
background = {
shapes = (
{
attr = {
strokeHeight = 28;
strokeWidth = 30;
};
closed = 1;
nodes = (
(792,-18,o),
(870,105,o),
(870,333,cs),
(870,639,o),
(730,918,o),
(471,918,cs),
(222,918,o),
(30,662,o),
(30,342,cs),
(30,126,o),
(117,18,o),
(236,18,cs),
(394,18,o),
(467,208,o),
(467,254,cs),
(467,265,o),
(463,276,o),
(455,276,cs),
(446,276,o),
(439,265,o),
(439,245,cs),
(439,183,o),
(506,-18,o),
(666,-18,cs)
);
}
);
};
layerId = "9609D89D-5179-4910-93A4-3439D6828341";
shapes = (
{
closed = 1;
nodes = (
(777,-269,o),
(852,-220,o),
(852,-154,cs),
(852,-105,o),
(809,-75,o),
(768,-65,c),
(812,-16,o),
(885,100,o),
(885,328,cs),
(885,646,o),
(741,932,o),
(471,932,cs),
(212,932,o),
(15,668,o),
(15,342,cs),
(15,119,o),
(107,4,o),
(236,4,cs),
(341,4,o),
(410,81,o),
(448,151,c),
(471,101,o),
(509,51,o),
(553,25,c),
(509,-8,o),
(472,-66,o),
(472,-119,cs),
(472,-209,o),
(559,-269,o),
(673,-269,cs)
);
},
{
closed = 1;
nodes = (
(571,-241,o),
(502,-193,o),
(502,-119,cs),
(502,-68,o),
(542,-12,o),
(583,11,c),
(595,7,o),
(607,5,o),
(619,5,cs),
(639,5,o),
(651,15,o),
(651,27,cs),
(651,40,o),
(638,50,o),
(619,50,cs),
(607,50,o),
(594,47,o),
(582,41,c),
(530,64,o),
(485,128,o),
(465,187,c),
(476,216,o),
(482,240,o),
(482,254,cs),
(482,275,o),
(471,290,o),
(455,290,cs),
(438,290,o),
(424,275,o),
(424,244,cs),
(424,227,o),
(427,208,o),
(434,188,c),
(404,120,o),
(340,32,o),
(236,32,cs),
(124,32,o),
(45,131,o),
(45,342,cs),
(45,658,o),
(230,904,o),
(471,904,cs),
(720,904,o),
(855,638,o),
(855,328,cs),
(855,76,o),
(764,-31,o),
(730,-61,c),
(701,-63,o),
(692,-76,o),
(692,-85,cs),
(692,-95,o),
(700,-102,o),
(711,-102,cs),
(718,-102,o),
(729,-98,o),
(742,-89,c),
(779,-90,o),
(822,-113,o),
(822,-154,cs),
(822,-204,o),
(765,-241,o),
(673,-241,cs)
);
},
{
closed = 1;
nodes = (
(475,473,o),
(494,493,o),
(494,516,cs),
(494,539,o),
(475,559,o),
(450,559,cs),
(425,559,o),
(406,539,o),
(406,516,cs),
(406,493,o),
(425,473,o),
(450,473,cs)
);
},
{
closed = 1;
nodes = (
(439,499,o),
(434,505,o),
(434,516,cs),
(434,527,o),
(439,533,o),
(450,533,cs),
(461,533,o),
(466,527,o),
(466,516,cs),
(466,505,o),
(461,499,o),
(450,499,cs)
);
}
);
width = 900;
},
{
background = {
shapes = (
{
attr = {
strokeHeight = 28;
strokeWidth = 30;
};
closed = 1;
nodes = (
(792,-18,o),
(870,105,o),
(870,333,cs),
(870,639,o),
(730,918,o),
(471,918,cs),
(222,918,o),
(30,662,o),
(30,342,cs),
(30,126,o),
(117,18,o),
(236,18,cs),
(394,18,o),
(467,208,o),
(467,254,cs),
(467,265,o),
(463,276,o),
(455,276,cs),
(446,276,o),
(439,265,o),
(439,245,cs),
(439,183,o),
(506,-18,o),
(666,-18,cs)
);
}
);
};
layerId = m006;
shapes = (
{
closed = 1;
nodes = (
(765,-241,o),
(822,-204,o),
(822,-154,cs),
(822,-113,o),
(779,-90,o),
(742,-89,c),
(729,-98,o),
(718,-102,o),
(711,-102,cs),
(700,-102,o),
(692,-95,o),
(692,-85,cs),
(692,-76,o),
(701,-63,o),
(730,-61,c),
(764,-31,o),
(855,76,o),
(855,328,cs),
(855,638,o),
(720,904,o),
(471,904,cs),
(230,904,o),
(45,658,o),
(45,342,cs),
(45,131,o),
(124,32,o),
(236,32,cs),
(340,32,o),
(404,120,o),
(434,188,c),
(427,208,o),
(424,227,o),
(424,244,cs),
(424,275,o),
(438,290,o),
(455,290,cs),
(471,290,o),
(482,275,o),
(482,254,cs),
(482,240,o),
(476,216,o),
(465,187,c),
(485,128,o),
(530,64,o),
(582,41,c),
(594,47,o),
(607,50,o),
(619,50,cs),
(638,50,o),
(651,40,o),
(651,27,cs),
(651,15,o),
(639,5,o),
(619,5,cs),
(607,5,o),
(595,7,o),
(583,11,c),
(542,-12,o),
(502,-68,o),
(502,-119,cs),
(502,-193,o),
(571,-241,o),
(673,-241,cs)
);
},
{
closed = 1;
nodes = (
(425,473,o),
(406,493,o),
(406,516,cs),
(406,539,o),
(425,559,o),
(450,559,cs),
(475,559,o),
(494,539,o),
(494,516,cs),
(494,493,o),
(475,473,o),
(450,473,cs)
);
}
);
width = 900;
},
{
associatedMasterId = m01;
background = {
shapes = (
{
attr = {
strokeHeight = 28;
strokeWidth = 30;
};
closed = 1;
nodes = (
(792,-18,o),
(870,105,o),
(870,333,cs),
(870,639,o),
(730,918,o),
(471,918,cs),
(222,918,o),
(30,662,o),
(30,342,cs),
(30,126,o),
(117,18,o),
(236,18,cs),
(394,18,o),
(467,208,o),
(467,254,cs),
(467,265,o),
(463,276,o),
(455,276,cs),
(446,276,o),
(439,265,o),
(439,245,cs),
(439,183,o),
(506,-18,o),
(666,-18,cs)
);
}
);
};
layerId = "8FE43B09-684E-438B-BF9C-328731C76F99";
name = "16 Jan 24 at 09:29";
shapes = (
{
attr = {
strokeHeight = 28;
strokeWidth = 30;
};
closed = 1;
nodes = (
(770,-258,o),
(837,-211,o),
(837,-154,cs),
(837,-97,o),
(766,-69,o),
(725,-76,cs),
(695,-81,o),
(705,-100,o),
(735,-76,cs),
(766,-51,o),
(870,58,o),
(870,328,cs),
(870,641,o),
(730,918,o),
(471,918,cs),
(222,918,o),
(30,662,o),
(30,342,cs),
(30,126,o),
(117,18,o),
(236,18,cs),
(394,18,o),
(467,208,o),
(467,254,cs),
(467,265,o),
(463,276,o),
(455,276,cs),
(446,276,o),
(439,265,o),
(439,244,cs),
(439,178,o),
(505,41,o),
(601,21,cs),
(654,10,o),
(643,49,o),
(597,32,cs),
(555,17,o),
(487,-43,o),
(487,-119,cs),
(487,-200,o),
(566,-258,o),
(673,-258,cs)
);
},
{
attr = {
strokeHeight = 26;
strokeWidth = 28;
};
closed = 1;
nodes = (
(433,486,o),
(420,500,o),
(420,516,cs),
(420,532,o),
(433,546,o),
(450,546,cs),
(467,546,o),
(480,532,o),
(480,516,cs),
(480,500,o),
(467,486,o),
(450,486,cs)
);
}
);
width = 900;
},
{
associatedMasterId = m01;
background = {
shapes = (
{
attr = {
strokeHeight = 28;
strokeWidth = 30;
};
closed = 1;
nodes = (
(792,-18,o),
(870,105,o),
(870,333,cs),
(870,639,o),
(730,918,o),
(471,918,cs),
(222,918,o),
(30,662,o),
(30,342,cs),
(30,126,o),
(117,18,o),
(236,18,cs),
(394,18,o),
(467,208,o),
(467,254,cs),
(467,265,o),
(463,276,o),
(455,276,cs),
(446,276,o),
(439,265,o),
(439,245,cs),
(439,183,o),
(506,-18,o),
(666,-18,cs)
);
}
);
};
layerId = "CF2BFDA3-195E-4C0C-B48E-AA4AE8CE3F08";
name = "16 Jan 24 at 14:44";
shapes = (
{
attr = {
strokeHeight = 28;
strokeWidth = 30;
};
closed = 1;
nodes = (
(770,-255,o),
(837,-211,o),
(837,-154,cs),
(837,-103,o),
(780,-75,o),
(738,-75,cs),
(715,-75,o),
(707,-82,o),
(707,-85,cs),
(707,-87,o),
(708,-88,o),
(711,-88,cs),
(716,-88,o),
(724,-85,o),
(735,-76,cs),
(766,-51,o),
(870,58,o),
(870,328,cs),
(870,641,o),
(730,918,o),
(471,918,cs),
(222,918,o),
(30,662,o),
(30,342,cs),
(30,126,o),
(117,18,o),
(236,18,cs),
(394,18,o),
(467,208,o),
(467,254,cs),
(467,265,o),
(463,276,o),
(455,276,cs),
(446,276,o),
(439,265,o),
(439,244,cs),
(439,161,o),
(527,19,o),
(619,19,cs),
(631,19,o),
(636,23,o),
(636,27,cs),
(636,32,o),
(630,36,o),
(619,36,cs),
(562,36,o),
(487,-48,o),
(487,-119,cs),
(487,-200,o),
(566,-255,o),
(673,-255,cs)
);
},
{
attr = {
strokeHeight = 26;
strokeWidth = 28;
};
closed = 1;
nodes = (
(433,486,o),
(420,500,o),
(420,516,cs),
(420,532,o),
(433,546,o),
(450,546,cs),
(467,546,o),
(480,532,o),
(480,516,cs),
(480,500,o),
(467,486,o),
(450,486,cs)
);
}
);
width = 900;
}
);
unicode = (260,261);
},
{
color = 6;
glyphname = Aring;
kernLeft = A;
kernRight = A;
lastChange = "2024-09-27 09:10:39 +0000";
layers = (
{
layerId = m01;
shapes = (
{
ref = A;
},
{
pos = (171,0);
ref = ringcomb;
}
);
width = 900;
},
{
layerId = "AA01E2DD-0766-4133-B890-CA2A0BF1A57D";
shapes = (
{
ref = A;
},
{
pos = (171,0);
ref = ringcomb;
}
);
width = 900;
},
{
layerId = "18EF3260-CEF7-4699-AE8F-A1FB16D1B078";
shapes = (
{
ref = A;
},
{
pos = (171,0);
ref = ringcomb;
}
);
width = 900;
},
{
layerId = "F563C7B0-622D-42B3-911E-B48219F56EF3";
shapes = (
{
ref = A;
},
{
pos = (171,0);
ref = ringcomb;
}
);
width = 900;
},
{
anchors = (
{
name = bottom;
pos = (450,0);
},
{
name = ogonek;
pos = (744,0);
},
{
name = top;
pos = (471,900);
}
);
layerId = "F41CCFAE-1054-41CD-BE75-8F05F0A4F59E";
shapes = (
{
closed = 1;
nodes = (
(832,-63,o),
(915,68,o),
(915,303,cs),
(915,510,o),
(852,706,o),
(731,815,c),
(694,856,o),
(650,888,o),
(601,908,c),
(643,935,o),
(667,979,o),
(667,1026,cs),
(667,1070,o),
(646,1110,o),
(610,1137,c),
(582,1175,o),
(535,1200,o),
(476,1200,cs),
(424,1200,o),
(379,1180,o),
(349,1150,cs),
(322,1124,o),
(307,1089,o),
(307,1052,cs),
(307,1008,o),
(327,971,o),
(362,945,c),
(368,937,o),
(375,929,o),
(383,922,c),
(169,870,o),
(15,631,o),
(15,342,cs),
(15,195,o),
(55,95,o),
(119,44,c),
(157,-3,o),
(208,-27,o),
(266,-27,cs),
(362,-27,o),
(429,38,o),
(468,103,c),
(485,71,o),
(508,40,o),
(537,15,c),
(575,-29,o),
(628,-63,o),
(696,-63,cs)
);
},
{
closed = 1;
nodes = (
(552,-4,o),
(488,107,o),
(465,186,c),
(476,215,o),
(482,240,o),
(482,254,cs),
(482,275,o),
(471,290,o),
(455,290,cs),
(438,290,o),
(424,275,o),
(424,245,cs),
(424,231,o),
(427,211,o),
(434,188,c),
(404,120,o),
(340,32,o),
(236,32,cs),
(124,32,o),
(45,131,o),
(45,342,cs),
(45,658,o),
(230,904,o),
(471,904,cs),
(720,904,o),
(855,636,o),
(855,333,cs),
(855,109,o),
(783,-4,o),
(666,-4,cs)
);
},
{
closed = 1;
nodes = (
(475,473,o),
(494,493,o),
(494,516,cs),
(494,539,o),
(475,559,o),
(450,559,cs),
(425,559,o),
(406,539,o),
(406,516,cs),
(406,493,o),
(425,473,o),
(450,473,cs)
);
},
{
closed = 1;
nodes = (
(388,941,o),
(336,987,o),
(336,1052,cs),
(336,1118,o),
(392,1172,o),
(475,1172,cs),
(556,1172,o),
(607,1120,o),
(607,1056,cs),
(607,993,o),
(558,941,o),
(471,941,cs)
);
},
{
closed = 1;
nodes = (
(496,1014,o),
(515,1033,o),
(515,1056,cs),
(515,1079,o),
(496,1099,o),
(471,1099,cs),
(446,1099,o),
(428,1079,o),
(428,1056,cs),
(428,1033,o),
(446,1014,o),
(471,1014,cs)
);
}
);
width = 900;
},
{
layerId = "9609D89D-5179-4910-93A4-3439D6828341";
shapes = (
{
ref = A;
},
{
pos = (171,0);
ref = ringcomb;
}
);
width = 900;
},
{
layerId = m006;
shapes = (
{
ref = A;
},
{
pos = (171,0);
ref = ringcomb;
}
);
width = 900;
}
);
unicode = (197,229);
},
{
color = 6;
glyphname = AE;
kernLeft = A;
kernRight = E;
lastChange = "2024-09-27 09:10:39 +0000";
layers = (
{
layerId = m01;
shapes = (
{
attr = {
strokeHeight = 28;
strokeWidth = 30;
};
closed = 1;
nodes = (
(774,-18,o),
(835,120,o),
(835,286,cs),
(835,346,o),
(827,374,o),
(818,374,cs),
(812,374,o),
(809,359,o),
(809,337,cs),
(809,174,o),
(973,-12,o),
(1219,-12,cs),
(1349,-12,o),
(1470,40,o),
(1470,149,cs),
(1470,294,o),
(1255,323,o),
(1180,323,cs),
(1156,323,o),
(1147,320,o),
(1147,314,cs),
(1147,308,o),
(1156,305,o),
(1177,305,cs),
(1235,305,o),
(1413,331,o),
(1413,453,cs),
(1413,571,o),
(1246,596,o),
(1169,596,cs),
(1143,596,o),
(1131,593,o),
(1131,587,cs),
(1131,582,o),
(1139,579,o),
(1166,579,cs),
(1252,579,o),
(1442,610,o),
(1442,751,cs),
(1442,852,o),
(1345,912,o),
(1204,912,cs),
(916,912,o),
(785,664,o),
(785,543,cs),
(785,517,o),
(791,503,o),
(799,503,cs),
(805,503,o),
(813,513,o),
(813,544,cs),
(813,662,o),
(696,918,o),
(460,918,cs),
(224,918,o),
(30,662,o),
(30,341,cs),
(30,126,o),
(117,18,o),
(237,18,cs),
(390,18,o),
(464,197,o),
(464,244,cs),
(464,255,o),
(460,266,o),
(452,266,cs),
(443,266,o),
(436,255,o),
(436,234,cs),
(436,173,o),
(495,-18,o),
(646,-18,cs)
);
},
{
attr = {
strokeHeight = 26;
strokeWidth = 28;
};
closed = 1;
nodes = (
(423,486,o),
(410,500,o),
(410,516,cs),
(410,532,o),
(423,546,o),
(440,546,cs),
(457,546,o),
(470,532,o),
(470,516,cs),
(470,500,o),
(457,486,o),
(440,486,cs)
);
}
);
width = 1500;
},
{
layerId = "AA01E2DD-0766-4133-B890-CA2A0BF1A57D";
shapes = (
{
closed = 1;
nodes = (
(759,-18,o),
(819,89,o),
(832,227,c),
(886,101,o),
(1028,-12,o),
(1219,-12,cs),
(1349,-12,o),
(1470,40,o),
(1470,149,cs),
(1470,256,o),
(1352,300,o),
(1261,316,c),
(1332,332,o),
(1413,370,o),
(1413,453,cs),
(1413,536,o),
(1330,573,o),
(1254,588,c),
(1342,604,o),
(1442,649,o),
(1442,751,cs),
(1442,852,o),
(1345,912,o),
(1204,912,cs),
(972,912,o),
(842,751,o),
(800,625,c),
(763,751,o),
(650,918,o),
(460,918,cs),
(224,918,o),
(30,662,o),
(30,341,cs),
(30,126,o),
(117,18,o),
(237,18,cs),
(346,18,o),
(414,108,o),
(445,177,c),
(467,97,o),
(529,-18,o),
(646,-18,cs)
);
},
{
closed = 1;
nodes = (
(410,532,o),
(423,546,o),
(440,546,cs),
(457,546,o),
(470,532,o),
(470,516,cs),
(470,500,o),
(457,486,o),
(440,486,cs),
(423,486,o),
(410,500,o),
(410,516,cs)
);
}
);
width = 1500;
},
{
layerId = "18EF3260-CEF7-4699-AE8F-A1FB16D1B078";
shapes = (
{
attr = {
lineCapEnd = 1;
lineCapStart = 1;
strokeHeight = 28;
strokeWidth = 28;
};
closed = 0;
nodes = (
(1026,811,l),
(971,782,o),
(929,742,o),
(899,699,cs)
);
},
{
attr = {
lineCapEnd = "1";
lineCapStart = "1";
strokeWidth = 28;
};
closed = 0;
nodes = (
(366,841,l),
(352,837,o),
(336,829,o),
(326,823,c)
);
},
{
attr = {
lineCapEnd = "1";
lineCapStart = "1";
strokeWidth = 28;
};
closed = 0;
nodes = (
(278,793,l),
(239,764,o),
(205,727,o),
(177,681,cs)
);
}
);
width = 1500;
},
{
layerId = "F563C7B0-622D-42B3-911E-B48219F56EF3";
shapes = (
{
attr = {
lineCapEnd = 1;
lineCapStart = 1;
strokeHeight = 28;
strokeWidth = 28;
};
closed = 0;
nodes = (
(1026,811,l),
(971,782,o),
(929,742,o),
(899,699,cs)
);
},
{
attr = {
lineCapEnd = "1";
lineCapStart = "1";
strokeWidth = 28;
};
closed = 0;
nodes = (
(366,841,l),
(352,837,o),
(336,829,o),
(326,823,c)
);
},
{
attr = {
lineCapEnd = "1";
lineCapStart = "1";
strokeWidth = 28;
};
closed = 0;
nodes = (
(278,793,l),
(239,764,o),
(205,727,o),
(177,681,cs)
);
}
);
width = 1500;
},
{
layerId = "F41CCFAE-1054-41CD-BE75-8F05F0A4F59E";
shapes = (
{
closed = 1;
nodes = (
(781,-63,o),
(844,22,o),
(868,137,c),
(883,119,o),
(899,102,o),
(917,86,c),
(991,3,o),
(1107,-57,o),
(1249,-57,cs),
(1385,-57,o),
(1515,-1,o),
(1515,119,cs),
(1515,171,o),
(1491,209,o),
(1456,237,c),
(1435,264,o),
(1405,284,o),
(1372,299,c),
(1420,323,o),
(1458,362,o),
(1458,423,cs),
(1458,468,o),
(1437,501,o),
(1405,525,c),
(1394,541,o),
(1379,554,o),
(1362,564,c),
(1429,591,o),
(1487,638,o),
(1487,721,cs),
(1487,772,o),
(1465,813,o),
(1427,843,c),
(1385,897,o),
(1304,927,o),
(1204,927,cs),
(997,927,o),
(869,804,o),
(809,686,c),
(785,733,o),
(753,779,o),
(711,816,c),
(651,883,o),
(567,933,o),
(460,933,cs),
(215,933,o),
(15,669,o),
(15,341,cs),
(15,243,o),
(33,166,o),
(64,110,cs),
(79,83,o),
(98,61,o),
(119,44,c),
(157,-3,o),
(208,-27,o),
(267,-27,cs),
(359,-27,o),
(423,32,o),
(463,93,c),
(479,62,o),
(501,33,o),
(528,10,c),
(563,-32,o),
(612,-63,o),
(676,-63,cs)
);
},
{
closed = 1;
nodes = (
(465,473,o),
(484,493,o),
(484,516,cs),
(484,539,o),
(465,559,o),
(440,559,cs),
(415,559,o),
(396,539,o),
(396,516,cs),
(396,493,o),
(415,473,o),
(440,473,cs)
);
},
{
closed = 1;
nodes = (
(539,-4,o),
(482,100,o),
(461,176,c),
(473,205,o),
(479,230,o),
(479,244,cs),
(479,265,o),
(468,280,o),
(452,280,cs),
(435,280,o),
(421,265,o),
(421,234,cs),
(421,220,o),
(424,200,o),
(430,178,c),
(400,113,o),
(336,32,o),
(237,32,cs),
(124,32,o),
(45,131,o),
(45,341,cs),
(45,658,o),
(232,904,o),
(460,904,cs),
(641,904,o),
(749,747,o),
(785,626,c),
(775,595,o),
(770,567,o),
(770,543,cs),
(770,505,o),
(782,489,o),
(799,489,cs),
(813,489,o),
(828,502,o),
(828,544,cs),
(828,567,o),
(824,595,o),
(815,625,c),
(856,746,o),
(981,898,o),
(1204,898,cs),
(1340,898,o),
(1427,844,o),
(1427,751,cs),
(1427,659,o),
(1337,618,o),
(1255,602,c),
(1223,608,o),
(1192,610,o),
(1169,610,cs),
(1133,610,o),
(1116,603,o),
(1116,587,cs),
(1116,573,o),
(1127,565,o),
(1166,565,cs),
(1190,565,o),
(1221,567,o),
(1255,574,c),
(1325,560,o),
(1398,526,o),
(1398,453,cs),
(1398,380,o),
(1326,345,o),
(1261,330,c),
(1229,335,o),
(1199,337,o),
(1180,337,cs),
(1144,337,o),
(1132,329,o),
(1132,314,cs),
(1132,300,o),
(1145,291,o),
(1177,291,cs),
(1196,291,o),
(1227,294,o),
(1262,301,c),
(1348,286,o),
(1455,246,o),
(1455,149,cs),
(1455,49,o),
(1346,2,o),
(1219,2,cs),
(1035,2,o),
(899,108,o),
(847,228,c),
(849,247,o),
(850,266,o),
(850,286,cs),
(850,352,o),
(842,388,o),
(818,388,cs),
(801,388,o),
(794,371,o),
(794,337,cs),
(794,300,o),
(802,262,o),
(817,225,c),
(805,92,o),
(749,-4,o),
(646,-4,cs)
);
}
);
width = 1500;
},
{
layerId = "9609D89D-5179-4910-93A4-3439D6828341";
shapes = (
{
closed = 1;
nodes = (
(755,-32,o),
(818,57,o),
(841,178,c),
(908,66,o),
(1043,-26,o),
(1219,-26,cs),
(1354,-26,o),
(1485,30,o),
(1485,149,cs),
(1485,246,o),
(1400,294,o),
(1316,318,c),
(1375,341,o),
(1428,382,o),
(1428,453,cs),
(1428,525,o),
(1373,566,o),
(1310,587,c),
(1386,612,o),
(1457,660,o),
(1457,751,cs),
(1457,862,o),
(1352,926,o),
(1204,926,cs),
(987,926,o),
(856,791,o),
(801,668,c),
(753,792,o),
(640,932,o),
(460,932,cs),
(214,932,o),
(15,668,o),
(15,341,cs),
(15,119,o),
(107,4,o),
(237,4,cs),
(336,4,o),
(404,73,o),
(442,139,c),
(472,60,o),
(536,-32,o),
(646,-32,cs)
);
},
{
closed = 1;
nodes = (
(465,473,o),
(484,493,o),
(484,516,cs),
(484,539,o),
(465,559,o),
(440,559,cs),
(415,559,o),
(396,539,o),
(396,516,cs),
(396,493,o),
(415,473,o),
(440,473,cs)
);
},
{
closed = 1;
nodes = (
(429,499,o),
(424,505,o),
(424,516,cs),
(424,527,o),
(429,533,o),
(440,533,cs),
(451,533,o),
(456,527,o),
(456,516,cs),
(456,505,o),
(451,499,o),
(440,499,cs)
);
},
{
closed = 1;
nodes = (
(539,-4,o),
(482,100,o),
(461,176,c),
(473,205,o),
(479,230,o),
(479,244,cs),
(479,265,o),
(468,280,o),
(452,280,cs),
(435,280,o),
(421,265,o),
(421,234,cs),
(421,220,o),
(424,200,o),
(430,178,c),
(400,113,o),
(336,32,o),
(237,32,cs),
(124,32,o),
(45,131,o),
(45,341,cs),
(45,658,o),
(232,904,o),
(460,904,cs),
(641,904,o),
(749,747,o),
(785,626,c),
(775,595,o),
(770,567,o),
(770,543,cs),
(770,505,o),
(782,489,o),
(799,489,cs),
(813,489,o),
(828,502,o),
(828,544,cs),
(828,567,o),
(824,595,o),
(815,625,c),
(856,746,o),
(981,898,o),
(1204,898,cs),
(1340,898,o),
(1427,844,o),
(1427,751,cs),
(1427,659,o),
(1337,618,o),
(1255,602,c),
(1223,608,o),
(1192,610,o),
(1169,610,cs),
(1133,610,o),
(1116,603,o),
(1116,587,cs),
(1116,573,o),
(1127,565,o),
(1166,565,cs),
(1190,565,o),
(1221,567,o),
(1255,574,c),
(1325,560,o),
(1398,526,o),
(1398,453,cs),
(1398,380,o),
(1326,345,o),
(1261,330,c),
(1229,335,o),
(1199,337,o),
(1180,337,cs),
(1144,337,o),
(1132,329,o),
(1132,314,cs),
(1132,300,o),
(1145,291,o),
(1177,291,cs),
(1196,291,o),
(1227,294,o),
(1262,301,c),
(1348,286,o),
(1455,246,o),
(1455,149,cs),
(1455,49,o),
(1346,2,o),
(1219,2,cs),
(1035,2,o),
(899,108,o),
(847,228,c),
(849,247,o),
(850,266,o),
(850,286,cs),
(850,352,o),
(842,388,o),
(818,388,cs),
(801,388,o),
(794,371,o),
(794,337,cs),
(794,300,o),
(802,262,o),
(817,225,c),
(805,92,o),
(749,-4,o),
(646,-4,cs)
);
}
);
width = 1500;
},
{
layerId = m006;
shapes = (
{
closed = 1;
nodes = (
(749,-4,o),
(805,92,o),
(817,225,c),
(802,262,o),
(794,300,o),
(794,337,cs),
(794,371,o),
(801,388,o),
(818,388,cs),
(842,388,o),
(850,352,o),
(850,286,cs),
(850,266,o),
(849,247,o),
(847,228,c),
(899,108,o),
(1035,2,o),
(1219,2,cs),
(1346,2,o),
(1455,49,o),
(1455,149,cs),
(1455,246,o),
(1348,286,o),
(1262,301,c),
(1227,294,o),
(1196,291,o),
(1177,291,cs),
(1145,291,o),
(1132,300,o),
(1132,314,cs),
(1132,329,o),
(1144,337,o),
(1180,337,cs),
(1199,337,o),
(1229,335,o),
(1261,330,c),
(1326,345,o),
(1398,380,o),
(1398,453,cs),
(1398,526,o),
(1325,560,o),
(1255,574,c),
(1221,567,o),
(1190,565,o),
(1166,565,cs),
(1127,565,o),
(1116,573,o),
(1116,587,cs),
(1116,603,o),
(1133,610,o),
(1169,610,cs),
(1192,610,o),
(1223,608,o),
(1255,602,c),
(1337,618,o),
(1427,659,o),
(1427,751,cs),
(1427,844,o),
(1340,898,o),
(1204,898,cs),
(981,898,o),
(856,746,o),
(815,625,c),
(824,595,o),
(828,567,o),
(828,544,cs),
(828,502,o),
(813,489,o),
(799,489,cs),
(782,489,o),
(770,505,o),
(770,543,cs),
(770,567,o),
(775,595,o),
(785,626,c),
(749,747,o),
(641,904,o),
(460,904,cs),
(232,904,o),
(45,658,o),
(45,341,cs),
(45,131,o),
(124,32,o),
(237,32,cs),
(336,32,o),
(400,113,o),
(430,178,c),
(424,200,o),
(421,220,o),
(421,234,cs),
(421,265,o),
(435,280,o),
(452,280,cs),
(468,280,o),
(479,265,o),
(479,244,cs),
(479,230,o),
(473,205,o),
(461,176,c),
(482,100,o),
(539,-4,o),
(646,-4,cs)
);
},
{
closed = 1;
nodes = (
(415,473,o),
(396,493,o),
(396,516,cs),
(396,539,o),
(415,559,o),
(440,559,cs),
(465,559,o),
(484,539,o),
(484,516,cs),
(484,493,o),
(465,473,o),
(440,473,cs)
);
}
);
width = 1500;
}
);
unicode = (198,230);
},
{
color = 6;
glyphname = B;
kernLeft = H;
kernRight = B;
lastChange = "2024-09-27 09:10:39 +0000";
layers = (
{
layerId = m01;
shapes = (
{
attr = {
strokeHeight = 28;
strokeWidth = 30;
};
closed = 1;
nodes = (
(669,-18,o),
(843,101,o),
(843,261,cs),
(843,405,o),
(702,489,o),
(627,489,cs),
(611,489,o),
(601,485,o),
(601,478,cs),
(601,471,o),
(611,465,o),
(625,465,cs),
(674,465,o),
(772,540,o),
(772,660,cs),
(772,808,o),
(624,916,o),
(416,916,cs),
(121,916,o),
(30,700,o),
(30,392,cs),
(30,133,o),
(94,-18,o),
(399,-18,cs)
);
},
{
attr = {
strokeHeight = 26;
strokeWidth = 28;
};
closed = 1;
nodes = (
(407,270,o),
(395,284,o),
(395,300,cs),
(395,316,o),
(407,330,o),
(425,330,cs),
(443,330,o),
(455,316,o),
(455,300,cs),
(455,284,o),
(443,270,o),
(425,270,cs)
);
},
{
attr = {
strokeHeight = 26;
strokeWidth = 28;
};
closed = 1;
nodes = (
(388,570,o),
(375,584,o),
(375,600,cs),
(375,616,o),
(388,630,o),
(405,630,cs),
(422,630,o),
(435,616,o),
(435,600,cs),
(435,584,o),
(422,570,o),
(405,570,cs)
);
}
);
width = 870;
},
{
layerId = "AA01E2DD-0766-4133-B890-CA2A0BF1A57D";
shapes = (
{
closed = 1;
nodes = (
(669,-18,o),
(843,101,o),
(843,261,cs),
(843,379,o),
(748,457,o),
(673,481,c),
(720,509,o),
(772,573,o),
(772,660,cs),
(772,808,o),
(624,916,o),
(416,916,cs),
(121,916,o),
(30,700,o),
(30,392,cs),
(30,133,o),
(94,-18,o),
(399,-18,cs)
);
},
{
closed = 1;
nodes = (
(375,616,o),
(388,630,o),
(405,630,cs),
(422,630,o),
(435,616,o),
(435,600,cs),
(435,584,o),
(422,570,o),
(405,570,cs),
(388,570,o),
(375,584,o),
(375,600,cs)
);
},
{
closed = 1;
nodes = (
(395,316,o),
(407,330,o),
(425,330,cs),
(443,330,o),
(455,316,o),
(455,300,cs),
(455,284,o),
(443,270,o),
(425,270,cs),
(407,270,o),
(395,284,o),
(395,300,cs)
);
}
);
width = 870;
},
{
layerId = "18EF3260-CEF7-4699-AE8F-A1FB16D1B078";
shapes = (
{
attr = {
lineCapEnd = "1";
lineCapStart = "1";
strokeHeight = 28;
strokeWidth = 28;
};
closed = 0;
nodes = (
(282,835,l),
(275,833,o),
(265,829,o),
(259,826,c)
);
},
{
attr = {
lineCapEnd = "1";
lineCapStart = "1";
strokeHeight = 28;
strokeWidth = 28;
};
closed = 0;
nodes = (
(215,799,l),
(183,775,o),
(159,744,o),
(141,706,c)
);
}
);
width = 870;
},
{
layerId = "F563C7B0-622D-42B3-911E-B48219F56EF3";
shapes = (
{
attr = {
lineCapEnd = "1";
lineCapStart = "1";
strokeHeight = 28;
strokeWidth = 28;
};
closed = 0;
nodes = (
(282,835,l),
(275,833,o),
(265,829,o),
(259,826,c)
);
},
{
attr = {
lineCapEnd = "1";
lineCapStart = "1";
strokeHeight = 28;
strokeWidth = 28;
};
closed = 0;
nodes = (
(215,799,l),
(183,775,o),
(159,744,o),
(141,706,c)
);
}
);
width = 870;
},
{
layerId = "F41CCFAE-1054-41CD-BE75-8F05F0A4F59E";
shapes = (
{
closed = 1;
nodes = (
(706,-63,o),
(888,61,o),
(888,231,cs),
(888,309,o),
(850,370,o),
(801,412,c),
(784,432,o),
(764,449,o),
(744,463,c),
(783,499,o),
(817,557,o),
(817,630,cs),
(817,701,o),
(785,763,o),
(731,810,c),
(667,885,o),
(554,931,o),
(416,931,cs),
(110,931,o),
(15,706,o),
(15,392,cs),
(15,272,o),
(29,174,o),
(74,102,cs),
(88,80,o),
(105,60,o),
(125,43,c),
(182,-26,o),
(276,-63,o),
(429,-63,cs)
);
},
{
closed = 1;
nodes = (
(452,257,o),
(469,277,o),
(469,300,cs),
(469,323,o),
(452,343,o),
(425,343,cs),
(398,343,o),
(381,323,o),
(381,300,cs),
(381,277,o),
(398,257,o),
(425,257,cs)
);
},
{
closed = 1;
nodes = (
(104,-4,o),
(45,136,o),
(45,392,cs),
(45,697,o),
(131,902,o),
(416,902,cs),
(619,902,o),
(757,801,o),
(757,660,cs),
(757,580,o),
(713,523,o),
(672,496,c),
(656,501,o),
(640,503,o),
(627,503,cs),
(601,503,o),
(586,493,o),
(586,478,cs),
(586,465,o),
(600,451,o),
(625,451,cs),
(639,451,o),
(657,456,o),
(675,466,c),
(744,442,o),
(828,370,o),
(828,261,cs),
(828,108,o),
(664,-4,o),
(399,-4,cs)
);
},
{
closed = 1;
nodes = (
(430,557,o),
(449,577,o),
(449,600,cs),
(449,623,o),
(430,643,o),
(405,643,cs),
(380,643,o),
(361,623,o),
(361,600,cs),
(361,577,o),
(380,557,o),
(405,557,cs)
);
}
);
width = 870;
},
{
layerId = "9609D89D-5179-4910-93A4-3439D6828341";
shapes = (
{
closed = 1;
nodes = (
(676,-32,o),
(858,92,o),
(858,261,cs),
(858,374,o),
(778,451,o),
(703,484,c),
(747,520,o),
(787,580,o),
(787,660,cs),
(787,817,o),
(631,930,o),
(416,930,cs),
(110,930,o),
(15,705,o),
(15,392,cs),
(15,128,o),
(83,-32,o),
(399,-32,cs)
);
},
{
closed = 1;
nodes = (
(452,257,o),
(469,277,o),
(469,300,cs),
(469,323,o),
(452,343,o),
(425,343,cs),
(398,343,o),
(381,323,o),
(381,300,cs),
(381,277,o),
(398,257,o),
(425,257,cs)
);
},
{
closed = 1;
nodes = (
(414,283,o),
(409,289,o),
(409,300,cs),
(409,311,o),
(414,317,o),
(425,317,cs),
(436,317,o),
(441,311,o),
(441,300,cs),
(441,289,o),
(436,283,o),
(425,283,cs)
);
},
{
closed = 1;
nodes = (
(104,-4,o),
(45,136,o),
(45,392,cs),
(45,697,o),
(131,902,o),
(416,902,cs),
(619,902,o),
(757,801,o),
(757,660,cs),
(757,580,o),
(713,523,o),
(672,496,c),
(656,501,o),
(640,503,o),
(627,503,cs),
(601,503,o),
(586,493,o),
(586,478,cs),
(586,465,o),
(600,451,o),
(625,451,cs),
(639,451,o),
(657,456,o),
(675,466,c),
(744,442,o),
(828,370,o),
(828,261,cs),
(828,108,o),
(664,-4,o),
(399,-4,cs)
);
},
{
closed = 1;
nodes = (
(430,557,o),
(449,577,o),
(449,600,cs),
(449,623,o),
(430,643,o),
(405,643,cs),
(380,643,o),
(361,623,o),
(361,600,cs),
(361,577,o),
(380,557,o),
(405,557,cs)
);
},
{
closed = 1;
nodes = (
(394,583,o),
(389,589,o),
(389,600,cs),
(389,611,o),
(394,617,o),
(405,617,cs),
(416,617,o),
(421,611,o),
(421,600,cs),
(421,589,o),
(416,583,o),
(405,583,cs)
);
}
);
width = 870;
},
{
layerId = m006;
shapes = (
{
closed = 1;
nodes = (
(664,-4,o),
(828,108,o),
(828,261,cs),
(828,370,o),
(744,442,o),
(675,466,c),
(657,456,o),
(639,451,o),
(625,451,cs),
(600,451,o),
(586,465,o),
(586,478,cs),
(586,493,o),
(601,503,o),
(627,503,cs),
(640,503,o),
(656,501,o),
(672,496,c),
(713,523,o),
(757,580,o),
(757,660,cs),
(757,801,o),
(619,902,o),
(416,902,cs),
(131,902,o),
(45,697,o),
(45,392,cs),
(45,136,o),
(104,-4,o),
(399,-4,cs)
);
},
{
closed = 1;
nodes = (
(398,257,o),
(381,277,o),
(381,300,cs),
(381,323,o),
(398,343,o),
(425,343,cs),
(452,343,o),
(469,323,o),
(469,300,cs),
(469,277,o),
(452,257,o),
(425,257,cs)
);
},
{
closed = 1;
nodes = (
(380,557,o),
(361,577,o),
(361,600,cs),
(361,623,o),
(380,643,o),
(405,643,cs),
(430,643,o),
(449,623,o),
(449,600,cs),
(449,577,o),
(430,557,o),
(405,557,cs)
);
}
);
width = 870;
}
);
unicode = (66,98);
},
{
color = 6;
glyphname = C;
kernLeft = C;
kernRight = C;
lastChange = "2024-09-27 09:10:39 +0000";
layers = (
{
anchors = (
{
name = bottom;
pos = (450,0);
},
{
name = top;
pos = (480,900);
}
);
layerId = m01;
shapes = (
{
attr = {
strokeHeight = 28;
strokeWidth = 30;
};
closed = 1;
nodes = (
(674,-16,o),
(813,77,o),
(813,223,cs),
(813,384,o),
(643,507,o),
(473,507,cs),
(421,507,o),
(397,495,o),
(397,479,cs),
(397,462,o),
(421,447,o),
(474,447,cs),
(640,447,o),
(765,593,o),
(765,712,cs),
(765,808,o),
(684,916,o),
(508,916,cs),
(273,916,o),
(30,723,o),
(30,421,cs),
(30,136,o),
(246,-16,o),
(485,-16,cs)
);
}
);
width = 840;
},
{
anchors = (
{
name = bottom;
pos = (450,0);
},
{
name = top;
pos = (480,900);
}
);
layerId = "AA01E2DD-0766-4133-B890-CA2A0BF1A57D";
shapes = (
{
closed = 1;
nodes = (
(674,-16,o),
(813,77,o),
(813,223,cs),
(813,340,o),
(723,437,o),
(609,481,c),
(703,531,o),
(765,628,o),
(765,712,cs),
(765,808,o),
(684,916,o),
(508,916,cs),
(273,916,o),
(30,723,o),
(30,421,cs),
(30,136,o),
(246,-16,o),
(485,-16,cs)
);
}
);
width = 840;
},
{
anchors = (
{
name = bottom;
pos = (450,0);
},
{
name = top;
pos = (480,900);
}
);
layerId = "18EF3260-CEF7-4699-AE8F-A1FB16D1B078";
shapes = (
{
attr = {
lineCapEnd = "1";
lineCapStart = "1";
strokeHeight = 28;
strokeWidth = 28;
};
closed = 0;
nodes = (
(269,781,l),
(230,754,o),
(194,719,o),
(166,678,c)
);
},
{
attr = {
lineCapEnd = "1";
lineCapStart = "1";
strokeHeight = 28;
strokeWidth = 28;
};
closed = 0;
nodes = (
(349,825,l),
(337,820,o),
(325,815,o),
(314,809,c)
);
}
);
width = 840;
},
{
anchors = (
{
name = bottom;
pos = (450,0);
},
{
name = top;
pos = (480,900);
}
);
layerId = "F563C7B0-622D-42B3-911E-B48219F56EF3";
shapes = (
{
attr = {
lineCapEnd = "1";
lineCapStart = "1";
strokeHeight = 28;
strokeWidth = 28;
};
closed = 0;
nodes = (
(269,781,l),
(230,754,o),
(194,719,o),
(166,678,c)
);
},
{
attr = {
lineCapEnd = "1";
lineCapStart = "1";
strokeHeight = 28;
strokeWidth = 28;
};
closed = 0;
nodes = (
(349,825,l),
(337,820,o),
(325,815,o),
(314,809,c)
);
}
);
width = 840;
},
{
anchors = (
{
name = bottom;
pos = (450,0);
},
{
name = top;
pos = (480,900);
}
);
layerId = "F41CCFAE-1054-41CD-BE75-8F05F0A4F59E";
shapes = (
{
closed = 1;
nodes = (
(711,-61,o),
(858,37,o),
(858,193,cs),
(858,273,o),
(819,343,o),
(760,396,c),
(738,421,o),
(712,443,o),
(683,461,c),
(761,517,o),
(810,605,o),
(810,682,cs),
(810,737,o),
(785,796,o),
(733,839,c),
(690,892,o),
(615,931,o),
(508,931,cs),
(266,931,o),
(15,732,o),
(15,421,cs),
(15,276,o),
(69,164,o),
(154,88,c),
(242,-10,o),
(375,-61,o),
(515,-61,cs)
);
},
{
closed = 1;
nodes = (
(251,-2,o),
(45,143,o),
(45,421,cs),
(45,717,o),
(279,902,o),
(508,902,cs),
(676,902,o),
(750,804,o),
(750,712,cs),
(750,634,o),
(695,544,o),
(609,496,c),
(565,512,o),
(519,521,o),
(473,521,cs),
(409,521,o),
(382,503,o),
(382,479,cs),
(382,454,o),
(410,433,o),
(474,433,cs),
(524,433,o),
(570,445,o),
(611,466,c),
(717,423,o),
(798,333,o),
(798,223,cs),
(798,84,o),
(669,-2,o),
(485,-2,cs)
);
},
{
closed = 1;
nodes = (
(426,461,o),
(412,469,o),
(412,479,cs),
(412,487,o),
(425,493,o),
(473,493,cs),
(507,493,o),
(540,488,o),
(572,479,c),
(542,468,o),
(509,461,o),
(474,461,cs)
);
}
);
width = 840;
},
{
anchors = (
{
name = bottom;
pos = (450,0);
},
{
name = top;
pos = (480,900);
}
);
layerId = "9609D89D-5179-4910-93A4-3439D6828341";
shapes = (
{
closed = 1;
nodes = (
(681,-30,o),
(828,68,o),
(828,223,cs),
(828,337,o),
(747,433,o),
(640,483,c),
(726,539,o),
(780,631,o),
(780,712,cs),
(780,814,o),
(694,930,o),
(508,930,cs),
(265,930,o),
(15,731,o),
(15,421,cs),
(15,127,o),
(239,-30,o),
(485,-30,cs)
);
},
{
closed = 1;
nodes = (
(251,-2,o),
(45,143,o),
(45,421,cs),
(45,717,o),
(279,902,o),
(508,902,cs),
(676,902,o),
(750,804,o),
(750,712,cs),
(750,634,o),
(695,544,o),
(609,496,c),
(565,512,o),
(519,521,o),
(473,521,cs),
(409,521,o),
(382,503,o),
(382,479,cs),
(382,454,o),
(410,433,o),
(474,433,cs),
(524,433,o),
(570,445,o),
(611,466,c),
(717,423,o),
(798,333,o),
(798,223,cs),
(798,84,o),
(669,-2,o),
(485,-2,cs)
);
},
{
closed = 1;
nodes = (
(426,461,o),
(412,469,o),
(412,479,cs),
(412,487,o),
(425,493,o),
(473,493,cs),
(507,493,o),
(540,488,o),
(572,479,c),
(542,468,o),
(509,461,o),
(474,461,cs)
);
}
);
width = 840;
},
{
anchors = (
{
name = bottom;
pos = (450,0);
},
{
name = top;
pos = (480,900);
}
);
layerId = m006;
shapes = (
{
closed = 1;
nodes = (
(669,-2,o),
(798,84,o),
(798,223,cs),
(798,333,o),
(717,423,o),
(611,466,c),
(570,445,o),
(524,433,o),
(474,433,cs),
(410,433,o),
(382,454,o),
(382,479,cs),
(382,503,o),
(409,521,o),
(473,521,cs),
(519,521,o),
(565,512,o),
(609,496,c),
(695,544,o),
(750,634,o),
(750,712,cs),
(750,804,o),
(676,902,o),
(508,902,cs),
(279,902,o),
(45,717,o),
(45,421,cs),
(45,143,o),
(251,-2,o),
(485,-2,cs)
);
},
{
closed = 1;
nodes = (
(509,461,o),
(542,468,o),
(572,479,c),
(540,488,o),
(507,493,o),
(473,493,cs),
(425,493,o),
(412,487,o),
(412,479,cs),
(412,469,o),
(426,461,o),
(474,461,cs)
);
}
);
width = 840;
}
);
unicode = (67,99);
},
{
color = 6;
glyphname = Ccedilla;
kernLeft = C;
kernRight = C;
lastChange = "2024-09-27 09:10:39 +0000";
layers = (
{
anchors = (
{
name = bottom;
pos = (450,0);
},
{
name = top;
pos = (480,900);
}
);
layerId = m01;
shapes = (
{
ref = C;
},
{
pos = (150,0);
ref = cedillacomb;
}
);
width = 840;
},
{
layerId = "AA01E2DD-0766-4133-B890-CA2A0BF1A57D";
shapes = (
{
ref = C;
},
{
pos = (150,0);
ref = cedillacomb;
}
);
width = 840;
},
{
layerId = "18EF3260-CEF7-4699-AE8F-A1FB16D1B078";
shapes = (
{
ref = C;
},
{
pos = (150,0);
ref = cedillacomb;
}
);
width = 840;
},
{
layerId = "F563C7B0-622D-42B3-911E-B48219F56EF3";
shapes = (
{
ref = C;
},
{
pos = (150,0);
ref = cedillacomb;
}
);
width = 840;
},
{
anchors = (
{
name = bottom;
pos = (450,0);
},
{
name = top;
pos = (480,900);
}
);
layerId = "F41CCFAE-1054-41CD-BE75-8F05F0A4F59E";
shapes = (
{
closed = 1;
nodes = (
(547,-300,o),
(653,-213,o),
(653,-109,cs),
(653,-86,o),
(648,-65,o),
(639,-47,c),
(770,-14,o),
(858,73,o),
(858,193,cs),
(858,273,o),
(819,343,o),
(760,396,c),
(738,421,o),
(712,443,o),
(683,461,c),
(761,517,o),
(810,605,o),
(810,682,cs),
(810,737,o),
(785,796,o),
(733,839,c),
(690,892,o),
(615,931,o),
(508,931,cs),
(266,931,o),
(15,732,o),
(15,421,cs),
(15,276,o),
(69,164,o),
(154,88,c),
(190,47,o),
(236,14,o),
(285,-10,c),
(281,-20,o),
(279,-30,o),
(279,-41,cs),
(279,-70,o),
(295,-92,o),
(319,-107,c),
(326,-119,o),
(337,-129,o),
(349,-137,c),
(335,-159,o),
(326,-183,o),
(326,-204,cs),
(326,-225,o),
(338,-248,o),
(362,-260,c),
(373,-284,o),
(400,-300,o),
(443,-300,cs)
);
},
{
closed = 1;
nodes = (
(368,-241,o),
(355,-225,o),
(355,-204,cs),
(355,-179,o),
(371,-149,o),
(391,-129,c),
(405,-129,ls),
(442,-129,o),
(464,-117,o),
(464,-100,cs),
(464,-87,o),
(452,-77,o),
(434,-77,cs),
(418,-77,o),
(399,-87,o),
(382,-101,c),
(343,-95,o),
(308,-75,o),
(308,-41,cs),
(308,-28,o),
(312,-16,o),
(321,-5,c),
(373,-21,o),
(428,-30,o),
(485,-30,cs),
(518,-30,o),
(549,-27,o),
(578,-22,c),
(588,-39,o),
(593,-58,o),
(593,-79,cs),
(593,-168,o),
(502,-241,o),
(412,-241,cs)
);
},
{
closed = 1;
nodes = (
(436,-2,o),
(390,4,o),
(345,16,c),
(368,31,o),
(402,41,o),
(444,41,cs),
(494,41,o),
(533,27,o),
(559,3,c),
(535,0,o),
(511,-2,o),
(485,-2,cs)
);
},
{
closed = 1;
nodes = (
(562,46,o),
(511,69,o),
(445,69,cs),
(390,69,o),
(343,52,o),
(313,27,c),
(159,82,o),
(45,215,o),
(45,421,cs),
(45,717,o),
(279,902,o),
(508,902,cs),
(676,902,o),
(750,804,o),
(750,712,cs),
(750,634,o),
(695,544,o),
(609,496,c),
(565,512,o),
(519,521,o),
(473,521,cs),
(409,521,o),
(382,503,o),
(382,479,cs),
(382,454,o),
(410,433,o),
(474,433,cs),
(524,433,o),
(570,445,o),
(611,466,c),
(717,423,o),
(798,333,o),
(798,223,cs),
(798,113,o),
(717,37,o),
(592,9,c)
);
},
{
closed = 1;
nodes = (
(426,461,o),
(412,469,o),
(412,479,cs),
(412,487,o),
(425,493,o),
(473,493,cs),
(507,493,o),
(540,488,o),
(572,479,c),
(542,468,o),
(509,461,o),
(474,461,cs)
);
}
);
width = 840;
},
{
layerId = "9609D89D-5179-4910-93A4-3439D6828341";
shapes = (
{
ref = C;
},
{
pos = (150,0);
ref = cedillacomb;
}
);
width = 840;
},
{
layerId = m006;
shapes = (
{
ref = C;
},
{
pos = (150,0);
ref = cedillacomb;
}
);
width = 840;
}
);
unicode = (199,231);
},
{
color = 6;
glyphname = D;
kernLeft = H;
kernRight = O;
lastChange = "2024-09-27 09:10:39 +0000";
layers = (
{
anchors = (
{
name = bottom;
pos = (438,0);
},
{
name = center;
pos = (465,450);
},
{
name = top;
pos = (438,900);
}
);
layerId = m01;
shapes = (
{
attr = {
strokeHeight = 28;
strokeWidth = 30;
};
closed = 1;
nodes = (
(643,-12,o),
(900,203,o),
(900,466,cs),
(900,741,o),
(617,912,o),
(359,912,cs),
(113,912,o),
(30,757,o),
(30,415,cs),
(30,104,o),
(99,-12,o),
(329,-12,cs)
);
},
{
attr = {
strokeHeight = 27;
strokeWidth = 29;
};
closed = 1;
nodes = (
(407,357,o),
(392,382,o),
(392,456,cs),
(392,530,o),
(407,555,o),
(440,555,cs),
(483,555,o),
(524,511,o),
(524,456,cs),
(524,401,o),
(483,357,o),
(440,357,cs)
);
}
);
width = 930;
},
{
anchors = (
{
name = bottom;
pos = (438,0);
},
{
name = center;
pos = (465,450);
},
{
name = top;
pos = (438,900);
}
);
layerId = "AA01E2DD-0766-4133-B890-CA2A0BF1A57D";
shapes = (
{
closed = 1;
nodes = (
(643,-12,o),
(900,203,o),
(900,466,cs),
(900,741,o),
(617,912,o),
(359,912,cs),
(113,912,o),
(30,757,o),
(30,415,cs),
(30,104,o),
(99,-12,o),
(329,-12,cs)
);
},
{
closed = 1;
nodes = (
(392,530,o),
(407,555,o),
(440,555,cs),
(483,555,o),
(524,511,o),
(524,456,cs),
(524,401,o),
(483,357,o),
(440,357,cs),
(407,357,o),
(392,382,o),
(392,456,cs)
);
}
);
width = 930;
},
{
anchors = (
{
name = bottom;
pos = (438,0);
},
{
name = center;
pos = (465,450);
},
{
name = top;
pos = (438,900);
}
);
layerId = "18EF3260-CEF7-4699-AE8F-A1FB16D1B078";
shapes = (
{
attr = {
lineCapEnd = 1;
lineCapStart = 1;
strokeHeight = 28;
strokeWidth = 28;
};
closed = 0;
nodes = (
(125,711,l),
(140,753,o),
(162,784,o),
(190,807,c)
);
},
{
attr = {
lineCapEnd = 1;
lineCapStart = 1;
strokeHeight = 28;
strokeWidth = 28;
};
closed = 0;
nodes = (
(235,833,l),
(243,836,o),
(252,839,o),
(261,841,cs)
);
}
);
width = 930;
},
{
anchors = (
{
name = bottom;
pos = (438,0);
},
{
name = center;
pos = (465,450);
},
{
name = top;
pos = (438,900);
}
);
layerId = "F563C7B0-622D-42B3-911E-B48219F56EF3";
shapes = (
{
attr = {
lineCapEnd = 1;
lineCapStart = 1;
strokeHeight = 28;
strokeWidth = 28;
};
closed = 0;
nodes = (
(125,711,l),
(140,753,o),
(162,784,o),
(190,807,c)
);
},
{
attr = {
lineCapEnd = 1;
lineCapStart = 1;
strokeHeight = 28;
strokeWidth = 28;
};
closed = 0;
nodes = (
(235,833,l),
(243,836,o),
(252,839,o),
(261,841,cs)
);
}
);
width = 930;
},
{
anchors = (
{
name = bottom;
pos = (438,0);
},
{
name = center;
pos = (465,450);
},
{
name = top;
pos = (438,900);
}
);
layerId = "F41CCFAE-1054-41CD-BE75-8F05F0A4F59E";
shapes = (
{
closed = 1;
nodes = (
(680,-57,o),
(945,164,o),
(945,436,cs),
(945,560,o),
(890,664,o),
(806,741,c),
(697,860,o),
(523,927,o),
(359,927,cs),
(102,927,o),
(15,763,o),
(15,415,cs),
(15,251,o),
(35,138,o),
(87,68,cs),
(98,54,o),
(110,41,o),
(123,30,c),
(172,-30,o),
(248,-57,o),
(359,-57,cs)
);
},
{
closed = 1;
nodes = (
(438,385,o),
(437,402,o),
(437,426,cs),
(437,496,o),
(445,510,o),
(470,510,cs),
(480,510,o),
(489,508,o),
(497,503,c),
(505,490,o),
(509,474,o),
(509,456,cs),
(509,407,o),
(477,372,o),
(440,372,c)
);
},
{
closed = 1;
nodes = (
(108,2,o),
(45,108,o),
(45,415,cs),
(45,754,o),
(122,898,o),
(359,898,cs),
(613,898,o),
(885,733,o),
(885,466,cs),
(885,209,o),
(637,2,o),
(329,2,cs)
);
},
{
closed = 1;
nodes = (
(492,344,o),
(539,394,o),
(539,456,cs),
(539,518,o),
(492,569,o),
(440,569,cs),
(396,569,o),
(378,536,o),
(378,456,cs),
(378,376,o),
(396,344,o),
(440,344,cs)
);
}
);
width = 930;
},
{
anchors = (
{
name = bottom;
pos = (438,0);
},
{
name = center;
pos = (465,450);
},
{
name = top;
pos = (438,900);
}
);
layerId = "9609D89D-5179-4910-93A4-3439D6828341";
shapes = (
{
closed = 1;
nodes = (
(651,-26,o),
(915,195,o),
(915,466,cs),
(915,751,o),
(623,926,o),
(359,926,cs),
(102,926,o),
(15,762,o),
(15,415,cs),
(15,98,o),
(88,-26,o),
(329,-26,cs)
);
},
{
closed = 1;
nodes = (
(108,2,o),
(45,108,o),
(45,415,cs),
(45,754,o),
(122,898,o),
(359,898,cs),
(613,898,o),
(885,733,o),
(885,466,cs),
(885,209,o),
(637,2,o),
(329,2,cs)
);
},
{
closed = 1;
nodes = (
(492,344,o),
(539,394,o),
(539,456,cs),
(539,518,o),
(492,569,o),
(440,569,cs),
(396,569,o),
(378,536,o),
(378,456,cs),
(378,376,o),
(396,344,o),
(440,344,cs)
);
},
{
closed = 1;
nodes = (
(416,371,o),
(407,386,o),
(407,456,cs),
(407,526,o),
(416,542,o),
(440,542,cs),
(476,542,o),
(510,506,o),
(510,456,cs),
(510,406,o),
(476,371,o),
(440,371,cs)
);
}
);
width = 930;
},
{
anchors = (
{
name = bottom;
pos = (438,0);
},
{
name = center;
pos = (465,450);
},
{
name = top;
pos = (438,900);
}
);
layerId = m006;
shapes = (
{
closed = 1;
nodes = (
(637,2,o),
(885,209,o),
(885,466,cs),
(885,733,o),
(613,898,o),
(359,898,cs),
(122,898,o),
(45,754,o),
(45,415,cs),
(45,108,o),
(108,2,o),
(329,2,cs)
);
},
{
closed = 1;
nodes = (
(396,344,o),
(378,376,o),
(378,456,cs),
(378,536,o),
(396,569,o),
(440,569,cs),
(492,569,o),
(539,518,o),
(539,456,cs),
(539,394,o),
(492,344,o),
(440,344,cs)
);
}
);
width = 930;
}
);
unicode = 68;
},
{
color = 6;
glyphname = Eth;
kernLeft = Eth;
kernRight = O;
lastChange = "2024-09-27 09:10:39 +0000";
layers = (
{
layerId = m01;
shapes = (
{
attr = {
strokeHeight = 28;
strokeWidth = 30;
};
closed = 1;
nodes = (
(758,-12,o),
(990,208,o),
(990,465,cs),
(990,736,o),
(732,912,o),
(442,912,cs),
(218,912,o),
(130,809,o),
(117,528,c),
(60,513,o),
(27,487,o),
(27,451,cs),
(27,415,o),
(57,392,o),
(114,379,c),
(115,77,o),
(186,-12,o),
(408,-12,cs)
);
},
{
attr = {
strokeHeight = 27;
strokeWidth = 29;
};
closed = 1;
nodes = (
(476,297,o),
(454,314,o),
(454,390,c),
(507,406,o),
(531,430,o),
(531,460,cs),
(531,492,o),
(509,514,o),
(454,528,c),
(454,594,o),
(471,615,o),
(505,615,cs),
(564,615,o),
(648,552,o),
(648,456,cs),
(648,360,o),
(563,297,o),
(506,297,cs)
);
}
);
width = 1020;
},
{
layerId = "AA01E2DD-0766-4133-B890-CA2A0BF1A57D";
shapes = (
{
closed = 1;
nodes = (
(758,-12,o),
(990,208,o),
(990,465,cs),
(990,736,o),
(732,912,o),
(442,912,cs),
(218,912,o),
(130,809,o),
(117,528,c),
(60,513,o),
(27,487,o),
(27,451,cs),
(27,415,o),
(57,392,o),
(114,379,c),
(115,77,o),
(186,-12,o),
(408,-12,cs)
);
},
{
closed = 1;
nodes = (
(507,406,o),
(531,430,o),
(531,460,cs),
(531,492,o),
(509,514,o),
(454,528,c),
(454,594,o),
(471,615,o),
(505,615,cs),
(564,615,o),
(648,552,o),
(648,456,cs),
(648,360,o),
(563,297,o),
(506,297,cs),
(476,297,o),
(454,314,o),
(454,390,c)
);
}
);
width = 1020;
},
{
layerId = "18EF3260-CEF7-4699-AE8F-A1FB16D1B078";
shapes = (
{
attr = {
lineCapEnd = "1";
lineCapStart = "1";
strokeHeight = 28;
strokeWidth = 28;
};
closed = 0;
nodes = (
(205,711,l),
(219,756,o),
(241,789,o),
(272,812,cs)
);
},
{
attr = {
lineCapEnd = "1";
lineCapStart = "1";
strokeHeight = 28;
strokeWidth = 28;
};
closed = 0;
nodes = (
(317,836,l),
(324,839,o),
(335,842,o),
(341,843,cs)
);
}
);
width = 1020;
},
{
layerId = "F563C7B0-622D-42B3-911E-B48219F56EF3";
shapes = (
{
attr = {
lineCapEnd = "1";
lineCapStart = "1";
strokeHeight = 28;
strokeWidth = 28;
};
closed = 0;
nodes = (
(205,711,l),
(219,756,o),
(241,789,o),
(272,812,cs)
);
},
{
attr = {
lineCapEnd = "1";
lineCapStart = "1";
strokeHeight = 28;
strokeWidth = 28;
};
closed = 0;
nodes = (
(317,836,l),
(324,839,o),
(335,842,o),
(341,843,cs)
);
}
);
width = 1020;
},
{
layerId = "F41CCFAE-1054-41CD-BE75-8F05F0A4F59E";
shapes = (
{
closed = 1;
nodes = (
(796,-57,o),
(1035,170,o),
(1035,435,cs),
(1035,561,o),
(981,667,o),
(896,745,c),
(791,860,o),
(622,927,o),
(442,927,cs),
(318,927,o),
(233,896,o),
(180,823,cs),
(135,764,o),
(112,678,o),
(104,558,cs),
(104,552,o),
(103,546,o),
(103,540,c),
(48,523,o),
(12,494,o),
(12,451,cs),
(12,423,o),
(26,403,o),
(50,387,c),
(60,370,o),
(76,357,o),
(99,347,c),
(101,275,o),
(107,216,o),
(119,168,cs),
(130,125,o),
(145,90,o),
(165,63,cs),
(176,49,o),
(187,37,o),
(200,27,c),
(248,-34,o),
(324,-57,o),
(438,-57,cs)
);
},
{
closed = 1;
nodes = (
(191,2,o),
(128,84,o),
(129,390,c),
(67,403,o),
(42,420,o),
(42,451,cs),
(42,482,o),
(71,503,o),
(132,517,c),
(143,802,o),
(223,898,o),
(442,898,cs),
(727,898,o),
(975,729,o),
(975,465,cs),
(975,214,o),
(752,2,o),
(408,2,cs)
);
},
{
closed = 1;
nodes = (
(570,284,o),
(663,352,o),
(663,456,cs),
(663,560,o),
(571,629,o),
(505,629,cs),
(460,629,o),
(437,598,o),
(440,518,c),
(499,504,o),
(517,489,o),
(517,460,cs),
(517,434,o),
(497,415,o),
(440,400,c),
(437,307,o),
(467,284,o),
(506,284,cs)
);
},
{
closed = 1;
nodes = (
(501,321,o),
(499,333,o),
(499,349,c),
(550,367,o),
(576,394,o),
(576,430,cs),
(576,457,o),
(564,477,o),
(538,493,c),
(531,507,o),
(518,518,o),
(500,527,c),
(503,563,o),
(513,570,o),
(535,570,cs),
(557,570,o),
(582,561,o),
(604,544,c),
(621,521,o),
(633,491,o),
(633,456,cs),
(633,368,o),
(558,312,o),
(506,312,cs),
(502,312,l)
);
}
);
width = 1020;
},
{
layerId = "9609D89D-5179-4910-93A4-3439D6828341";
shapes = (
{
closed = 1;
nodes = (
(766,-26,o),
(1005,200,o),
(1005,465,cs),
(1005,745,o),
(739,926,o),
(442,926,cs),
(211,926,o),
(117,819,o),
(103,539,c),
(48,522,o),
(12,493,o),
(12,451,cs),
(12,409,o),
(45,383,o),
(99,368,c),
(102,68,o),
(179,-26,o),
(408,-26,cs)
);
},
{
closed = 1;
nodes = (
(191,2,o),
(128,84,o),
(129,390,c),
(67,403,o),
(42,420,o),
(42,451,cs),
(42,482,o),
(71,503,o),
(132,517,c),
(143,802,o),
(223,898,o),
(442,898,cs),
(727,898,o),
(975,729,o),
(975,465,cs),
(975,214,o),
(752,2,o),
(408,2,cs)
);
},
{
closed = 1;
nodes = (
(570,284,o),
(663,352,o),
(663,456,cs),
(663,560,o),
(571,629,o),
(505,629,cs),
(460,629,o),
(437,598,o),
(440,518,c),
(499,504,o),
(517,489,o),
(517,460,cs),
(517,434,o),
(497,415,o),
(440,400,c),
(437,307,o),
(467,284,o),
(506,284,cs)
);
},
{
closed = 1;
nodes = (
(482,311,o),
(470,319,o),
(469,380,c),
(519,398,o),
(546,425,o),
(546,460,cs),
(546,497,o),
(522,522,o),
(469,538,c),
(470,591,o),
(480,602,o),
(505,602,cs),
(559,602,o),
(634,546,o),
(634,456,cs),
(634,366,o),
(558,311,o),
(506,311,cs)
);
}
);
width = 1020;
},
{
layerId = m006;
shapes = (
{
closed = 1;
nodes = (
(752,2,o),
(975,214,o),
(975,465,cs),
(975,729,o),
(727,898,o),
(442,898,cs),
(223,898,o),
(143,802,o),
(132,517,c),
(71,503,o),
(42,482,o),
(42,451,cs),
(42,420,o),
(67,403,o),
(129,390,c),
(128,84,o),
(191,2,o),
(408,2,cs)
);
},
{
closed = 1;
nodes = (
(467,284,o),
(437,307,o),
(440,400,c),
(497,415,o),
(517,434,o),
(517,460,cs),
(517,489,o),
(499,504,o),
(440,518,c),
(437,598,o),
(460,629,o),
(505,629,cs),
(571,629,o),
(663,560,o),
(663,456,cs),
(663,352,o),
(570,284,o),
(506,284,cs)
);
}
);
width = 1020;
}
);
unicode = (208,240);
},
{
color = 6;
glyphname = E;
kernLeft = C;
kernRight = E;
lastChange = "2024-09-27 09:10:39 +0000";
layers = (
{
anchors = (
{
name = bottom;
pos = (450,0);
},
{
name = ogonek;
pos = (660,10);
},
{
name = top;
pos = (450,900);
},
{
name = topleft;
pos = (20,900);
}
);
layerId = m01;
shapes = (
{
attr = {
strokeHeight = 28;
strokeWidth = 30;
};
closed = 1;
nodes = (
(683,-12,o),
(780,36,o),
(780,138,cs),
(780,297,o),
(546,323,o),
(455,323,cs),
(424,323,o),
(411,320,o),
(411,314,cs),
(411,308,o),
(423,305,o),
(449,305,cs),
(523,305,o),
(722,331,o),
(722,453,cs),
(722,571,o),
(535,596,o),
(441,596,cs),
(408,596,o),
(392,593,o),
(392,587,cs),
(392,582,o),
(403,579,o),
(437,579,cs),
(542,579,o),
(752,607,o),
(752,756,cs),
(752,845,o),
(678,912,o),
(507,912,cs),
(234,912,o),
(30,740,o),
(30,427,cs),
(30,121,o),
(224,-12,o),
(511,-12,cs)
);
}
);
width = 810;
},
{
anchors = (
{
name = bottom;
pos = (450,0);
},
{
name = ogonek;
pos = (660,10);
},
{
name = top;
pos = (450,900);
},
{
name = topleft;
pos = (20,900);
}
);
layerId = "AA01E2DD-0766-4133-B890-CA2A0BF1A57D";
shapes = (
{
closed = 1;
nodes = (
(683,-12,o),
(780,36,o),
(780,138,cs),
(780,255,o),
(653,300,o),
(550,316,c),
(631,332,o),
(722,371,o),
(722,453,cs),
(722,536,o),
(630,573,o),
(542,588,c),
(643,604,o),
(752,649,o),
(752,756,cs),
(752,845,o),
(678,912,o),
(507,912,cs),
(234,912,o),
(30,740,o),
(30,427,cs),
(30,121,o),
(224,-12,o),
(511,-12,cs)
);
}
);
width = 810;
},
{
anchors = (
{
name = bottom;
pos = (450,0);
},
{
name = ogonek;
pos = (660,10);
},
{
name = top;
pos = (450,900);
},
{
name = topleft;
pos = (20,900);
}
);
layerId = "18EF3260-CEF7-4699-AE8F-A1FB16D1B078";
shapes = (
{
attr = {
lineCapEnd = 1;
lineCapStart = 1;
strokeHeight = 28;
strokeWidth = 28;
};
closed = 0;
nodes = (
(319,819,l),
(305,814,o),
(292,808,o),
(279,801,c)
);
},
{
attr = {
lineCapEnd = 1;
lineCapStart = 1;
strokeHeight = 28;
strokeWidth = 28;
};
closed = 0;
nodes = (
(231,769,l),
(191,738,o),
(159,698,o),
(135,650,cs)
);
}
);
width = 810;
},
{
anchors = (
{
name = bottom;
pos = (450,0);
},
{
name = ogonek;
pos = (660,10);
},
{
name = top;
pos = (450,900);
},
{
name = topleft;
pos = (20,900);
}
);
layerId = "F563C7B0-622D-42B3-911E-B48219F56EF3";
shapes = (
{
attr = {
lineCapEnd = 1;
lineCapStart = 1;
strokeHeight = 28;
strokeWidth = 28;
};
closed = 0;
nodes = (
(319,819,l),
(305,814,o),
(292,808,o),
(279,801,c)
);
},
{
attr = {
lineCapEnd = 1;
lineCapStart = 1;
strokeHeight = 28;
strokeWidth = 28;
};
closed = 0;
nodes = (
(231,769,l),
(191,738,o),
(159,698,o),
(135,650,cs)
);
}
);
width = 810;
},
{
anchors = (
{
name = bottom;
pos = (450,0);
},
{
name = ogonek;
pos = (660,10);
},
{
name = top;
pos = (450,900);
},
{
name = topleft;
pos = (20,900);
}
);
layerId = "F41CCFAE-1054-41CD-BE75-8F05F0A4F59E";
shapes = (
{
closed = 1;
nodes = (
(719,-57,o),
(825,-5,o),
(825,108,cs),
(825,163,o),
(800,203,o),
(764,231,c),
(759,237,ls),
(737,264,o),
(706,284,o),
(671,299,c),
(725,323,o),
(767,362,o),
(767,423,cs),
(767,465,o),
(747,496,o),
(716,520,c),
(703,538,o),
(684,553,o),
(662,565,c),
(736,592,o),
(797,641,o),
(797,726,cs),
(797,773,o),
(778,815,o),
(739,845,c),
(701,895,o),
(626,927,o),
(507,927,cs),
(227,927,o),
(15,749,o),
(15,427,cs),
(15,273,o),
(63,161,o),
(147,87,c),
(234,-12,o),
(372,-57,o),
(541,-57,cs)
);
},
{
closed = 1;
nodes = (
(229,2,o),
(45,128,o),
(45,427,cs),
(45,734,o),
(240,898,o),
(507,898,cs),
(672,898,o),
(737,839,o),
(737,756,cs),
(737,659,o),
(638,617,o),
(543,602,c),
(505,608,o),
(469,610,o),
(441,610,cs),
(396,610,o),
(377,604,o),
(377,587,cs),
(377,572,o),
(391,565,o),
(437,565,cs),
(466,565,o),
(504,567,o),
(543,574,c),
(625,560,o),
(707,526,o),
(707,453,cs),
(707,380,o),
(626,345,o),
(550,330,c),
(513,335,o),
(479,337,o),
(455,337,cs),
(412,337,o),
(396,330,o),
(396,314,cs),
(396,298,o),
(413,291,o),
(449,291,cs),
(473,291,o),
(510,294,o),
(550,302,c),
(649,287,o),
(765,245,o),
(765,138,cs),
(765,44,o),
(679,2,o),
(511,2,cs)
);
}
);
width = 810;
},
{
anchors = (
{
name = bottom;
pos = (450,0);
},
{
name = ogonek;
pos = (660,10);
},
{
name = top;
pos = (450,900);
},
{
name = topleft;
pos = (20,900);
}
);
layerId = "9609D89D-5179-4910-93A4-3439D6828341";
shapes = (
{
closed = 1;
nodes = (
(689,-26,o),
(795,26,o),
(795,138,cs),
(795,243,o),
(703,294,o),
(611,318,c),
(678,341,o),
(737,382,o),
(737,453,cs),
(737,525,o),
(676,566,o),
(605,587,c),
(690,612,o),
(767,661,o),
(767,756,cs),
(767,853,o),
(686,926,o),
(507,926,cs),
(226,926,o),
(15,748,o),
(15,427,cs),
(15,112,o),
(217,-26,o),
(511,-26,cs)
);
},
{
closed = 1;
nodes = (
(229,2,o),
(45,128,o),
(45,427,cs),
(45,734,o),
(240,898,o),
(507,898,cs),
(672,898,o),
(737,839,o),
(737,756,cs),
(737,659,o),
(638,617,o),
(543,602,c),
(505,608,o),
(469,610,o),
(441,610,cs),
(396,610,o),
(377,604,o),
(377,587,cs),
(377,572,o),
(391,565,o),
(437,565,cs),
(466,565,o),
(504,567,o),
(543,574,c),
(625,560,o),
(707,526,o),
(707,453,cs),
(707,380,o),
(626,345,o),
(550,330,c),
(513,335,o),
(479,337,o),
(455,337,cs),
(412,337,o),
(396,330,o),
(396,314,cs),
(396,298,o),
(413,291,o),
(449,291,cs),
(473,291,o),
(510,294,o),
(550,302,c),
(649,287,o),
(765,245,o),
(765,138,cs),
(765,44,o),
(679,2,o),
(511,2,cs)
);
}
);
width = 810;
},
{
anchors = (
{
name = bottom;
pos = (450,0);
},
{
name = ogonek;
pos = (660,10);
},
{
name = top;
pos = (450,900);
},
{
name = topleft;
pos = (20,900);
}
);
layerId = m006;
shapes = (
{
closed = 1;
nodes = (
(679,2,o),
(765,44,o),
(765,138,cs),
(765,245,o),
(649,287,o),
(550,302,c),
(510,294,o),
(473,291,o),
(449,291,cs),
(413,291,o),
(396,298,o),
(396,314,cs),
(396,330,o),
(412,337,o),
(455,337,cs),
(479,337,o),
(513,335,o),
(550,330,c),
(626,345,o),
(707,380,o),
(707,453,cs),
(707,526,o),
(625,560,o),
(543,574,c),
(504,567,o),
(466,565,o),
(437,565,cs),
(391,565,o),
(377,572,o),
(377,587,cs),
(377,604,o),
(396,610,o),
(441,610,cs),
(469,610,o),
(505,608,o),
(543,602,c),
(638,617,o),
(737,659,o),
(737,756,cs),
(737,839,o),
(672,898,o),
(507,898,cs),
(240,898,o),
(45,734,o),
(45,427,cs),
(45,128,o),
(229,2,o),
(511,2,cs)
);
}
);
width = 810;
}
);
unicode = (69,101);
},
{
color = 6;
glyphname = Eogonek;
kernLeft = C;
kernRight = E;
lastChange = "2024-09-27 09:10:39 +0000";
layers = (
{
background = {
shapes = (
{
attr = {
identifier = ID0x7f7b560a46f0;
strokeHeight = 28;
strokeWidth = 30;
};
closed = 1;
nodes = (
(683,-12,o),
(780,36,o),
(780,138,cs),
(780,297,o),
(546,323,o),
(455,323,cs),
(424,323,o),
(411,320,o),
(411,314,cs),
(411,308,o),
(423,305,o),
(449,305,cs),
(523,305,o),
(722,331,o),
(722,453,cs),
(722,571,o),
(535,596,o),
(441,596,cs),
(408,596,o),
(392,593,o),
(392,587,cs),
(392,582,o),
(403,579,o),
(437,579,cs),
(542,579,o),
(752,607,o),
(752,756,cs),
(752,845,o),
(678,912,o),
(507,912,cs),
(234,912,o),
(30,740,o),
(30,427,cs),
(30,121,o),
(224,-12,o),
(511,-12,cs)
);
}
);
};
layerId = m01;
shapes = (
{
attr = {
identifier = ID0x7f7b560a46f0;
strokeHeight = 28;
strokeWidth = 30;
};
closed = 1;
nodes = (
(682,-255,o),
(729,-192,o),
(729,-145,cs),
(729,-91,o),
(668,-45,o),
(616,-45,cs),
(599,-45,o),
(587,-50,o),
(587,-52,cs),
(587,-54,o),
(591,-56,o),
(598,-56,cs),
(642,-56,o),
(780,12,o),
(780,133,cs),
(780,281,o),
(574,323,o),
(456,323,cs),
(424,323,o),
(411,320,o),
(411,314,cs),
(411,308,o),
(423,305,o),
(449,305,cs),
(523,305,o),
(722,331,o),
(722,453,cs),
(722,571,o),
(535,596,o),
(441,596,cs),
(408,596,o),
(392,593,o),
(392,587,cs),
(392,582,o),
(403,579,o),
(437,579,cs),
(542,579,o),
(752,607,o),
(752,756,cs),
(752,845,o),
(677,912,o),
(508,912,cs),
(234,912,o),
(30,736,o),
(30,437,cs),
(30,113,o),
(271,21,o),
(421,21,cs),
(468,21,o),
(481,30,o),
(481,37,cs),
(481,41,o),
(478,44,o),
(469,44,cs),
(428,44,o),
(337,-24,o),
(337,-111,cs),
(337,-194,o),
(426,-255,o),
(553,-255,cs)
);
}
);
width = 810;
},
{
background = {
shapes = (
{
attr = {
identifier = ID0x7f7b560a46f0;
strokeHeight = 28;
strokeWidth = 30;
};
closed = 1;
nodes = (
(683,-12,o),
(780,36,o),
(780,138,cs),
(780,297,o),
(546,323,o),
(455,323,cs),
(424,323,o),
(411,320,o),
(411,314,cs),
(411,308,o),
(423,305,o),
(449,305,cs),
(523,305,o),
(722,331,o),
(722,453,cs),
(722,571,o),
(535,596,o),
(441,596,cs),
(408,596,o),
(392,593,o),
(392,587,cs),
(392,582,o),
(403,579,o),
(437,579,cs),
(542,579,o),
(752,607,o),
(752,756,cs),
(752,845,o),
(678,912,o),
(507,912,cs),
(234,912,o),
(30,740,o),
(30,427,cs),
(30,121,o),
(224,-12,o),
(511,-12,cs)
);
}
);
};
layerId = "AA01E2DD-0766-4133-B890-CA2A0BF1A57D";
shapes = (
{
closed = 1;
nodes = (
(682,-255,o),
(729,-192,o),
(729,-145,cs),
(729,-98,o),
(682,-57,o),
(636,-47,c),
(694,-25,o),
(780,37,o),
(780,133,cs),
(780,247,o),
(658,298,o),
(549,315,c),
(631,332,o),
(722,370,o),
(722,453,cs),
(722,536,o),
(630,573,o),
(542,588,c),
(643,604,o),
(752,649,o),
(752,756,cs),
(752,845,o),
(677,912,o),
(508,912,cs),
(234,912,o),
(30,736,o),
(30,437,cs),
(30,118,o),
(263,24,o),
(414,21,c),
(375,-6,o),
(337,-54,o),
(337,-111,cs),
(337,-194,o),
(426,-255,o),
(553,-255,cs)
);
}
);
width = 810;
},
{
background = {
shapes = (
{
attr = {
identifier = ID0x7f7b560a46f0;
strokeHeight = 28;
strokeWidth = 30;
};
closed = 1;
nodes = (
(683,-12,o),
(780,36,o),
(780,138,cs),
(780,297,o),
(546,323,o),
(455,323,cs),
(424,323,o),
(411,320,o),
(411,314,cs),
(411,308,o),
(423,305,o),
(449,305,cs),
(523,305,o),
(722,331,o),
(722,453,cs),
(722,571,o),
(535,596,o),
(441,596,cs),
(408,596,o),
(392,593,o),
(392,587,cs),
(392,582,o),
(403,579,o),
(437,579,cs),
(542,579,o),
(752,607,o),
(752,756,cs),
(752,845,o),
(678,912,o),
(507,912,cs),
(234,912,o),
(30,740,o),
(30,427,cs),
(30,121,o),
(224,-12,o),
(511,-12,cs)
);
}
);
};
layerId = "18EF3260-CEF7-4699-AE8F-A1FB16D1B078";
shapes = (
{
attr = {
lineCapEnd = "1";
lineCapStart = "1";
strokeHeight = 28;
strokeWidth = 28;
};
closed = 0;
nodes = (
(319,819,l),
(305,814,o),
(292,808,o),
(279,801,c)
);
},
{
attr = {
lineCapEnd = "1";
lineCapStart = "1";
strokeHeight = 28;
strokeWidth = 28;
};
closed = 0;
nodes = (
(231,769,l),
(191,738,o),
(159,698,o),
(135,650,cs)
);
}
);
width = 810;
},
{
background = {
shapes = (
{
attr = {
identifier = ID0x7f7b560a46f0;
strokeHeight = 28;
strokeWidth = 30;
};
closed = 1;
nodes = (
(683,-12,o),
(780,36,o),
(780,138,cs),
(780,297,o),
(546,323,o),
(455,323,cs),
(424,323,o),
(411,320,o),
(411,314,cs),
(411,308,o),
(423,305,o),
(449,305,cs),
(523,305,o),
(722,331,o),
(722,453,cs),
(722,571,o),
(535,596,o),
(441,596,cs),
(408,596,o),
(392,593,o),
(392,587,cs),
(392,582,o),
(403,579,o),
(437,579,cs),
(542,579,o),
(752,607,o),
(752,756,cs),
(752,845,o),
(678,912,o),
(507,912,cs),
(234,912,o),
(30,740,o),
(30,427,cs),
(30,121,o),
(224,-12,o),
(511,-12,cs)
);
}
);
};
layerId = "F563C7B0-622D-42B3-911E-B48219F56EF3";
shapes = (
{
attr = {
lineCapEnd = "1";
lineCapStart = "1";
strokeHeight = 28;
strokeWidth = 28;
};
closed = 0;
nodes = (
(319,819,l),
(305,814,o),
(292,808,o),
(279,801,c)
);
},
{
attr = {
lineCapEnd = "1";
lineCapStart = "1";
strokeHeight = 28;
strokeWidth = 28;
};
closed = 0;
nodes = (
(231,769,l),
(191,738,o),
(159,698,o),
(135,650,cs)
);
}
);
width = 810;
},
{
background = {
shapes = (
{
attr = {
identifier = ID0x7f7b560a46f0;
strokeHeight = 28;
strokeWidth = 30;
};
closed = 1;
nodes = (
(683,-12,o),
(780,36,o),
(780,138,cs),
(780,297,o),
(546,323,o),
(455,323,cs),
(424,323,o),
(411,320,o),
(411,314,cs),
(411,308,o),
(423,305,o),
(449,305,cs),
(523,305,o),
(722,331,o),
(722,453,cs),
(722,571,o),
(535,596,o),
(441,596,cs),
(408,596,o),
(392,593,o),
(392,587,cs),
(392,582,o),
(403,579,o),
(437,579,cs),
(542,579,o),
(752,607,o),
(752,756,cs),
(752,845,o),
(678,912,o),
(507,912,cs),
(234,912,o),
(30,740,o),
(30,427,cs),
(30,121,o),
(224,-12,o),
(511,-12,cs)
);
}
);
};
layerId = "F41CCFAE-1054-41CD-BE75-8F05F0A4F59E";
shapes = (
{
closed = 1;
nodes = (
(722,-300,o),
(774,-229,o),
(774,-175,cs),
(774,-140,o),
(753,-109,o),
(725,-89,c),
(720,-83,l),
(718,-79,o),
(715,-76,o),
(711,-72,c),
(767,-39,o),
(825,20,o),
(825,103,cs),
(825,158,o),
(800,199,o),
(762,229,c),
(739,259,o),
(706,281,o),
(668,297,c),
(723,322,o),
(767,361,o),
(767,423,cs),
(767,465,o),
(747,496,o),
(716,520,c),
(703,538,o),
(684,553,o),
(662,565,c),
(736,592,o),
(797,641,o),
(797,726,cs),
(797,773,o),
(778,815,o),
(738,845,c),
(701,895,o),
(625,927,o),
(508,927,cs),
(226,927,o),
(15,745,o),
(15,437,cs),
(15,279,o),
(71,175,o),
(146,108,c),
(205,41,o),
(284,3,o),
(357,-13,c),
(336,-41,o),
(322,-74,o),
(322,-111,cs),
(322,-154,o),
(343,-191,o),
(379,-219,c),
(416,-269,o),
(491,-300,o),
(583,-300,cs)
);
},
{
closed = 1;
nodes = (
(431,-241,o),
(352,-187,o),
(352,-111,cs),
(352,-61,o),
(384,-18,o),
(417,7,c),
(421,7,ls),
(481,7,o),
(496,22,o),
(496,37,cs),
(496,49,o),
(486,58,o),
(469,58,cs),
(453,58,o),
(431,50,o),
(409,35,c),
(262,40,o),
(45,131,o),
(45,437,cs),
(45,730,o),
(240,898,o),
(508,898,cs),
(671,898,o),
(737,839,o),
(737,756,cs),
(737,659,o),
(638,617,o),
(543,602,c),
(505,608,o),
(469,610,o),
(441,610,cs),
(396,610,o),
(377,604,o),
(377,587,cs),
(377,572,o),
(391,565,o),
(437,565,cs),
(466,565,o),
(504,567,o),
(543,574,c),
(625,560,o),
(707,526,o),
(707,453,cs),
(707,380,o),
(625,345,o),
(549,329,c),
(515,335,o),
(483,337,o),
(456,337,cs),
(412,337,o),
(396,330,o),
(396,314,cs),
(396,298,o),
(413,291,o),
(449,291,cs),
(473,291,o),
(510,294,o),
(549,301,c),
(654,284,o),
(765,237,o),
(765,133,cs),
(765,46,o),
(689,-12,o),
(636,-33,c),
(629,-32,o),
(622,-31,o),
(616,-31,cs),
(588,-31,o),
(572,-40,o),
(572,-52,cs),
(572,-63,o),
(582,-70,o),
(598,-70,cs),
(608,-70,o),
(622,-67,o),
(637,-62,c),
(677,-71,o),
(714,-105,o),
(714,-145,cs),
(714,-188,o),
(674,-241,o),
(553,-241,cs)
);
}
);
width = 810;
},
{
background = {
shapes = (
{
attr = {
identifier = ID0x7f7b560a46f0;
strokeHeight = 28;
strokeWidth = 30;
};
closed = 1;
nodes = (
(683,-12,o),
(780,36,o),
(780,138,cs),
(780,297,o),
(546,323,o),
(455,323,cs),
(424,323,o),
(411,320,o),
(411,314,cs),
(411,308,o),
(423,305,o),
(449,305,cs),
(523,305,o),
(722,331,o),
(722,453,cs),
(722,571,o),
(535,596,o),
(441,596,cs),
(408,596,o),
(392,593,o),
(392,587,cs),
(392,582,o),
(403,579,o),
(437,579,cs),
(542,579,o),
(752,607,o),
(752,756,cs),
(752,845,o),
(678,912,o),
(507,912,cs),
(234,912,o),
(30,740,o),
(30,427,cs),
(30,121,o),
(224,-12,o),
(511,-12,cs)
);
}
);
};
layerId = "9609D89D-5179-4910-93A4-3439D6828341";
shapes = (
{
closed = 1;
nodes = (
(692,-269,o),
(744,-198,o),
(744,-145,cs),
(744,-102,o),
(712,-65,o),
(673,-45,c),
(731,-14,o),
(795,47,o),
(795,133,cs),
(795,236,o),
(705,291,o),
(609,317,c),
(677,340,o),
(737,381,o),
(737,453,cs),
(737,525,o),
(676,566,o),
(605,587,c),
(690,612,o),
(767,661,o),
(767,756,cs),
(767,853,o),
(685,926,o),
(508,926,cs),
(226,926,o),
(15,744,o),
(15,437,cs),
(15,133,o),
(223,26,o),
(377,9,c),
(347,-21,o),
(322,-63,o),
(322,-111,cs),
(322,-203,o),
(419,-269,o),
(553,-269,cs)
);
},
{
closed = 1;
nodes = (
(431,-241,o),
(352,-187,o),
(352,-111,cs),
(352,-61,o),
(384,-18,o),
(417,7,c),
(421,7,ls),
(481,7,o),
(496,22,o),
(496,37,cs),
(496,49,o),
(486,58,o),
(469,58,cs),
(453,58,o),
(431,50,o),
(409,35,c),
(262,40,o),
(45,131,o),
(45,437,cs),
(45,730,o),
(240,898,o),
(508,898,cs),
(671,898,o),
(737,839,o),
(737,756,cs),
(737,659,o),
(638,617,o),
(543,602,c),
(505,608,o),
(469,610,o),
(441,610,cs),
(396,610,o),
(377,604,o),
(377,587,cs),
(377,572,o),
(391,565,o),
(437,565,cs),
(466,565,o),
(504,567,o),
(543,574,c),
(625,560,o),
(707,526,o),
(707,453,cs),
(707,380,o),
(625,345,o),
(549,329,c),
(515,335,o),
(483,337,o),
(456,337,cs),
(412,337,o),
(396,330,o),
(396,314,cs),
(396,298,o),
(413,291,o),
(449,291,cs),
(473,291,o),
(510,294,o),
(549,301,c),
(654,284,o),
(765,237,o),
(765,133,cs),
(765,46,o),
(689,-12,o),
(636,-33,c),
(629,-32,o),
(622,-31,o),
(616,-31,cs),
(588,-31,o),
(572,-40,o),
(572,-52,cs),
(572,-63,o),
(582,-70,o),
(598,-70,cs),
(608,-70,o),
(622,-67,o),
(637,-62,c),
(677,-71,o),
(714,-105,o),
(714,-145,cs),
(714,-188,o),
(674,-241,o),
(553,-241,cs)
);
}
);
width = 810;
},
{
background = {
shapes = (
{
attr = {
identifier = ID0x7f7b560a46f0;
strokeHeight = 28;
strokeWidth = 30;
};
closed = 1;
nodes = (
(683,-12,o),
(780,36,o),
(780,138,cs),
(780,297,o),
(546,323,o),
(455,323,cs),
(424,323,o),
(411,320,o),
(411,314,cs),
(411,308,o),
(423,305,o),
(449,305,cs),
(523,305,o),
(722,331,o),
(722,453,cs),
(722,571,o),
(535,596,o),
(441,596,cs),
(408,596,o),
(392,593,o),
(392,587,cs),
(392,582,o),
(403,579,o),
(437,579,cs),
(542,579,o),
(752,607,o),
(752,756,cs),
(752,845,o),
(678,912,o),
(507,912,cs),
(234,912,o),
(30,740,o),
(30,427,cs),
(30,121,o),
(224,-12,o),
(511,-12,cs)
);
}
);
};
layerId = m006;
shapes = (
{
closed = 1;
nodes = (
(674,-241,o),
(714,-188,o),
(714,-145,cs),
(714,-105,o),
(677,-71,o),
(637,-62,c),
(622,-67,o),
(608,-70,o),
(598,-70,cs),
(582,-70,o),
(572,-63,o),
(572,-52,cs),
(572,-40,o),
(588,-31,o),
(616,-31,cs),
(622,-31,o),
(629,-32,o),
(636,-33,c),
(689,-12,o),
(765,46,o),
(765,133,cs),
(765,237,o),
(654,284,o),
(549,301,c),
(510,294,o),
(473,291,o),
(449,291,cs),
(413,291,o),
(396,298,o),
(396,314,cs),
(396,330,o),
(412,337,o),
(456,337,cs),
(483,337,o),
(515,335,o),
(549,329,c),
(625,345,o),
(707,380,o),
(707,453,cs),
(707,526,o),
(625,560,o),
(543,574,c),
(504,567,o),
(466,565,o),
(437,565,cs),
(391,565,o),
(377,572,o),
(377,587,cs),
(377,604,o),
(396,610,o),
(441,610,cs),
(469,610,o),
(505,608,o),
(543,602,c),
(638,617,o),
(737,659,o),
(737,756,cs),
(737,839,o),
(671,898,o),
(508,898,cs),
(240,898,o),
(45,730,o),
(45,437,cs),
(45,131,o),
(262,40,o),
(409,35,c),
(431,50,o),
(453,58,o),
(469,58,cs),
(486,58,o),
(496,49,o),
(496,37,cs),
(496,22,o),
(481,7,o),
(421,7,cs),
(417,7,l),
(384,-18,o),
(352,-61,o),
(352,-111,cs),
(352,-187,o),
(431,-241,o),
(553,-241,cs)
);
}
);
width = 810;
},
{
associatedMasterId = m01;
background = {
shapes = (
{
attr = {
identifier = ID0x7f7b560a46f0;
strokeHeight = 28;
strokeWidth = 30;
};
closed = 1;
nodes = (
(683,-12,o),
(780,36,o),
(780,138,cs),
(780,297,o),
(546,323,o),
(455,323,cs),
(424,323,o),
(411,320,o),
(411,314,cs),
(411,308,o),
(423,305,o),
(449,305,cs),
(523,305,o),
(722,331,o),
(722,453,cs),
(722,571,o),
(535,596,o),
(441,596,cs),
(408,596,o),
(392,593,o),
(392,587,cs),
(392,582,o),
(403,579,o),
(437,579,cs),
(542,579,o),
(752,607,o),
(752,756,cs),
(752,845,o),
(678,912,o),
(507,912,cs),
(234,912,o),
(30,740,o),
(30,427,cs),
(30,121,o),
(224,-12,o),
(511,-12,cs)
);
}
);
};
layerId = "D3C9D112-8DAB-4363-98C8-41FB55631679";
name = "16 Jan 24 at 09:31";
shapes = (
{
attr = {
identifier = ID0x7f7b560a46f0;
strokeHeight = 28;
strokeWidth = 30;
};
closed = 1;
nodes = (
(686,-288,o),
(729,-217,o),
(729,-166,cs),
(729,-102,o),
(661,-46,o),
(586,-56,cs),
(554,-60,o),
(563,-71,o),
(601,-59,cs),
(657,-42,o),
(780,25,o),
(780,137,cs),
(780,285,o),
(564,323,o),
(455,323,cs),
(424,323,o),
(411,320,o),
(411,314,cs),
(411,308,o),
(423,305,o),
(449,305,cs),
(523,305,o),
(722,331,o),
(722,453,cs),
(722,571,o),
(535,596,o),
(441,596,cs),
(408,596,o),
(392,593,o),
(392,587,cs),
(392,582,o),
(403,579,o),
(437,579,cs),
(542,579,o),
(752,607,o),
(752,756,cs),
(752,845,o),
(677,912,o),
(508,912,cs),
(234,912,o),
(30,735,o),
(30,439,cs),
(30,112,o),
(279,21,o),
(449,21,cs),
(547,21,o),
(539,51,o),
(497,43,cs),
(443,33,o),
(345,-36,o),
(345,-130,cs),
(345,-216,o),
(426,-288,o),
(557,-288,cs)
);
}
);
width = 810;
},
{
associatedMasterId = m01;
background = {
shapes = (
{
attr = {
identifier = ID0x7f7b560a46f0;
strokeHeight = 28;
strokeWidth = 30;
};
closed = 1;
nodes = (
(683,-12,o),
(780,36,o),
(780,138,cs),
(780,297,o),
(546,323,o),
(455,323,cs),
(424,323,o),
(411,320,o),
(411,314,cs),
(411,308,o),
(423,305,o),
(449,305,cs),
(523,305,o),
(722,331,o),
(722,453,cs),
(722,571,o),
(535,596,o),
(441,596,cs),
(408,596,o),
(392,593,o),
(392,587,cs),
(392,582,o),
(403,579,o),
(437,579,cs),
(542,579,o),
(752,607,o),
(752,756,cs),
(752,845,o),
(678,912,o),
(507,912,cs),
(234,912,o),
(30,740,o),
(30,427,cs),
(30,121,o),
(224,-12,o),
(511,-12,cs)
);
}
);
};
layerId = "EB6F110B-4137-4A2E-8497-3E2015CC52A5";
name = "16 Jan 24 at 09:35";
shapes = (
{
attr = {
identifier = ID0x7f7b560a46f0;
strokeHeight = 28;
strokeWidth = 30;
};
closed = 1;
nodes = (
(682,-258,o),
(729,-192,o),
(729,-145,cs),
(729,-91,o),
(668,-45,o),
(616,-45,cs),
(599,-45,o),
(587,-50,o),
(587,-52,cs),
(587,-54,o),
(591,-56,o),
(598,-56,cs),
(642,-56,o),
(780,12,o),
(780,133,cs),
(780,281,o),
(574,323,o),
(456,323,cs),
(424,323,o),
(411,320,o),
(411,314,cs),
(411,308,o),
(423,305,o),
(449,305,cs),
(523,305,o),
(722,331,o),
(722,453,cs),
(722,571,o),
(535,596,o),
(441,596,cs),
(408,596,o),
(392,593,o),
(392,587,cs),
(392,582,o),
(403,579,o),
(437,579,cs),
(542,579,o),
(752,607,o),
(752,756,cs),
(752,845,o),
(677,912,o),
(508,912,cs),
(234,912,o),
(30,736,o),
(30,437,cs),
(30,113,o),
(271,21,o),
(421,21,cs),
(468,21,o),
(481,30,o),
(481,37,cs),
(481,41,o),
(478,44,o),
(469,44,cs),
(428,44,o),
(337,-24,o),
(337,-111,cs),
(337,-194,o),
(426,-258,o),
(553,-258,cs)
);
}
);
width = 810;
}
);
unicode = (280,281);
},
{
color = 6;
glyphname = Schwa;
kernLeft = Schwa;
kernRight = O;
lastChange = "2024-09-27 09:10:39 +0000";
layers = (
{
layerId = m01;
shapes = (
{
attr = {
strokeHeight = 28;
strokeWidth = 30;
};
closed = 1;
nodes = (
(611,-12,o),
(822,156,o),
(822,452,cs),
(822,743,o),
(619,912,o),
(321,912,cs),
(161,912,o),
(62,863,o),
(62,762,cs),
(62,603,o),
(306,577,o),
(397,577,cs),
(428,577,o),
(441,580,o),
(441,586,cs),
(441,592,o),
(428,595,o),
(407,595,cs),
(289,595,o),
(30,503,o),
(30,271,cs),
(30,92,o),
(184,-12,o),
(372,-12,cs)
);
},
{
attr = {
strokeHeight = 25;
strokeWidth = 27;
};
closed = 1;
nodes = (
(415,330,o),
(402,344,o),
(402,360,cs),
(402,376,o),
(415,390,o),
(432,390,cs),
(449,390,o),
(462,376,o),
(462,360,cs),
(462,344,o),
(449,330,o),
(432,330,cs)
);
}
);
width = 852;
},
{
layerId = "AA01E2DD-0766-4133-B890-CA2A0BF1A57D";
shapes = (
{
closed = 1;
nodes = (
(611,-12,o),
(822,156,o),
(822,452,cs),
(822,743,o),
(619,912,o),
(321,912,cs),
(161,912,o),
(62,863,o),
(62,762,cs),
(62,639,o),
(209,595,o),
(317,582,c),
(191,550,o),
(30,454,o),
(30,271,cs),
(30,92,o),
(184,-12,o),
(372,-12,cs)
);
},
{
closed = 1;
nodes = (
(402,376,o),
(415,390,o),
(432,390,cs),
(449,390,o),
(462,376,o),
(462,360,cs),
(462,344,o),
(449,330,o),
(432,330,cs),
(415,330,o),
(402,344,o),
(402,360,cs)
);
}
);
width = 852;
},
{
layerId = "18EF3260-CEF7-4699-AE8F-A1FB16D1B078";
shapes = (
{
attr = {
lineCapEnd = 1;
lineCapStart = 1;
strokeHeight = 28;
strokeWidth = 28;
};
closed = 0;
nodes = (
(232,847,l),
(182,844,o),
(153,824,o),
(133,804,c)
);
},
{
attr = {
lineCapEnd = "1";
lineCapStart = "1";
strokeHeight = 28;
strokeWidth = 28;
};
closed = 0;
nodes = (
(211,477,l),
(203,472,o),
(196,467,o),
(189,461,c)
);
},
{
attr = {
lineCapEnd = "1";
lineCapStart = "1";
strokeHeight = 28;
strokeWidth = 28;
};
closed = 0;
nodes = (
(157,433,l),
(136,412,o),
(118,387,o),
(106,358,cs)
);
}
);
width = 852;
},
{
layerId = "F563C7B0-622D-42B3-911E-B48219F56EF3";
shapes = (
{
attr = {
lineCapEnd = 1;
lineCapStart = 1;
strokeHeight = 28;
strokeWidth = 28;
};
closed = 0;
nodes = (
(232,847,l),
(182,844,o),
(153,824,o),
(133,804,c)
);
},
{
attr = {
lineCapEnd = "1";
lineCapStart = "1";
strokeHeight = 28;
strokeWidth = 28;
};
closed = 0;
nodes = (
(211,477,l),
(203,472,o),
(196,467,o),
(189,461,c)
);
},
{
attr = {
lineCapEnd = "1";
lineCapStart = "1";
strokeHeight = 28;
strokeWidth = 28;
};
closed = 0;
nodes = (
(157,433,l),
(136,412,o),
(118,387,o),
(106,358,cs)
);
}
);
width = 852;
},
{
layerId = "F41CCFAE-1054-41CD-BE75-8F05F0A4F59E";
shapes = (
{
closed = 1;
nodes = (
(648,-57,o),
(867,117,o),
(867,422,cs),
(867,571,o),
(815,690,o),
(725,771,c),
(634,872,o),
(492,927,o),
(321,927,cs),
(155,927,o),
(47,874,o),
(47,762,cs),
(47,709,o),
(71,669,o),
(108,640,c),
(135,605,o),
(178,581,o),
(224,565,c),
(117,515,o),
(15,421,o),
(15,271,cs),
(15,182,o),
(51,111,o),
(110,60,c),
(175,-16,o),
(282,-57,o),
(402,-57,cs)
);
},
{
closed = 1;
nodes = (
(457,318,o),
(476,337,o),
(476,360,cs),
(476,383,o),
(457,403,o),
(432,403,cs),
(407,403,o),
(389,383,o),
(389,360,cs),
(389,337,o),
(407,318,o),
(432,318,cs)
);
},
{
closed = 1;
nodes = (
(189,2,o),
(45,99,o),
(45,271,cs),
(45,445,o),
(196,536,o),
(317,568,c),
(349,564,o),
(377,563,o),
(397,563,cs),
(440,563,o),
(456,570,o),
(456,586,cs),
(456,602,o),
(438,609,o),
(407,609,cs),
(382,609,o),
(350,605,o),
(316,596,c),
(212,609,o),
(77,650,o),
(77,762,cs),
(77,855,o),
(165,898,o),
(321,898,cs),
(613,898,o),
(807,737,o),
(807,452,cs),
(807,162,o),
(605,2,o),
(372,2,cs)
);
}
);
width = 852;
},
{
layerId = "9609D89D-5179-4910-93A4-3439D6828341";
shapes = (
{
closed = 1;
nodes = (
(619,-26,o),
(837,148,o),
(837,452,cs),
(837,751,o),
(627,926,o),
(321,926,cs),
(155,926,o),
(47,873,o),
(47,762,cs),
(47,650,o),
(156,599,o),
(257,578,c),
(139,533,o),
(15,436,o),
(15,271,cs),
(15,83,o),
(177,-26,o),
(372,-26,cs)
);
},
{
closed = 1;
nodes = (
(457,318,o),
(476,337,o),
(476,360,cs),
(476,383,o),
(457,403,o),
(432,403,cs),
(407,403,o),
(389,383,o),
(389,360,cs),
(389,337,o),
(407,318,o),
(432,318,cs)
);
},
{
closed = 1;
nodes = (
(421,343,o),
(416,349,o),
(416,360,cs),
(416,371,o),
(421,378,o),
(432,378,cs),
(443,378,o),
(449,371,o),
(449,360,cs),
(449,349,o),
(443,343,o),
(432,343,cs)
);
},
{
closed = 1;
nodes = (
(189,2,o),
(45,99,o),
(45,271,cs),
(45,445,o),
(196,536,o),
(317,568,c),
(349,564,o),
(377,563,o),
(397,563,cs),
(440,563,o),
(456,570,o),
(456,586,cs),
(456,602,o),
(438,609,o),
(407,609,cs),
(382,609,o),
(350,605,o),
(316,596,c),
(212,609,o),
(77,650,o),
(77,762,cs),
(77,855,o),
(165,898,o),
(321,898,cs),
(613,898,o),
(807,737,o),
(807,452,cs),
(807,162,o),
(605,2,o),
(372,2,cs)
);
}
);
width = 852;
},
{
layerId = m006;
shapes = (
{
closed = 1;
nodes = (
(605,2,o),
(807,162,o),
(807,452,cs),
(807,737,o),
(613,898,o),
(321,898,cs),
(165,898,o),
(77,855,o),
(77,762,cs),
(77,650,o),
(212,609,o),
(316,596,c),
(350,605,o),
(382,609,o),
(407,609,cs),
(438,609,o),
(456,602,o),
(456,586,cs),
(456,570,o),
(440,563,o),
(397,563,cs),
(377,563,o),
(349,564,o),
(317,568,c),
(196,536,o),
(45,445,o),
(45,271,cs),
(45,99,o),
(189,2,o),
(372,2,cs)
);
},
{
closed = 1;
nodes = (
(407,318,o),
(389,337,o),
(389,360,cs),
(389,383,o),
(407,403,o),
(432,403,cs),
(457,403,o),
(476,383,o),
(476,360,cs),
(476,337,o),
(457,318,o),
(432,318,cs)
);
}
);
width = 852;
}
);
unicode = (399,601);
},
{
color = 6;
glyphname = F;
kernLeft = H;
kernRight = F;
lastChange = "2024-09-27 09:10:39 +0000";
layers = (
{
layerId = m01;
shapes = (
{
attr = {
strokeHeight = 28;
strokeWidth = 30;
};
closed = 1;
nodes = (
(372,-12,o),
(421,80,o),
(418,234,c),
(546,239,o),
(660,288,o),
(660,394,cs),
(660,508,o),
(529,558,o),
(417,558,cs),
(385,558,o),
(368,554,o),
(368,547,cs),
(368,542,o),
(379,538,o),
(415,538,cs),
(534,538,o),
(693,582,o),
(693,720,cs),
(693,832,o),
(588,912,o),
(388,912,cs),
(116,912,o),
(30,764,o),
(30,441,cs),
(30,187,o),
(83,-12,o),
(255,-12,cs)
);
}
);
width = 720;
},
{
layerId = "AA01E2DD-0766-4133-B890-CA2A0BF1A57D";
shapes = (
{
closed = 1;
nodes = (
(372,-12,o),
(421,80,o),
(418,234,c),
(546,239,o),
(660,288,o),
(660,394,cs),
(660,477,o),
(590,527,o),
(508,547,c),
(603,566,o),
(693,616,o),
(693,720,cs),
(693,832,o),
(588,912,o),
(388,912,cs),
(116,912,o),
(30,764,o),
(30,441,cs),
(30,187,o),
(83,-12,o),
(255,-12,cs)
);
}
);
width = 720;
},
{
layerId = "18EF3260-CEF7-4699-AE8F-A1FB16D1B078";
shapes = (
{
attr = {
lineCapEnd = "1";
lineCapStart = "1";
strokeHeight = 28;
strokeWidth = 28;
};
closed = 0;
nodes = (
(224,823,l),
(218,821,o),
(211,817,o),
(206,813,c)
);
},
{
attr = {
lineCapEnd = "1";
lineCapStart = "1";
strokeHeight = 28;
strokeWidth = 28;
};
closed = 0;
nodes = (
(168,783,l),
(149,764,o),
(134,740,o),
(124,710,cs)
);
}
);
width = 720;
},
{
layerId = "F563C7B0-622D-42B3-911E-B48219F56EF3";
shapes = (
{
attr = {
lineCapEnd = "1";
lineCapStart = "1";
strokeHeight = 28;
strokeWidth = 28;
};
closed = 0;
nodes = (
(224,823,l),
(218,821,o),
(211,817,o),
(206,813,c)
);
},
{
attr = {
lineCapEnd = "1";
lineCapStart = "1";
strokeHeight = 28;
strokeWidth = 28;
};
closed = 0;
nodes = (
(168,783,l),
(149,764,o),
(134,740,o),
(124,710,cs)
);
}
);
width = 720;
},
{
layerId = "F41CCFAE-1054-41CD-BE75-8F05F0A4F59E";
shapes = (
{
closed = 1;
nodes = (
(409,-57,o),
(463,38,o),
(463,190,c),
(591,198,o),
(705,251,o),
(705,364,cs),
(705,416,o),
(681,455,o),
(645,484,c),
(634,498,o),
(621,510,o),
(605,521,c),
(679,549,o),
(738,601,o),
(738,690,cs),
(738,745,o),
(715,792,o),
(671,828,c),
(622,889,o),
(526,927,o),
(388,927,cs),
(105,927,o),
(15,770,o),
(15,441,cs),
(15,250,o),
(45,85,o),
(136,13,c),
(172,-31,o),
(221,-57,o),
(285,-57,cs)
);
},
{
closed = 1;
nodes = (
(95,2,o),
(45,189,o),
(45,441,cs),
(45,760,o),
(125,898,o),
(388,898,cs),
(583,898,o),
(678,825,o),
(678,720,cs),
(678,626,o),
(598,579,o),
(509,561,c),
(479,568,o),
(447,572,o),
(417,572,cs),
(373,572,o),
(353,564,o),
(353,547,cs),
(353,532,o),
(367,524,o),
(415,524,cs),
(444,524,o),
(477,527,o),
(509,533,c),
(584,514,o),
(645,469,o),
(645,394,cs),
(645,293,o),
(534,249,o),
(403,248,c),
(408,88,o),
(366,2,o),
(255,2,cs)
);
}
);
width = 720;
},
{
layerId = "9609D89D-5179-4910-93A4-3439D6828341";
shapes = (
{
closed = 1;
nodes = (
(379,-26,o),
(433,69,o),
(433,221,c),
(561,229,o),
(675,282,o),
(675,394,cs),
(675,469,o),
(624,518,o),
(558,545,c),
(639,572,o),
(708,625,o),
(708,720,cs),
(708,841,o),
(595,926,o),
(388,926,cs),
(105,926,o),
(15,770,o),
(15,441,cs),
(15,182,o),
(70,-26,o),
(255,-26,cs)
);
},
{
closed = 1;
nodes = (
(45,760,o),
(125,898,o),
(388,898,cs),
(583,898,o),
(678,825,o),
(678,720,cs),
(678,626,o),
(598,579,o),
(509,561,c),
(479,568,o),
(447,572,o),
(417,572,cs),
(373,572,o),
(353,564,o),
(353,547,cs),
(353,532,o),
(367,524,o),
(415,524,cs),
(444,524,o),
(477,527,o),
(509,533,c),
(584,514,o),
(645,469,o),
(645,394,cs),
(645,293,o),
(534,249,o),
(403,248,c),
(408,88,o),
(366,2,o),
(255,2,cs),
(95,2,o),
(45,189,o),
(45,441,cs)
);
}
);
width = 720;
},
{
layerId = m006;
shapes = (
{
closed = 1;
nodes = (
(366,2,o),
(408,88,o),
(403,248,c),
(534,249,o),
(645,293,o),
(645,394,cs),
(645,469,o),
(584,514,o),
(509,533,c),
(477,527,o),
(444,524,o),
(415,524,cs),
(367,524,o),
(353,532,o),
(353,547,cs),
(353,564,o),
(373,572,o),
(417,572,cs),
(447,572,o),
(479,568,o),
(509,561,c),
(598,579,o),
(678,626,o),
(678,720,cs),
(678,825,o),
(583,898,o),
(388,898,cs),
(125,898,o),
(45,760,o),
(45,441,cs),
(45,189,o),
(95,2,o),
(255,2,cs)
);
}
);
width = 720;
}
);
unicode = (70,102);
},
{
color = 6;
glyphname = G;
kernLeft = G;
kernRight = G;
lastChange = "2024-09-27 09:10:39 +0000";
layers = (
{
anchors = (
{
name = bottom;
pos = (498,0);
},
{
name = top;
pos = (522,900);
}
);
layerId = m01;
name = Regular;
shapes = (
{
attr = {
strokeHeight = 28;
strokeWidth = 30;
};
closed = 1;
nodes = (
(764,-16,o),
(930,109,o),
(930,305,cs),
(930,470,o),
(810,561,o),
(687,561,cs),
(585,561,o),
(494,498,o),
(494,403,cs),
(494,326,o),
(551,287,o),
(603,287,cs),
(620,287,o),
(626,291,o),
(626,300,cs),
(626,307,o),
(622,312,o),
(613,312,cs),
(600,312,o),
(580,303,o),
(568,298,cs),
(549,290,o),
(524,280,o),
(495,280,cs),
(432,280,o),
(396,328,o),
(396,385,cs),
(396,496,o),
(531,565,o),
(594,593,cs),
(692,636,o),
(816,674,o),
(816,773,cs),
(816,848,o),
(745,916,o),
(581,916,cs),
(292,916,o),
(30,705,o),
(30,411,cs),
(30,153,o),
(233,-16,o),
(518,-16,cs)
);
}
);
width = 960;
},
{
anchors = (
{
name = bottom;
pos = (498,0);
},
{
name = top;
pos = (522,900);
}
);
layerId = "AA01E2DD-0766-4133-B890-CA2A0BF1A57D";
name = Regular;
shapes = (
{
closed = 1;
nodes = (
(764,-16,o),
(930,109,o),
(930,305,cs),
(930,470,o),
(810,561,o),
(687,561,cs),
(585,561,o),
(494,498,o),
(494,403,cs),
(494,347,o),
(525,311,o),
(562,295,c),
(543,288,o),
(521,280,o),
(495,280,cs),
(432,280,o),
(396,328,o),
(396,385,cs),
(396,496,o),
(531,565,o),
(594,593,cs),
(692,636,o),
(816,674,o),
(816,773,cs),
(816,848,o),
(745,916,o),
(581,916,cs),
(292,916,o),
(30,705,o),
(30,411,cs),
(30,153,o),
(233,-16,o),
(518,-16,cs)
);
}
);
width = 960;
},
{
anchors = (
{
name = bottom;
pos = (498,0);
},
{
name = top;
pos = (522,900);
}
);
layerId = "18EF3260-CEF7-4699-AE8F-A1FB16D1B078";
name = Regular;
shapes = (
{
attr = {
lineCapEnd = "1";
lineCapStart = "1";
strokeHeight = 28;
strokeWidth = 28;
};
closed = 0;
nodes = (
(268,759,l),
(225,728,o),
(188,691,o),
(159,647,c)
);
},
{
attr = {
lineCapEnd = "1";
lineCapStart = "1";
strokeHeight = 28;
strokeWidth = 28;
};
closed = 0;
nodes = (
(351,808,l),
(339,802,o),
(327,796,o),
(315,789,cs)
);
},
{
attr = {
lineCapEnd = "1";
lineCapStart = "1";
strokeWidth = 28;
};
closed = 0;
nodes = (
(616,490,l),
(594,482,o),
(578,469,o),
(567,453,cs)
);
}
);
width = 960;
},
{
anchors = (
{
name = bottom;
pos = (498,0);
},
{
name = top;
pos = (522,900);
}
);
layerId = "F563C7B0-622D-42B3-911E-B48219F56EF3";
name = Regular;
shapes = (
{
attr = {
lineCapEnd = "1";
lineCapStart = "1";
strokeHeight = 28;
strokeWidth = 28;
};
closed = 0;
nodes = (
(268,759,l),
(225,728,o),
(188,691,o),
(159,647,c)
);
},
{
attr = {
lineCapEnd = "1";
lineCapStart = "1";
strokeHeight = 28;
strokeWidth = 28;
};
closed = 0;
nodes = (
(351,808,l),
(339,802,o),
(327,796,o),
(315,789,cs)
);
},
{
attr = {
lineCapEnd = "1";
lineCapStart = "1";
strokeWidth = 28;
};
closed = 0;
nodes = (
(616,490,l),
(594,482,o),
(578,469,o),
(567,453,cs)
);
}
);
width = 960;
},
{
anchors = (
{
name = bottom;
pos = (498,0);
},
{
name = top;
pos = (522,900);
}
);
layerId = "F41CCFAE-1054-41CD-BE75-8F05F0A4F59E";
name = Regular;
shapes = (
{
closed = 1;
nodes = (
(801,-61,o),
(975,70,o),
(975,275,cs),
(975,369,o),
(938,440,o),
(883,486,c),
(835,543,o),
(765,574,o),
(693,576,c),
(776,612,o),
(861,656,o),
(861,743,cs),
(861,783,o),
(843,821,o),
(806,850,c),
(770,897,o),
(697,931,o),
(581,931,cs),
(285,931,o),
(15,714,o),
(15,411,cs),
(15,281,o),
(65,173,o),
(150,96,c),
(240,-4,o),
(380,-61,o),
(548,-61,cs)
);
},
{
closed = 1;
nodes = (
(478,295,o),
(464,298,o),
(452,305,c),
(445,319,o),
(441,336,o),
(441,355,cs),
(441,396,o),
(461,430,o),
(489,459,c),
(487,453,o),
(485,447,o),
(484,441,cs),
(481,429,o),
(479,416,o),
(479,403,cs),
(479,381,o),
(483,362,o),
(491,345,cs),
(499,326,o),
(512,311,o),
(526,299,c),
(516,297,o),
(506,295,o),
(495,295,cs)
);
},
{
closed = 1;
nodes = (
(239,-2,o),
(45,159,o),
(45,411,cs),
(45,699,o),
(298,902,o),
(581,902,cs),
(739,902,o),
(801,842,o),
(801,773,cs),
(801,684,o),
(686,649,o),
(588,606,cs),
(524,577,o),
(381,505,o),
(381,385,cs),
(381,322,o),
(422,266,o),
(495,266,cs),
(521,266,o),
(544,273,o),
(562,280,c),
(575,275,o),
(589,273,o),
(603,273,cs),
(631,273,o),
(641,285,o),
(641,300,cs),
(641,315,o),
(630,326,o),
(613,326,cs),
(597,326,o),
(574,316,o),
(562,311,c),
(562,311,o),
(561,311,o),
(561,310,c),
(531,324,o),
(509,355,o),
(509,403,cs),
(509,491,o),
(590,547,o),
(687,547,cs),
(805,547,o),
(915,463,o),
(915,305,cs),
(915,116,o),
(759,-2,o),
(518,-2,cs)
);
}
);
width = 960;
},
{
anchors = (
{
name = bottom;
pos = (498,0);
},
{
name = top;
pos = (522,900);
}
);
layerId = "9609D89D-5179-4910-93A4-3439D6828341";
name = Regular;
shapes = (
{
closed = 1;
nodes = (
(771,-30,o),
(945,100,o),
(945,305,cs),
(945,479,o),
(817,575,o),
(687,575,cs),
(578,575,o),
(479,507,o),
(479,403,cs),
(479,355,o),
(499,320,o),
(528,298,c),
(517,296,o),
(507,294,o),
(495,294,cs),
(440,294,o),
(411,332,o),
(411,385,cs),
(411,488,o),
(538,553,o),
(600,580,cs),
(698,623,o),
(831,664,o),
(831,773,cs),
(831,856,o),
(754,930,o),
(581,930,cs),
(284,930,o),
(15,713,o),
(15,411,cs),
(15,145,o),
(225,-30,o),
(518,-30,cs)
);
},
{
closed = 1;
nodes = (
(239,-2,o),
(45,159,o),
(45,411,cs),
(45,699,o),
(298,902,o),
(581,902,cs),
(739,902,o),
(801,842,o),
(801,773,cs),
(801,684,o),
(686,649,o),
(588,606,cs),
(524,577,o),
(381,505,o),
(381,385,cs),
(381,322,o),
(422,266,o),
(495,266,cs),
(521,266,o),
(544,273,o),
(562,280,c),
(575,275,o),
(589,273,o),
(603,273,cs),
(631,273,o),
(641,285,o),
(641,300,cs),
(641,315,o),
(630,326,o),
(613,326,cs),
(597,326,o),
(574,316,o),
(562,311,c),
(562,311,o),
(561,311,o),
(561,310,c),
(531,324,o),
(509,355,o),
(509,403,cs),
(509,491,o),
(590,547,o),
(687,547,cs),
(805,547,o),
(915,463,o),
(915,305,cs),
(915,116,o),
(759,-2,o),
(518,-2,cs)
);
}
);
width = 960;
},
{
anchors = (
{
name = bottom;
pos = (498,0);
},
{
name = top;
pos = (522,900);
}
);
layerId = m006;
name = Regular;
shapes = (
{
closed = 1;
nodes = (
(759,-2,o),
(915,116,o),
(915,305,cs),
(915,463,o),
(805,547,o),
(687,547,cs),
(590,547,o),
(509,491,o),
(509,403,cs),
(509,355,o),
(531,324,o),
(561,310,c),
(561,311,o),
(562,311,o),
(562,311,c),
(574,316,o),
(597,326,o),
(613,326,cs),
(630,326,o),
(641,315,o),
(641,300,cs),
(641,285,o),
(631,273,o),
(603,273,cs),
(589,273,o),
(575,275,o),
(562,280,c),
(544,273,o),
(521,266,o),
(495,266,cs),
(422,266,o),
(381,322,o),
(381,385,cs),
(381,505,o),
(524,577,o),
(588,606,cs),
(686,649,o),
(801,684,o),
(801,773,cs),
(801,842,o),
(739,902,o),
(581,902,cs),
(298,902,o),
(45,699,o),
(45,411,cs),
(45,159,o),
(239,-2,o),
(518,-2,cs)
);
}
);
width = 960;
}
);
unicode = (71,103);
},
{
color = 6;
glyphname = H;
kernLeft = H;
kernRight = H;
lastChange = "2024-09-27 09:10:39 +0000";
layers = (
{
anchors = (
{
name = bottom;
pos = (480,0);
},
{
name = center;
pos = (480,450);
},
{
name = top;
pos = (480,900);
},
{
name = topleft;
pos = (110,900);
}
);
layerId = m01;
name = Regular;
shapes = (
{
attr = {
strokeHeight = 28;
strokeWidth = 30;
};
closed = 1;
nodes = (
(468,-5,o),
(511,245,o),
(511,303,cs),
(511,333,o),
(500,355,o),
(480,355,cs),
(457,355,o),
(448,326,o),
(448,303,cs),
(448,249,o),
(497,-15,o),
(689,-15,cs),
(847,-15,o),
(930,162,o),
(930,445,cs),
(930,721,o),
(851,899,o),
(692,899,cs),
(503,899,o),
(456,648,o),
(456,599,cs),
(456,576,o),
(466,549,o),
(488,549,cs),
(508,549,o),
(520,571,o),
(520,595,cs),
(520,643,o),
(471,878,o),
(280,878,cs),
(114,878,o),
(30,701,o),
(30,428,cs),
(30,163,o),
(109,-5,o),
(271,-5,cs)
);
}
);
width = 960;
},
{
anchors = (
{
name = bottom;
pos = (480,0);
},
{
name = center;
pos = (480,450);
},
{
name = top;
pos = (480,900);
},
{
name = topleft;
pos = (110,900);
}
);
layerId = "AA01E2DD-0766-4133-B890-CA2A0BF1A57D";
name = Regular;
shapes = (
{
closed = 1;
nodes = (
(385,-5,o),
(448,79,o),
(480,161,c),
(513,75,o),
(577,-15,o),
(689,-15,cs),
(847,-15,o),
(930,162,o),
(930,445,cs),
(930,721,o),
(851,899,o),
(692,899,cs),
(579,899,o),
(517,810,o),
(485,727,c),
(451,802,o),
(389,878,o),
(280,878,cs),
(114,878,o),
(30,701,o),
(30,428,cs),
(30,163,o),
(109,-5,o),
(271,-5,cs)
);
}
);
width = 960;
},
{
anchors = (
{
name = bottom;
pos = (480,0);
},
{
name = center;
pos = (480,450);
},
{
name = top;
pos = (480,900);
},
{
name = topleft;
pos = (110,900);
}
);
layerId = "18EF3260-CEF7-4699-AE8F-A1FB16D1B078";
name = Regular;
shapes = (
{
attr = {
lineCapEnd = "1";
lineCapStart = "1";
strokeWidth = 28;
};
closed = 0;
nodes = (
(217,805,l),
(214,804,o),
(205,799,o),
(202,797,c)
);
},
{
attr = {
lineCapEnd = "1";
lineCapStart = "1";
strokeWidth = 28;
};
closed = 0;
nodes = (
(169,769,l),
(151,748,o),
(136,722,o),
(124,689,cs)
);
},
{
attr = {
lineCapEnd = "1";
lineCapStart = "1";
strokeWidth = 28;
};
closed = 0;
nodes = (
(621,818,l),
(598,804,o),
(581,782,o),
(566,759,c)
);
}
);
width = 960;
},
{
anchors = (
{
name = bottom;
pos = (480,0);
},
{
name = center;
pos = (480,450);
},
{
name = top;
pos = (480,900);
},
{
name = topleft;
pos = (110,900);
}
);
layerId = "F563C7B0-622D-42B3-911E-B48219F56EF3";
name = Regular;
shapes = (
{
attr = {
lineCapEnd = "1";
lineCapStart = "1";
strokeWidth = 28;
};
closed = 0;
nodes = (
(217,805,l),
(214,804,o),
(205,799,o),
(202,797,c)
);
},
{
attr = {
lineCapEnd = "1";
lineCapStart = "1";
strokeWidth = 28;
};
closed = 0;
nodes = (
(169,769,l),
(151,748,o),
(136,722,o),
(124,689,cs)
);
},
{
attr = {
lineCapEnd = "1";
lineCapStart = "1";
strokeWidth = 28;
};
closed = 0;
nodes = (
(621,818,l),
(598,804,o),
(581,782,o),
(566,759,c)
);
}
);
width = 960;
},
{
anchors = (
{
name = bottom;
pos = (480,0);
},
{
name = center;
pos = (480,450);
},
{
name = top;
pos = (480,900);
},
{
name = topleft;
pos = (110,900);
}
);
layerId = "F41CCFAE-1054-41CD-BE75-8F05F0A4F59E";
name = Regular;
shapes = (
{
closed = 1;
nodes = (
(889,-60,o),
(975,127,o),
(975,415,cs),
(975,616,o),
(933,770,o),
(846,841,c),
(807,888,o),
(756,914,o),
(692,914,cs),
(590,914,o),
(527,847,o),
(490,774,c),
(490,773,o),
(489,773,o),
(489,772,c),
(477,787,o),
(464,801,o),
(450,813,c),
(411,859,o),
(356,893,o),
(280,893,cs),
(203,893,o),
(143,858,o),
(100,795,cs),
(43,714,o),
(15,586,o),
(15,428,cs),
(15,299,o),
(34,191,o),
(72,114,cs),
(91,77,o),
(113,47,o),
(140,25,c),
(180,-23,o),
(234,-50,o),
(301,-50,cs),
(403,-50,o),
(465,11,o),
(503,81,c),
(519,58,o),
(537,36,o),
(558,18,c),
(596,-27,o),
(649,-60,o),
(719,-60,cs)
);
},
{
closed = 1;
nodes = (
(468,249,o),
(463,286,o),
(463,303,cs),
(463,324,o),
(468,341,o),
(480,341,cs),
(490,341,o),
(496,330,o),
(496,303,cs),
(496,285,o),
(492,248,o),
(480,206,c)
);
},
{
closed = 1;
nodes = (
(587,-1,o),
(528,81,o),
(496,161,c),
(519,221,o),
(526,278,o),
(526,303,cs),
(526,343,o),
(508,369,o),
(480,369,cs),
(449,369,o),
(433,336,o),
(433,303,cs),
(433,280,o),
(441,222,o),
(464,161,c),
(433,85,o),
(375,9,o),
(271,9,cs),
(119,9,o),
(45,166,o),
(45,428,cs),
(45,698,o),
(124,864,o),
(280,864,cs),
(379,864,o),
(437,796,o),
(469,727,c),
(448,671,o),
(441,619,o),
(441,599,cs),
(441,566,o),
(458,535,o),
(488,535,cs),
(515,535,o),
(535,561,o),
(535,595,cs),
(535,616,o),
(526,671,o),
(501,728,c),
(532,805,o),
(590,885,o),
(692,885,cs),
(841,885,o),
(915,718,o),
(915,445,cs),
(915,165,o),
(837,-1,o),
(689,-1,cs)
);
},
{
closed = 1;
nodes = (
(477,563,o),
(471,578,o),
(471,599,cs),
(471,614,o),
(475,647,o),
(486,685,c),
(500,646,o),
(505,611,o),
(505,595,cs),
(505,574,o),
(499,563,o),
(488,563,cs)
);
}
);
width = 960;
},
{
anchors = (
{
name = bottom;
pos = (480,0);
},
{
name = center;
pos = (480,450);
},
{
name = top;
pos = (480,900);
},
{
name = topleft;
pos = (110,900);
}
);
layerId = "9609D89D-5179-4910-93A4-3439D6828341";
name = Regular;
shapes = (
{
closed = 1;
nodes = (
(859,-29,o),
(945,157,o),
(945,445,cs),
(945,726,o),
(863,913,o),
(692,913,cs),
(585,913,o),
(521,839,o),
(484,762,c),
(446,830,o),
(382,892,o),
(280,892,cs),
(102,892,o),
(15,706,o),
(15,428,cs),
(15,158,o),
(97,-19,o),
(271,-19,cs),
(378,-19,o),
(443,49,o),
(480,124,c),
(518,45,o),
(583,-29,o),
(689,-29,cs)
);
},
{
closed = 1;
nodes = (
(468,249,o),
(463,286,o),
(463,303,cs),
(463,324,o),
(468,341,o),
(480,341,cs),
(490,341,o),
(496,330,o),
(496,303,cs),
(496,285,o),
(492,248,o),
(480,206,c)
);
},
{
closed = 1;
nodes = (
(587,-1,o),
(528,81,o),
(496,161,c),
(519,221,o),
(526,278,o),
(526,303,cs),
(526,343,o),
(508,369,o),
(480,369,cs),
(449,369,o),
(433,336,o),
(433,303,cs),
(433,280,o),
(441,222,o),
(464,161,c),
(433,85,o),
(375,9,o),
(271,9,cs),
(119,9,o),
(45,166,o),
(45,428,cs),
(45,698,o),
(124,864,o),
(280,864,cs),
(379,864,o),
(437,796,o),
(469,727,c),
(448,671,o),
(441,619,o),
(441,599,cs),
(441,566,o),
(458,535,o),
(488,535,cs),
(515,535,o),
(535,561,o),
(535,595,cs),
(535,616,o),
(526,671,o),
(501,728,c),
(532,805,o),
(590,885,o),
(692,885,cs),
(841,885,o),
(915,718,o),
(915,445,cs),
(915,165,o),
(837,-1,o),
(689,-1,cs)
);
},
{
closed = 1;
nodes = (
(477,563,o),
(471,578,o),
(471,599,cs),
(471,614,o),
(475,647,o),
(486,685,c),
(500,646,o),
(505,611,o),
(505,595,cs),
(505,574,o),
(499,563,o),
(488,563,cs)
);
}
);
width = 960;
},
{
anchors = (
{
name = bottom;
pos = (480,0);
},
{
name = center;
pos = (480,450);
},
{
name = top;
pos = (480,900);
},
{
name = topleft;
pos = (110,900);
}
);
layerId = m006;
name = Regular;
shapes = (
{
closed = 1;
nodes = (
(837,-1,o),
(915,165,o),
(915,445,cs),
(915,718,o),
(841,885,o),
(692,885,cs),
(590,885,o),
(532,805,o),
(501,728,c),
(526,671,o),
(535,616,o),
(535,595,cs),
(535,561,o),
(515,535,o),
(488,535,cs),
(458,535,o),
(441,566,o),
(441,599,cs),
(441,619,o),
(448,671,o),
(469,727,c),
(437,796,o),
(379,864,o),
(280,864,cs),
(124,864,o),
(45,698,o),
(45,428,cs),
(45,166,o),
(119,9,o),
(271,9,cs),
(375,9,o),
(433,85,o),
(464,161,c),
(441,222,o),
(433,280,o),
(433,303,cs),
(433,336,o),
(449,369,o),
(480,369,cs),
(508,369,o),
(526,343,o),
(526,303,cs),
(526,278,o),
(519,221,o),
(496,161,c),
(528,81,o),
(587,-1,o),
(689,-1,cs)
);
},
{
closed = 1;
nodes = (
(492,248,o),
(496,285,o),
(496,303,cs),
(496,330,o),
(490,341,o),
(480,341,cs),
(468,341,o),
(463,324,o),
(463,303,cs),
(463,286,o),
(468,249,o),
(480,206,c)
);
},
{
closed = 1;
nodes = (
(499,563,o),
(505,574,o),
(505,595,cs),
(505,611,o),
(500,646,o),
(486,685,c),
(475,647,o),
(471,614,o),
(471,599,cs),
(471,578,o),
(477,563,o),
(488,563,cs)
);
}
);
width = 960;
}
);
unicode = (72,104);
},
{
color = 6;
glyphname = Hbar;
kernLeft = Hbar;
kernRight = Hbar;
lastChange = "2024-09-27 09:10:39 +0000";
layers = (
{
layerId = m01;
name = Regular;
shapes = (
{
attr = {
strokeHeight = 28;
strokeWidth = 30;
};
closed = 1;
nodes = (
(893,-16,o),
(975,163,o),
(975,443,cs),
(975,519,o),
(969,592,o),
(960,643,c),
(1000,654,o),
(1031,672,o),
(1031,702,cs),
(1031,737,o),
(988,756,o),
(923,760,c),
(879,849,o),
(817,898,o),
(737,898,cs),
(639,898,o),
(589,823,o),
(561,762,c),
(498,762,l),
(469,816,o),
(417,877,o),
(325,877,cs),
(250,877,o),
(187,836,o),
(142,761,c),
(65,758,o),
(19,739,o),
(19,702,cs),
(19,671,o),
(53,653,o),
(95,642,c),
(83,587,o),
(75,506,o),
(75,423,cs),
(75,161,o),
(155,-6,o),
(317,-6,cs),
(513,-6,o),
(563,239,o),
(563,298,cs),
(563,328,o),
(550,350,o),
(527,350,cs),
(502,350,o),
(491,323,o),
(491,297,cs),
(491,241,o),
(543,-16,o),
(734,-16,cs)
);
},
{
attr = {
strokeHeight = 28;
strokeWidth = 30;
};
closed = 1;
nodes = (
(507,521,o),
(494,555,o),
(494,592,cs),
(494,602,o),
(495,616,o),
(497,630,c),
(567,630,l),
(570,614,o),
(572,599,o),
(572,585,cs),
(572,549,o),
(556,521,o),
(533,521,cs)
);
}
);
width = 1050;
},
{
layerId = "AA01E2DD-0766-4133-B890-CA2A0BF1A57D";
name = Regular;
shapes = (
{
closed = 1;
nodes = (
(893,-16,o),
(975,163,o),
(975,443,cs),
(975,519,o),
(969,592,o),
(960,643,c),
(1000,654,o),
(1031,672,o),
(1031,702,cs),
(1031,737,o),
(988,756,o),
(923,760,c),
(879,849,o),
(817,898,o),
(737,898,cs),
(639,898,o),
(589,823,o),
(561,762,c),
(498,762,l),
(469,816,o),
(417,877,o),
(325,877,cs),
(250,877,o),
(187,836,o),
(142,761,c),
(65,758,o),
(19,739,o),
(19,702,cs),
(19,671,o),
(53,653,o),
(95,642,c),
(83,587,o),
(75,506,o),
(75,423,cs),
(75,161,o),
(155,-6,o),
(317,-6,cs),
(427,-6,o),
(492,72,o),
(526,150,c),
(561,68,o),
(625,-16,o),
(734,-16,cs)
);
},
{
closed = 1;
nodes = (
(494,602,o),
(495,616,o),
(497,630,c),
(567,630,l),
(570,614,o),
(572,599,o),
(572,585,cs),
(572,549,o),
(556,521,o),
(533,521,cs),
(507,521,o),
(494,555,o),
(494,592,cs)
);
}
);
width = 1050;
},
{
layerId = "18EF3260-CEF7-4699-AE8F-A1FB16D1B078";
name = Regular;
shapes = (
{
attr = {
lineCapEnd = "1";
lineCapStart = "1";
strokeHeight = 28;
strokeWidth = 28;
};
closed = 0;
nodes = (
(278,810,ls),
(246,799,o),
(220,774,o),
(194,730,cs)
);
},
{
attr = {
lineCapEnd = "1";
lineCapStart = "1";
strokeHeight = 28;
strokeWidth = 28;
};
closed = 0;
nodes = (
(695,831,ls),
(663,818,o),
(642,790,o),
(624,756,cs)
);
}
);
width = 1050;
},
{
layerId = "F563C7B0-622D-42B3-911E-B48219F56EF3";
name = Regular;
shapes = (
{
attr = {
lineCapEnd = "1";
lineCapStart = "1";
strokeHeight = 28;
strokeWidth = 28;
};
closed = 0;
nodes = (
(278,810,ls),
(246,799,o),
(220,774,o),
(194,730,cs)
);
},
{
attr = {
lineCapEnd = "1";
lineCapStart = "1";
strokeHeight = 28;
strokeWidth = 28;
};
closed = 0;
nodes = (
(695,831,ls),
(663,818,o),
(642,790,o),
(624,756,cs)
);
}
);
width = 1050;
},
{
layerId = "F41CCFAE-1054-41CD-BE75-8F05F0A4F59E";
name = Regular;
shapes = (
{
closed = 1;
nodes = (
(935,-61,o),
(1020,128,o),
(1020,413,cs),
(1020,483,o),
(1015,552,o),
(1007,602,c),
(1045,615,o),
(1076,636,o),
(1076,672,cs),
(1076,695,o),
(1063,712,o),
(1041,724,c),
(1039,728,o),
(1037,732,o),
(1034,735,cs),
(1018,756,o),
(986,768,o),
(946,773,c),
(930,799,o),
(911,821,o),
(891,838,c),
(850,886,o),
(798,913,o),
(737,913,cs),
(635,913,o),
(581,838,o),
(551,777,c),
(517,777,l),
(506,792,o),
(493,806,o),
(478,818,c),
(445,858,o),
(396,892,o),
(325,892,cs),
(247,892,o),
(180,850,o),
(133,776,c),
(56,771,o),
(4,749,o),
(4,702,cs),
(4,678,o),
(19,660,o),
(40,648,c),
(46,634,o),
(59,623,o),
(75,615,c),
(66,562,o),
(60,493,o),
(60,423,cs),
(60,315,o),
(74,222,o),
(101,150,cs),
(121,96,o),
(149,54,o),
(184,25,c),
(225,-24,o),
(279,-51,o),
(347,-51,cs),
(446,-51,o),
(510,7,o),
(550,75,c),
(564,54,o),
(581,34,o),
(601,18,c),
(639,-28,o),
(692,-61,o),
(764,-61,cs)
);
},
{
closed = 1;
nodes = (
(512,237,o),
(506,278,o),
(506,297,cs),
(506,320,o),
(512,336,o),
(527,336,cs),
(541,336,o),
(548,324,o),
(548,298,cs),
(548,278,o),
(542,236,o),
(527,191,c)
);
},
{
closed = 1;
nodes = (
(635,-2,o),
(575,73,o),
(542,150,c),
(569,211,o),
(578,272,o),
(578,298,cs),
(578,334,o),
(561,364,o),
(527,364,cs),
(491,364,o),
(476,328,o),
(476,297,cs),
(476,273,o),
(485,212,o),
(511,150,c),
(477,78,o),
(417,8,o),
(317,8,cs),
(165,8,o),
(90,164,o),
(90,423,cs),
(90,512,o),
(99,598,o),
(113,652,c),
(65,663,o),
(34,677,o),
(34,702,cs),
(34,731,o),
(71,745,o),
(151,747,c),
(195,824,o),
(253,863,o),
(325,863,cs),
(414,863,o),
(461,803,o),
(489,748,c),
(571,748,l),
(598,810,o),
(643,884,o),
(737,884,cs),
(814,884,o),
(870,838,o),
(913,746,c),
(981,744,o),
(1016,729,o),
(1016,702,cs),
(1016,677,o),
(989,664,o),
(943,653,c),
(953,603,o),
(960,525,o),
(960,443,cs),
(960,166,o),
(883,-2,o),
(734,-2,cs)
);
},
{
closed = 1;
nodes = (
(567,507,o),
(587,544,o),
(587,585,cs),
(587,603,o),
(584,624,o),
(579,644,c),
(484,644,l),
(481,626,o),
(479,605,o),
(479,592,cs),
(479,550,o),
(495,507,o),
(533,507,cs)
);
},
{
closed = 1;
nodes = (
(540,545,o),
(539,553,o),
(539,562,cs),
(539,568,o),
(539,576,o),
(540,585,c),
(557,585,l),
(557,572,o),
(555,562,o),
(553,554,cs),
(550,546,o),
(546,541,o),
(541,538,c)
);
}
);
width = 1050;
},
{
layerId = "9609D89D-5179-4910-93A4-3439D6828341";
name = Regular;
shapes = (
{
closed = 1;
nodes = (
(905,-30,o),
(990,158,o),
(990,443,cs),
(990,514,o),
(985,582,o),
(977,633,c),
(1015,646,o),
(1046,667,o),
(1046,702,cs),
(1046,745,o),
(999,768,o),
(933,773,c),
(887,861,o),
(821,912,o),
(737,912,cs),
(635,912,o),
(581,837,o),
(551,776,c),
(507,776,l),
(476,830,o),
(421,891,o),
(325,891,cs),
(247,891,o),
(180,849,o),
(133,775,c),
(55,770,o),
(4,748,o),
(4,702,cs),
(4,666,o),
(38,645,o),
(78,632,c),
(67,577,o),
(60,501,o),
(60,423,cs),
(60,156,o),
(143,-20,o),
(317,-20,cs),
(422,-20,o),
(487,44,o),
(526,116,c),
(565,40,o),
(630,-30,o),
(734,-30,cs)
);
},
{
closed = 1;
nodes = (
(512,237,o),
(506,278,o),
(506,297,cs),
(506,320,o),
(512,336,o),
(527,336,cs),
(541,336,o),
(548,324,o),
(548,298,cs),
(548,278,o),
(542,236,o),
(527,191,c)
);
},
{
closed = 1;
nodes = (
(635,-2,o),
(575,73,o),
(542,150,c),
(569,211,o),
(578,272,o),
(578,298,cs),
(578,334,o),
(561,364,o),
(527,364,cs),
(491,364,o),
(476,328,o),
(476,297,cs),
(476,273,o),
(485,212,o),
(511,150,c),
(477,78,o),
(417,8,o),
(317,8,cs),
(165,8,o),
(90,164,o),
(90,423,cs),
(90,512,o),
(99,598,o),
(113,652,c),
(65,663,o),
(34,677,o),
(34,702,cs),
(34,731,o),
(71,745,o),
(151,747,c),
(195,824,o),
(253,863,o),
(325,863,cs),
(414,863,o),
(461,803,o),
(489,748,c),
(571,748,l),
(598,810,o),
(643,884,o),
(737,884,cs),
(814,884,o),
(870,838,o),
(913,746,c),
(981,744,o),
(1016,729,o),
(1016,702,cs),
(1016,677,o),
(989,664,o),
(943,653,c),
(953,603,o),
(960,525,o),
(960,443,cs),
(960,166,o),
(883,-2,o),
(734,-2,cs)
);
},
{
closed = 1;
nodes = (
(567,507,o),
(587,544,o),
(587,585,cs),
(587,603,o),
(584,624,o),
(579,644,c),
(484,644,l),
(481,626,o),
(479,605,o),
(479,592,cs),
(479,550,o),
(495,507,o),
(533,507,cs)
);
},
{
closed = 1;
nodes = (
(518,535,o),
(509,557,o),
(509,592,cs),
(509,599,o),
(509,607,o),
(510,616,c),
(554,616,l),
(556,605,o),
(557,595,o),
(557,585,cs),
(557,552,o),
(547,535,o),
(533,535,cs)
);
}
);
width = 1050;
},
{
layerId = m006;
name = Regular;
shapes = (
{
closed = 1;
nodes = (
(883,-2,o),
(960,166,o),
(960,443,cs),
(960,525,o),
(953,603,o),
(943,653,c),
(989,664,o),
(1016,677,o),
(1016,702,cs),
(1016,729,o),
(981,744,o),
(913,746,c),
(870,838,o),
(814,884,o),
(737,884,cs),
(643,884,o),
(598,810,o),
(571,748,c),
(489,748,l),
(461,803,o),
(414,863,o),
(325,863,cs),
(253,863,o),
(195,824,o),
(151,747,c),
(71,745,o),
(34,731,o),
(34,702,cs),
(34,677,o),
(65,663,o),
(113,652,c),
(99,598,o),
(90,512,o),
(90,423,cs),
(90,164,o),
(165,8,o),
(317,8,cs),
(417,8,o),
(477,78,o),
(511,150,c),
(485,212,o),
(476,273,o),
(476,297,cs),
(476,328,o),
(491,364,o),
(527,364,cs),
(561,364,o),
(578,334,o),
(578,298,cs),
(578,272,o),
(569,211,o),
(542,150,c),
(575,73,o),
(635,-2,o),
(734,-2,cs)
);
},
{
closed = 1;
nodes = (
(495,507,o),
(479,550,o),
(479,592,cs),
(479,605,o),
(481,626,o),
(484,644,c),
(579,644,l),
(584,624,o),
(587,603,o),
(587,585,cs),
(587,544,o),
(567,507,o),
(533,507,cs)
);
}
);
width = 1050;
}
);
unicode = (294,295);
},
{
color = 6;
glyphname = I;
kernLeft = H;
kernRight = H;
lastChange = "2024-09-27 09:10:39 +0000";
layers = (
{
anchors = (
{
name = bottom;
pos = (270,0);
},
{
name = ogonek;
pos = (486,10);
},
{
name = top;
pos = (270,900);
},
{
name = topleft;
pos = (20,900);
}
);
layerId = m01;
shapes = (
{
attr = {
strokeHeight = 28;
strokeWidth = 30;
};
closed = 1;
nodes = (
(429,-12,o),
(510,136,o),
(510,427,cs),
(510,730,o),
(422,902,o),
(268,902,cs),
(99,902,o),
(30,692,o),
(30,416,cs),
(30,137,o),
(100,-12,o),
(264,-12,cs)
);
}
);
width = 540;
},
{
anchors = (
{
name = bottom;
pos = (270,0);
},
{
name = ogonek;
pos = (486,10);
},
{
name = top;
pos = (270,900);
},
{
name = topleft;
pos = (20,900);
}
);
layerId = "AA01E2DD-0766-4133-B890-CA2A0BF1A57D";
shapes = (
{
closed = 1;
nodes = (
(429,-12,o),
(510,136,o),
(510,427,cs),
(510,730,o),
(422,902,o),
(268,902,cs),
(99,902,o),
(30,692,o),
(30,416,cs),
(30,137,o),
(100,-12,o),
(264,-12,cs)
);
}
);
width = 540;
},
{
anchors = (
{
name = bottom;
pos = (270,0);
},
{
name = ogonek;
pos = (486,10);
},
{
name = top;
pos = (270,900);
},
{
name = topleft;
pos = (20,900);
}
);
layerId = "18EF3260-CEF7-4699-AE8F-A1FB16D1B078";
shapes = (
{
attr = {
lineCapEnd = "1";
lineCapStart = "1";
strokeHeight = 28;
strokeWidth = 28;
};
closed = 0;
nodes = (
(123,702,l),
(136,742,o),
(151,773,o),
(171,796,c)
);
},
{
attr = {
lineCapEnd = "1";
lineCapStart = "1";
strokeHeight = 28;
strokeWidth = 28;
};
closed = 0;
nodes = (
(205,825,l),
(210,828,o),
(216,831,o),
(221,833,cs)
);
}
);
width = 540;
},
{
anchors = (
{
name = bottom;
pos = (270,0);
},
{
name = ogonek;
pos = (486,10);
},
{
name = top;
pos = (270,900);
},
{
name = topleft;
pos = (20,900);
}
);
layerId = "F563C7B0-622D-42B3-911E-B48219F56EF3";
shapes = (
{
attr = {
lineCapEnd = "1";
lineCapStart = "1";
strokeHeight = 28;
strokeWidth = 28;
};
closed = 0;
nodes = (
(123,702,l),
(136,742,o),
(151,773,o),
(171,796,c)
);
},
{
attr = {
lineCapEnd = "1";
lineCapStart = "1";
strokeHeight = 28;
strokeWidth = 28;
};
closed = 0;
nodes = (
(205,825,l),
(210,828,o),
(216,831,o),
(221,833,cs)
);
}
);
width = 540;
},
{
anchors = (
{
name = bottom;
pos = (270,0);
},
{
name = ogonek;
pos = (486,10);
},
{
name = top;
pos = (270,900);
},
{
name = topleft;
pos = (20,900);
}
);
layerId = "F41CCFAE-1054-41CD-BE75-8F05F0A4F59E";
shapes = (
{
closed = 1;
nodes = (
(470,-57,o),
(555,100,o),
(555,397,cs),
(555,617,o),
(509,772,o),
(422,843,c),
(382,891,o),
(330,917,o),
(268,917,cs),
(87,917,o),
(15,697,o),
(15,416,cs),
(15,297,o),
(28,199,o),
(56,127,cs),
(74,79,o),
(99,42,o),
(131,16,c),
(170,-32,o),
(224,-57,o),
(294,-57,cs)
);
},
{
closed = 1;
nodes = (
(110,2,o),
(45,140,o),
(45,416,cs),
(45,690,o),
(110,888,o),
(268,888,cs),
(413,888,o),
(495,727,o),
(495,427,cs),
(495,139,o),
(420,2,o),
(264,2,cs)
);
}
);
width = 540;
},
{
anchors = (
{
name = bottom;
pos = (270,0);
},
{
name = ogonek;
pos = (486,10);
},
{
name = top;
pos = (270,900);
},
{
name = topleft;
pos = (20,900);
}
);
layerId = "9609D89D-5179-4910-93A4-3439D6828341";
shapes = (
{
closed = 1;
nodes = (
(440,-26,o),
(525,131,o),
(525,427,cs),
(525,735,o),
(434,916,o),
(268,916,cs),
(87,916,o),
(15,697,o),
(15,416,cs),
(15,132,o),
(88,-26,o),
(264,-26,cs)
);
},
{
closed = 1;
nodes = (
(110,2,o),
(45,140,o),
(45,416,cs),
(45,690,o),
(110,888,o),
(268,888,cs),
(413,888,o),
(495,727,o),
(495,427,cs),
(495,139,o),
(420,2,o),
(264,2,cs)
);
}
);
width = 540;
},
{
anchors = (
{
name = bottom;
pos = (270,0);
},
{
name = ogonek;
pos = (486,10);
},
{
name = top;
pos = (270,900);
},
{
name = topleft;
pos = (20,900);
}
);
layerId = m006;
shapes = (
{
closed = 1;
nodes = (
(420,2,o),
(495,139,o),
(495,427,cs),
(495,727,o),
(413,888,o),
(268,888,cs),
(110,888,o),
(45,690,o),
(45,416,cs),
(45,140,o),
(110,2,o),
(264,2,cs)
);
}
);
width = 540;
}
);
unicode = (73,105);
},
{
color = 6;
glyphname = Iogonek;
kernLeft = L;
kernRight = H;
lastChange = "2024-09-27 09:10:39 +0000";
layers = (
{
background = {
shapes = (
{
attr = {
strokeHeight = 28;
strokeWidth = 30;
};
closed = 1;
nodes = (
(429,-12,o),
(510,138,o),
(510,432,cs),
(510,738,o),
(422,912,o),
(268,912,cs),
(99,912,o),
(30,700,o),
(30,421,cs),
(30,139,o),
(100,-12,o),
(264,-12,cs)
);
}
);
};
layerId = m01;
shapes = (
{
attr = {
strokeHeight = 28;
strokeWidth = 30;
};
closed = 1;
nodes = (
(416,-255,o),
(474,-210,o),
(474,-155,cs),
(474,-94,o),
(402,-61,o),
(356,-61,cs),
(348,-61,o),
(340,-62,o),
(336,-63,cs),
(322,-66,o),
(320,-71,o),
(320,-73,cs),
(320,-75,o),
(322,-76,o),
(326,-76,cs),
(331,-76,o),
(340,-73,o),
(351,-66,cs),
(407,-29,o),
(510,131,o),
(510,437,cs),
(510,727,o),
(418,902,o),
(268,902,cs),
(99,902,o),
(30,682,o),
(30,464,cs),
(30,255,o),
(93,25,o),
(241,25,cs),
(258,25,o),
(265,28,o),
(265,33,cs),
(265,37,o),
(259,41,o),
(248,41,cs),
(199,41,o),
(126,-35,o),
(126,-111,cs),
(126,-189,o),
(202,-255,o),
(319,-255,cs)
);
}
);
width = 540;
},
{
background = {
shapes = (
{
attr = {
strokeHeight = 28;
strokeWidth = 30;
};
closed = 1;
nodes = (
(429,-12,o),
(510,138,o),
(510,432,cs),
(510,738,o),
(422,912,o),
(268,912,cs),
(99,912,o),
(30,700,o),
(30,421,cs),
(30,139,o),
(100,-12,o),
(264,-12,cs)
);
}
);
};
layerId = "AA01E2DD-0766-4133-B890-CA2A0BF1A57D";
shapes = (
{
closed = 1;
nodes = (
(416,-255,o),
(474,-210,o),
(474,-155,cs),
(474,-95,o),
(404,-62,o),
(358,-61,c),
(415,-16,o),
(510,143,o),
(510,437,cs),
(510,727,o),
(418,902,o),
(268,902,cs),
(99,902,o),
(30,682,o),
(30,464,cs),
(30,270,o),
(84,59,o),
(210,29,c),
(168,4,o),
(126,-53,o),
(126,-111,cs),
(126,-189,o),
(202,-255,o),
(319,-255,cs)
);
}
);
width = 540;
},
{
background = {
shapes = (
{
attr = {
strokeHeight = 28;
strokeWidth = 30;
};
closed = 1;
nodes = (
(429,-12,o),
(510,138,o),
(510,432,cs),
(510,738,o),
(422,912,o),
(268,912,cs),
(99,912,o),
(30,700,o),
(30,421,cs),
(30,139,o),
(100,-12,o),
(264,-12,cs)
);
}
);
};
layerId = "18EF3260-CEF7-4699-AE8F-A1FB16D1B078";
shapes = (
{
attr = {
lineCapEnd = "1";
lineCapStart = "1";
strokeHeight = 28;
strokeWidth = 28;
};
closed = 0;
nodes = (
(123,702,l),
(136,742,o),
(151,773,o),
(171,796,c)
);
},
{
attr = {
lineCapEnd = "1";
lineCapStart = "1";
strokeHeight = 28;
strokeWidth = 28;
};
closed = 0;
nodes = (
(205,825,l),
(210,828,o),
(216,831,o),
(221,833,cs)
);
}
);
width = 540;
},
{
background = {
shapes = (
{
attr = {
strokeHeight = 28;
strokeWidth = 30;
};
closed = 1;
nodes = (
(429,-12,o),
(510,138,o),
(510,432,cs),
(510,738,o),
(422,912,o),
(268,912,cs),
(99,912,o),
(30,700,o),
(30,421,cs),
(30,139,o),
(100,-12,o),
(264,-12,cs)
);
}
);
};
layerId = "F563C7B0-622D-42B3-911E-B48219F56EF3";
shapes = (
{
attr = {
lineCapEnd = "1";
lineCapStart = "1";
strokeHeight = 28;
strokeWidth = 28;
};
closed = 0;
nodes = (
(123,702,l),
(136,742,o),
(151,773,o),
(171,796,c)
);
},
{
attr = {
lineCapEnd = "1";
lineCapStart = "1";
strokeHeight = 28;
strokeWidth = 28;
};
closed = 0;
nodes = (
(205,825,l),
(210,828,o),
(216,831,o),
(221,833,cs)
);
}
);
width = 540;
},
{
background = {
shapes = (
{
attr = {
strokeHeight = 28;
strokeWidth = 30;
};
closed = 1;
nodes = (
(429,-12,o),
(510,138,o),
(510,432,cs),
(510,738,o),
(422,912,o),
(268,912,cs),
(99,912,o),
(30,700,o),
(30,421,cs),
(30,139,o),
(100,-12,o),
(264,-12,cs)
);
}
);
};
layerId = "F41CCFAE-1054-41CD-BE75-8F05F0A4F59E";
shapes = (
{
closed = 1;
nodes = (
(453,-300,o),
(519,-250,o),
(519,-185,cs),
(519,-150,o),
(500,-123,o),
(474,-105,c),
(463,-89,o),
(448,-76,o),
(432,-67,c),
(489,6,o),
(555,160,o),
(555,407,cs),
(555,617,o),
(507,771,o),
(421,843,c),
(380,891,o),
(329,917,o),
(268,917,cs),
(169,917,o),
(102,848,o),
(63,749,cs),
(30,667,o),
(15,565,o),
(15,464,cs),
(15,333,o),
(40,192,o),
(96,102,cs),
(110,79,o),
(127,59,o),
(146,44,c),
(154,34,o),
(162,26,o),
(171,18,c),
(138,-14,o),
(111,-62,o),
(111,-111,cs),
(111,-155,o),
(132,-195,o),
(170,-224,c),
(204,-269,o),
(268,-300,o),
(349,-300,cs)
);
},
{
closed = 1;
nodes = (
(208,-241,o),
(141,-183,o),
(141,-111,cs),
(141,-59,o),
(176,-9,o),
(211,14,c),
(221,12,o),
(231,11,o),
(241,11,cs),
(268,11,o),
(280,20,o),
(280,33,cs),
(280,45,o),
(267,55,o),
(248,55,cs),
(235,55,o),
(221,51,o),
(207,44,c),
(95,76,o),
(45,275,o),
(45,464,cs),
(45,680,o),
(110,888,o),
(268,888,cs),
(409,888,o),
(495,724,o),
(495,437,cs),
(495,152,o),
(407,-1,o),
(352,-47,c),
(344,-47,o),
(336,-48,o),
(333,-49,cs),
(312,-54,o),
(305,-64,o),
(305,-73,cs),
(305,-83,o),
(314,-90,o),
(326,-90,cs),
(333,-90,o),
(345,-87,o),
(359,-78,cs),
(363,-75,l),
(405,-78,o),
(459,-105,o),
(459,-155,cs),
(459,-203,o),
(411,-241,o),
(319,-241,cs)
);
}
);
width = 540;
},
{
background = {
shapes = (
{
attr = {
strokeHeight = 28;
strokeWidth = 30;
};
closed = 1;
nodes = (
(429,-12,o),
(510,138,o),
(510,432,cs),
(510,738,o),
(422,912,o),
(268,912,cs),
(99,912,o),
(30,700,o),
(30,421,cs),
(30,139,o),
(100,-12,o),
(264,-12,cs)
);
}
);
};
layerId = "9609D89D-5179-4910-93A4-3439D6828341";
shapes = (
{
closed = 1;
nodes = (
(423,-269,o),
(489,-219,o),
(489,-155,cs),
(489,-98,o),
(436,-63,o),
(389,-51,c),
(449,15,o),
(525,173,o),
(525,437,cs),
(525,733,o),
(429,916,o),
(268,916,cs),
(86,916,o),
(15,686,o),
(15,464,cs),
(15,281,o),
(63,77,o),
(179,24,c),
(142,-7,o),
(111,-59,o),
(111,-111,cs),
(111,-197,o),
(194,-269,o),
(319,-269,cs)
);
},
{
closed = 1;
nodes = (
(208,-241,o),
(141,-183,o),
(141,-111,cs),
(141,-59,o),
(176,-9,o),
(211,14,c),
(221,12,o),
(231,11,o),
(241,11,cs),
(268,11,o),
(280,20,o),
(280,33,cs),
(280,45,o),
(267,55,o),
(248,55,cs),
(235,55,o),
(221,51,o),
(207,44,c),
(95,76,o),
(45,275,o),
(45,464,cs),
(45,680,o),
(110,888,o),
(268,888,cs),
(409,888,o),
(495,724,o),
(495,437,cs),
(495,152,o),
(407,-1,o),
(352,-47,c),
(344,-47,o),
(336,-48,o),
(333,-49,cs),
(312,-54,o),
(305,-64,o),
(305,-73,cs),
(305,-83,o),
(314,-90,o),
(326,-90,cs),
(333,-90,o),
(345,-87,o),
(359,-78,cs),
(363,-75,l),
(405,-78,o),
(459,-105,o),
(459,-155,cs),
(459,-203,o),
(411,-241,o),
(319,-241,cs)
);
}
);
width = 540;
},
{
background = {
shapes = (
{
attr = {
strokeHeight = 28;
strokeWidth = 30;
};
closed = 1;
nodes = (
(429,-12,o),
(510,138,o),
(510,432,cs),
(510,738,o),
(422,912,o),
(268,912,cs),
(99,912,o),
(30,700,o),
(30,421,cs),
(30,139,o),
(100,-12,o),
(264,-12,cs)
);
}
);
};
layerId = m006;
shapes = (
{
closed = 1;
nodes = (
(411,-241,o),
(459,-203,o),
(459,-155,cs),
(459,-105,o),
(405,-78,o),
(363,-75,c),
(359,-78,ls),
(345,-87,o),
(333,-90,o),
(326,-90,cs),
(314,-90,o),
(305,-83,o),
(305,-73,cs),
(305,-64,o),
(312,-54,o),
(333,-49,cs),
(336,-48,o),
(344,-47,o),
(352,-47,c),
(407,-1,o),
(495,152,o),
(495,437,cs),
(495,724,o),
(409,888,o),
(268,888,cs),
(110,888,o),
(45,680,o),
(45,464,cs),
(45,275,o),
(95,76,o),
(207,44,c),
(221,51,o),
(235,55,o),
(248,55,cs),
(267,55,o),
(280,45,o),
(280,33,cs),
(280,20,o),
(268,11,o),
(241,11,cs),
(231,11,o),
(221,12,o),
(211,14,c),
(176,-9,o),
(141,-59,o),
(141,-111,cs),
(141,-183,o),
(208,-241,o),
(319,-241,cs)
);
}
);
width = 540;
},
{
associatedMasterId = m01;
background = {
shapes = (
{
attr = {
strokeHeight = 28;
strokeWidth = 30;
};
closed = 1;
nodes = (
(429,-12,o),
(510,138,o),
(510,432,cs),
(510,738,o),
(422,912,o),
(268,912,cs),
(99,912,o),
(30,700,o),
(30,421,cs),
(30,139,o),
(100,-12,o),
(264,-12,cs)
);
}
);
};
layerId = "902DB220-FD06-4B12-9A04-3AA159F750E6";
name = "16 Jan 24 at 09:37";
shapes = (
{
attr = {
strokeHeight = 28;
strokeWidth = 30;
};
closed = 1;
nodes = (
(416,-258,o),
(479,-210,o),
(479,-155,cs),
(479,-94,o),
(402,-61,o),
(356,-61,cs),
(348,-61,o),
(340,-62,o),
(336,-63,cs),
(322,-66,o),
(320,-71,o),
(320,-73,cs),
(320,-75,o),
(322,-76,o),
(326,-76,cs),
(331,-76,o),
(340,-73,o),
(351,-66,cs),
(407,-29,o),
(510,131,o),
(510,437,cs),
(510,727,o),
(418,902,o),
(268,902,cs),
(99,902,o),
(30,682,o),
(30,464,cs),
(30,255,o),
(93,25,o),
(241,25,cs),
(258,25,o),
(265,28,o),
(265,33,cs),
(265,37,o),
(259,41,o),
(248,41,cs),
(199,41,o),
(126,-35,o),
(126,-111,cs),
(126,-189,o),
(202,-258,o),
(319,-258,cs)
);
}
);
width = 540;
}
);
unicode = (302,303);
},
{
color = 6;
glyphname = J;
kernLeft = J;
kernRight = J;
lastChange = "2024-09-27 09:10:39 +0000";
layers = (
{
anchors = (
{
name = bottom;
pos = (344,0);
},
{
name = top;
pos = (487,900);
}
);
layerId = m01;
shapes = (
{
attr = {
strokeHeight = 28;
strokeWidth = 30;
};
closed = 1;
nodes = (
(596,-12,o),
(720,149,o),
(720,490,cs),
(720,771,o),
(636,912,o),
(487,912,cs),
(355,912,o),
(289,800,o),
(289,575,cs),
(289,398,o),
(330,254,o),
(392,254,cs),
(413,254,o),
(430,270,o),
(430,291,cs),
(430,324,o),
(383,384,o),
(251,384,cs),
(109,384,o),
(30,315,o),
(30,216,cs),
(30,107,o),
(127,-12,o),
(344,-12,cs)
);
}
);
width = 750;
},
{
anchors = (
{
name = bottom;
pos = (344,0);
},
{
name = top;
pos = (487,900);
}
);
layerId = "AA01E2DD-0766-4133-B890-CA2A0BF1A57D";
shapes = (
{
closed = 1;
nodes = (
(596,-12,o),
(720,149,o),
(720,490,cs),
(720,771,o),
(636,912,o),
(487,912,cs),
(355,912,o),
(289,800,o),
(289,575,cs),
(289,502,o),
(296,434,o),
(309,380,c),
(292,382,o),
(272,384,o),
(251,384,cs),
(109,384,o),
(30,315,o),
(30,216,cs),
(30,107,o),
(127,-12,o),
(344,-12,cs)
);
}
);
width = 750;
},
{
anchors = (
{
name = bottom;
pos = (344,0);
},
{
name = top;
pos = (487,900);
}
);
layerId = "18EF3260-CEF7-4699-AE8F-A1FB16D1B078";
shapes = (
{
attr = {
lineCapEnd = "1";
lineCapStart = "1";
strokeHeight = 28;
strokeWidth = 28;
};
closed = 0;
nodes = (
(148,309,l),
(118,297,o),
(101,277,o),
(94,249,c)
);
},
{
attr = {
lineCapEnd = "1";
lineCapStart = "1";
strokeWidth = 28;
};
closed = 0;
nodes = (
(380,790,l),
(369,768,o),
(361,739,o),
(356,703,cs)
);
},
{
attr = {
lineCapEnd = "1";
lineCapStart = "1";
strokeWidth = 28;
};
closed = 0;
nodes = (
(430,841,l),
(423,838,o),
(417,835,o),
(411,830,cs)
);
}
);
width = 750;
},
{
anchors = (
{
name = bottom;
pos = (344,0);
},
{
name = top;
pos = (487,900);
}
);
layerId = "F563C7B0-622D-42B3-911E-B48219F56EF3";
shapes = (
{
attr = {
lineCapEnd = "1";
lineCapStart = "1";
strokeHeight = 28;
strokeWidth = 28;
};
closed = 0;
nodes = (
(148,309,l),
(118,297,o),
(101,277,o),
(94,249,c)
);
},
{
attr = {
lineCapEnd = "1";
lineCapStart = "1";
strokeWidth = 28;
};
closed = 0;
nodes = (
(380,790,l),
(369,768,o),
(361,739,o),
(356,703,cs)
);
},
{
attr = {
lineCapEnd = "1";
lineCapStart = "1";
strokeWidth = 28;
};
closed = 0;
nodes = (
(430,841,l),
(423,838,o),
(417,835,o),
(411,830,cs)
);
}
);
width = 750;
},
{
anchors = (
{
name = bottom;
pos = (344,0);
},
{
name = top;
pos = (487,900);
}
);
layerId = "F41CCFAE-1054-41CD-BE75-8F05F0A4F59E";
shapes = (
{
closed = 1;
nodes = (
(635,-57,o),
(765,112,o),
(765,460,cs),
(765,656,o),
(723,789,o),
(646,852,c),
(641,858,o),
(636,864,o),
(631,869,cs),
(593,907,o),
(544,927,o),
(487,927,cs),
(344,927,o),
(274,806,o),
(274,575,cs),
(274,510,o),
(279,449,o),
(290,397,c),
(278,398,o),
(265,399,o),
(251,399,cs),
(101,399,o),
(15,324,o),
(15,216,cs),
(15,157,o),
(41,96,o),
(96,50,c),
(148,-12,o),
(239,-57,o),
(374,-57,cs)
);
},
{
closed = 1;
nodes = (
(366,268,o),
(343,303,o),
(327,362,c),
(392,347,o),
(415,313,o),
(415,291,cs),
(415,276,o),
(407,268,o),
(392,268,cs)
);
},
{
closed = 1;
nodes = (
(134,2,o),
(45,112,o),
(45,216,cs),
(45,309,o),
(115,370,o),
(251,370,cs),
(268,370,o),
(283,369,o),
(296,367,c),
(316,290,o),
(348,240,o),
(392,240,cs),
(421,240,o),
(445,262,o),
(445,291,cs),
(445,324,o),
(410,374,o),
(320,392,c),
(310,442,o),
(304,505,o),
(304,575,cs),
(304,796,o),
(364,898,o),
(487,898,cs),
(627,898,o),
(705,767,o),
(705,490,cs),
(705,153,o),
(588,2,o),
(344,2,cs)
);
}
);
width = 750;
},
{
anchors = (
{
name = bottom;
pos = (344,0);
},
{
name = top;
pos = (487,900);
}
);
layerId = "9609D89D-5179-4910-93A4-3439D6828341";
shapes = (
{
closed = 1;
nodes = (
(606,-26,o),
(735,143,o),
(735,490,cs),
(735,777,o),
(647,926,o),
(487,926,cs),
(344,926,o),
(274,806,o),
(274,575,cs),
(274,510,o),
(279,448,o),
(290,396,c),
(278,397,o),
(265,398,o),
(251,398,cs),
(101,398,o),
(15,323,o),
(15,216,cs),
(15,100,o),
(118,-26,o),
(344,-26,cs)
);
},
{
closed = 1;
nodes = (
(366,268,o),
(343,303,o),
(327,362,c),
(392,347,o),
(415,313,o),
(415,291,cs),
(415,276,o),
(407,268,o),
(392,268,cs)
);
},
{
closed = 1;
nodes = (
(134,2,o),
(45,112,o),
(45,216,cs),
(45,309,o),
(115,370,o),
(251,370,cs),
(268,370,o),
(283,369,o),
(296,367,c),
(316,290,o),
(348,240,o),
(392,240,cs),
(421,240,o),
(445,262,o),
(445,291,cs),
(445,324,o),
(410,374,o),
(320,392,c),
(310,442,o),
(304,505,o),
(304,575,cs),
(304,796,o),
(364,898,o),
(487,898,cs),
(627,898,o),
(705,767,o),
(705,490,cs),
(705,153,o),
(588,2,o),
(344,2,cs)
);
}
);
width = 750;
},
{
anchors = (
{
name = bottom;
pos = (344,0);
},
{
name = top;
pos = (487,900);
}
);
layerId = m006;
shapes = (
{
closed = 1;
nodes = (
(588,2,o),
(705,153,o),
(705,490,cs),
(705,767,o),
(627,898,o),
(487,898,cs),
(364,898,o),
(304,796,o),
(304,575,cs),
(304,505,o),
(310,442,o),
(320,392,c),
(410,374,o),
(445,324,o),
(445,291,cs),
(445,262,o),
(421,240,o),
(392,240,cs),
(348,240,o),
(316,290,o),
(296,367,c),
(283,369,o),
(268,370,o),
(251,370,cs),
(115,370,o),
(45,309,o),
(45,216,cs),
(45,112,o),
(134,2,o),
(344,2,cs)
);
},
{
closed = 1;
nodes = (
(407,268,o),
(415,276,o),
(415,291,cs),
(415,313,o),
(392,347,o),
(327,362,c),
(343,303,o),
(366,268,o),
(392,268,cs)
);
}
);
width = 750;
}
);
unicode = (74,106);
},
{
color = 6;
glyphname = K;
kernLeft = H;
kernRight = K;
lastChange = "2024-09-27 09:10:39 +0000";
layers = (
{
anchors = (
{
name = bottom;
pos = (495,0);
},
{
name = top;
pos = (495,900);
}
);
layerId = m01;
shapes = (
{
attr = {
strokeHeight = 28;
strokeWidth = 30;
};
closed = 1;
nodes = (
(920,-30,o),
(966,58,o),
(966,140,cs),
(966,303,o),
(787,486,o),
(714,486,cs),
(703,486,o),
(696,482,o),
(696,476,cs),
(696,471,o),
(702,466,o),
(712,466,cs),
(761,466,o),
(919,601,o),
(919,754,cs),
(919,835,o),
(874,919,o),
(767,919,cs),
(591,919,o),
(463,693,o),
(463,625,cs),
(463,611,o),
(468,602,o),
(473,602,cs),
(479,602,o),
(485,614,o),
(485,645,cs),
(485,734,o),
(436,894,o),
(299,894,cs),
(147,894,o),
(30,696,o),
(30,400,cs),
(30,134,o),
(124,0,o),
(264,0,cs),
(426,0,o),
(480,181,o),
(480,283,cs),
(480,312,o),
(475,326,o),
(468,326,cs),
(460,326,o),
(456,310,o),
(456,292,cs),
(456,187,o),
(592,-30,o),
(792,-30,cs)
);
}
);
width = 990;
},
{
anchors = (
{
name = bottom;
pos = (495,0);
},
{
name = top;
pos = (495,900);
}
);
layerId = "AA01E2DD-0766-4133-B890-CA2A0BF1A57D";
shapes = (
{
closed = 1;
nodes = (
(920,-30,o),
(966,58,o),
(966,140,cs),
(966,282,o),
(829,440,o),
(746,478,c),
(811,514,o),
(919,628,o),
(919,754,cs),
(919,835,o),
(874,919,o),
(767,919,cs),
(630,919,o),
(523,783,o),
(481,690,c),
(468,779,o),
(415,894,o),
(299,894,cs),
(147,894,o),
(30,696,o),
(30,400,cs),
(30,134,o),
(124,0,o),
(264,0,cs),
(394,0,o),
(454,116,o),
(473,215,c),
(516,106,o),
(634,-30,o),
(792,-30,cs)
);
}
);
width = 990;
},
{
anchors = (
{
name = bottom;
pos = (495,0);
},
{
name = top;
pos = (495,900);
}
);
layerId = "18EF3260-CEF7-4699-AE8F-A1FB16D1B078";
shapes = (
{
attr = {
lineCapEnd = 1;
lineCapStart = 1;
strokeHeight = 28;
strokeWidth = 28;
};
closed = 0;
nodes = (
(252,825,l),
(244,822,o),
(236,818,o),
(228,813,c)
);
},
{
attr = {
lineCapEnd = 1;
lineCapStart = 1;
strokeHeight = 28;
strokeWidth = 28;
};
closed = 0;
nodes = (
(669,829,l),
(635,808,o),
(605,778,o),
(582,748,cs)
);
},
{
attr = {
lineCapEnd = 1;
lineCapStart = 1;
strokeHeight = 28;
strokeWidth = 28;
};
closed = 0;
nodes = (
(188,779,l),
(167,754,o),
(148,723,o),
(133,684,cs)
);
}
);
width = 990;
},
{
anchors = (
{
name = bottom;
pos = (495,0);
},
{
name = top;
pos = (495,900);
}
);
layerId = "F563C7B0-622D-42B3-911E-B48219F56EF3";
shapes = (
{
attr = {
lineCapEnd = 1;
lineCapStart = 1;
strokeHeight = 28;
strokeWidth = 28;
};
closed = 0;
nodes = (
(252,825,l),
(244,822,o),
(236,818,o),
(228,813,c)
);
},
{
attr = {
lineCapEnd = 1;
lineCapStart = 1;
strokeHeight = 28;
strokeWidth = 28;
};
closed = 0;
nodes = (
(669,829,l),
(635,808,o),
(605,778,o),
(582,748,cs)
);
},
{
attr = {
lineCapEnd = 1;
lineCapStart = 1;
strokeHeight = 28;
strokeWidth = 28;
};
closed = 0;
nodes = (
(188,779,l),
(167,754,o),
(148,723,o),
(133,684,cs)
);
}
);
width = 990;
},
{
anchors = (
{
name = bottom;
pos = (495,0);
},
{
name = top;
pos = (495,900);
}
);
layerId = "F41CCFAE-1054-41CD-BE75-8F05F0A4F59E";
shapes = (
{
closed = 1;
nodes = (
(961,-75,o),
(1011,23,o),
(1011,110,cs),
(1011,220,o),
(934,338,o),
(858,408,c),
(842,425,o),
(827,440,o),
(811,453,c),
(880,504,o),
(964,609,o),
(964,724,cs),
(964,780,o),
(943,839,o),
(897,873,c),
(870,909,o),
(828,934,o),
(767,934,cs),
(650,934,o),
(554,842,o),
(499,755,c),
(484,788,o),
(463,820,o),
(434,843,c),
(403,882,o),
(359,909,o),
(299,909,cs),
(136,909,o),
(15,702,o),
(15,400,cs),
(15,216,o),
(60,92,o),
(135,30,c),
(176,-20,o),
(231,-45,o),
(294,-45,cs),
(409,-45,o),
(473,39,o),
(503,127,c),
(503,126,o),
(504,126,o),
(504,125,c),
(523,97,o),
(547,70,o),
(573,45,c),
(634,-22,o),
(720,-75,o),
(822,-75,cs)
);
},
{
closed = 1;
nodes = (
(642,-16,o),
(530,111,o),
(488,215,c),
(493,240,o),
(495,263,o),
(495,283,cs),
(495,323,o),
(485,340,o),
(468,340,cs),
(450,340,o),
(441,320,o),
(441,292,cs),
(441,269,o),
(447,242,o),
(458,213,c),
(439,119,o),
(383,14,o),
(264,14,cs),
(132,14,o),
(45,138,o),
(45,400,cs),
(45,692,o),
(156,880,o),
(299,880,cs),
(404,880,o),
(453,777,o),
(466,692,c),
(454,665,o),
(448,641,o),
(448,625,cs),
(448,601,o),
(460,588,o),
(473,588,cs),
(489,588,o),
(500,603,o),
(500,645,cs),
(500,658,o),
(499,673,o),
(497,689,c),
(537,778,o),
(639,905,o),
(767,905,cs),
(865,905,o),
(904,832,o),
(904,754,cs),
(904,635,o),
(806,529,o),
(746,493,c),
(734,498,o),
(724,500,o),
(714,500,cs),
(692,500,o),
(681,488,o),
(681,476,cs),
(681,463,o),
(694,452,o),
(712,452,cs),
(721,452,o),
(733,456,o),
(747,462,c),
(825,424,o),
(951,276,o),
(951,140,cs),
(951,61,o),
(911,-16,o),
(792,-16,cs)
);
}
);
width = 990;
},
{
anchors = (
{
name = bottom;
pos = (495,0);
},
{
name = top;
pos = (495,900);
}
);
layerId = "9609D89D-5179-4910-93A4-3439D6828341";
shapes = (
{
closed = 1;
nodes = (
(931,-44,o),
(981,53,o),
(981,140,cs),
(981,275,o),
(864,424,o),
(774,479,c),
(845,527,o),
(934,636,o),
(934,754,cs),
(934,840,o),
(885,933,o),
(767,933,cs),
(641,933,o),
(540,826,o),
(487,734,c),
(464,819,o),
(407,908,o),
(299,908,cs),
(136,908,o),
(15,702,o),
(15,400,cs),
(15,128,o),
(114,-14,o),
(264,-14,cs),
(385,-14,o),
(449,78,o),
(477,170,c),
(532,66,o),
(645,-44,o),
(792,-44,cs)
);
},
{
closed = 1;
nodes = (
(642,-16,o),
(530,111,o),
(488,215,c),
(493,240,o),
(495,263,o),
(495,283,cs),
(495,323,o),
(485,340,o),
(468,340,cs),
(450,340,o),
(441,320,o),
(441,292,cs),
(441,269,o),
(447,242,o),
(458,213,c),
(439,119,o),
(383,14,o),
(264,14,cs),
(132,14,o),
(45,138,o),
(45,400,cs),
(45,692,o),
(156,880,o),
(299,880,cs),
(404,880,o),
(453,777,o),
(466,692,c),
(454,665,o),
(448,641,o),
(448,625,cs),
(448,601,o),
(460,588,o),
(473,588,cs),
(489,588,o),
(500,603,o),
(500,645,cs),
(500,658,o),
(499,673,o),
(497,689,c),
(537,778,o),
(639,905,o),
(767,905,cs),
(865,905,o),
(904,832,o),
(904,754,cs),
(904,635,o),
(806,529,o),
(746,493,c),
(734,498,o),
(724,500,o),
(714,500,cs),
(692,500,o),
(681,488,o),
(681,476,cs),
(681,463,o),
(694,452,o),
(712,452,cs),
(721,452,o),
(733,456,o),
(747,462,c),
(825,424,o),
(951,276,o),
(951,140,cs),
(951,61,o),
(911,-16,o),
(792,-16,cs)
);
}
);
width = 990;
},
{
anchors = (
{
name = bottom;
pos = (495,0);
},
{
name = top;
pos = (495,900);
}
);
layerId = m006;
shapes = (
{
closed = 1;
nodes = (
(911,-16,o),
(951,61,o),
(951,140,cs),
(951,276,o),
(825,424,o),
(747,462,c),
(733,456,o),
(721,452,o),
(712,452,cs),
(694,452,o),
(681,463,o),
(681,476,cs),
(681,488,o),
(692,500,o),
(714,500,cs),
(724,500,o),
(734,498,o),
(746,493,c),
(806,529,o),
(904,635,o),
(904,754,cs),
(904,832,o),
(865,905,o),
(767,905,cs),
(639,905,o),
(537,778,o),
(497,689,c),
(499,673,o),
(500,658,o),
(500,645,cs),
(500,603,o),
(489,588,o),
(473,588,cs),
(460,588,o),
(448,601,o),
(448,625,cs),
(448,641,o),
(454,665,o),
(466,692,c),
(453,777,o),
(404,880,o),
(299,880,cs),
(156,880,o),
(45,692,o),
(45,400,cs),
(45,138,o),
(132,14,o),
(264,14,cs),
(383,14,o),
(439,119,o),
(458,213,c),
(447,242,o),
(441,269,o),
(441,292,cs),
(441,320,o),
(450,340,o),
(468,340,cs),
(485,340,o),
(495,323,o),
(495,283,cs),
(495,263,o),
(493,240,o),
(488,215,c),
(530,111,o),
(642,-16,o),
(792,-16,cs)
);
}
);
width = 990;
}
);
unicode = (75,107);
},
{
color = 6;
glyphname = L;
kernLeft = L;
kernRight = L;
lastChange = "2024-09-27 09:10:39 +0000";
layers = (
{
anchors = (
{
name = bottom;
pos = (426,0);
},
{
name = center;
pos = (288,600);
},
{
name = top;
pos = (283,900);
},
{
name = topright;
pos = (480,900);
}
);
layerId = m01;
shapes = (
{
attr = {
strokeHeight = 28;
strokeWidth = 30;
};
closed = 1;
nodes = (
(647,-12,o),
(753,78,o),
(753,191,cs),
(753,292,o),
(669,373,o),
(486,373,cs),
(370,373,o),
(341,340,o),
(341,313,cs),
(341,292,o),
(360,276,o),
(382,276,cs),
(441,276,o),
(481,393,o),
(481,578,cs),
(481,785,o),
(431,912,o),
(283,912,cs),
(114,912,o),
(30,747,o),
(30,465,cs),
(30,129,o),
(149,-12,o),
(426,-12,cs)
);
}
);
width = 780;
},
{
anchors = (
{
name = bottom;
pos = (426,0);
},
{
name = center;
pos = (288,600);
},
{
name = top;
pos = (283,900);
},
{
name = topright;
pos = (480,900);
}
);
layerId = "AA01E2DD-0766-4133-B890-CA2A0BF1A57D";
shapes = (
{
closed = 1;
nodes = (
(647,-12,o),
(753,78,o),
(753,191,cs),
(753,292,o),
(669,373,o),
(486,373,cs),
(476,373,o),
(467,373,o),
(458,372,c),
(473,424,o),
(481,494,o),
(481,578,cs),
(481,785,o),
(431,912,o),
(283,912,cs),
(114,912,o),
(30,747,o),
(30,465,cs),
(30,129,o),
(149,-12,o),
(426,-12,cs)
);
}
);
width = 780;
},
{
anchors = (
{
name = bottom;
pos = (426,0);
},
{
name = center;
pos = (288,600);
},
{
name = top;
pos = (283,900);
},
{
name = topright;
pos = (480,900);
}
);
background = {
shapes = (
{
attr = {
strokeHeight = 28;
strokeWidth = 30;
};
closed = 1;
nodes = (
(647,-12,o),
(753,78,o),
(753,191,cs),
(753,292,o),
(669,373,o),
(486,373,cs),
(370,373,o),
(341,340,o),
(341,313,cs),
(341,292,o),
(360,276,o),
(382,276,cs),
(441,276,o),
(481,393,o),
(481,578,cs),
(481,785,o),
(431,912,o),
(283,912,cs),
(114,912,o),
(30,747,o),
(30,465,cs),
(30,129,o),
(149,-12,o),
(426,-12,cs)
);
}
);
};
layerId = "18EF3260-CEF7-4699-AE8F-A1FB16D1B078";
shapes = (
{
attr = {
lineCapEnd = "1";
lineCapStart = "1";
strokeHeight = 28;
strokeWidth = 28;
};
closed = 0;
nodes = (
(230,845,l),
(221,842,o),
(213,838,o),
(206,834,c)
);
},
{
attr = {
lineCapEnd = "1";
lineCapStart = "1";
strokeHeight = 28;
strokeWidth = 28;
};
closed = 0;
nodes = (
(169,804,l),
(145,778,o),
(126,740,o),
(113,692,cs)
);
}
);
width = 780;
},
{
anchors = (
{
name = bottom;
pos = (426,0);
},
{
name = center;
pos = (288,600);
},
{
name = top;
pos = (283,900);
},
{
name = topright;
pos = (480,900);
}
);
background = {
shapes = (
{
attr = {
strokeHeight = 28;
strokeWidth = 30;
};
closed = 1;
nodes = (
(647,-12,o),
(753,78,o),
(753,191,cs),
(753,292,o),
(669,373,o),
(486,373,cs),
(370,373,o),
(341,340,o),
(341,313,cs),
(341,292,o),
(360,276,o),
(382,276,cs),
(441,276,o),
(481,393,o),
(481,578,cs),
(481,785,o),
(431,912,o),
(283,912,cs),
(114,912,o),
(30,747,o),
(30,465,cs),
(30,129,o),
(149,-12,o),
(426,-12,cs)
);
}
);
};
layerId = "F563C7B0-622D-42B3-911E-B48219F56EF3";
shapes = (
{
attr = {
lineCapEnd = "1";
lineCapStart = "1";
strokeHeight = 28;
strokeWidth = 28;
};
closed = 0;
nodes = (
(230,845,l),
(221,842,o),
(213,838,o),
(206,834,c)
);
},
{
attr = {
lineCapEnd = "1";
lineCapStart = "1";
strokeHeight = 28;
strokeWidth = 28;
};
closed = 0;
nodes = (
(169,804,l),
(145,778,o),
(126,740,o),
(113,692,cs)
);
}
);
width = 780;
},
{
anchors = (
{
name = bottom;
pos = (426,0);
},
{
name = center;
pos = (288,600);
},
{
name = top;
pos = (283,900);
},
{
name = topright;
pos = (480,900);
}
);
layerId = "F41CCFAE-1054-41CD-BE75-8F05F0A4F59E";
shapes = (
{
closed = 1;
nodes = (
(685,-57,o),
(798,39,o),
(798,161,cs),
(798,214,o),
(776,263,o),
(732,298,c),
(693,348,o),
(620,382,o),
(514,387,c),
(522,433,o),
(526,487,o),
(526,548,cs),
(526,696,o),
(500,807,o),
(430,861,c),
(397,904,o),
(349,927,o),
(283,927,cs),
(103,927,o),
(15,753,o),
(15,465,cs),
(15,267,o),
(56,134,o),
(146,57,c),
(213,-21,o),
(315,-57,o),
(456,-57,cs)
);
},
{
closed = 1;
nodes = (
(366,290,o),
(356,298,o),
(356,313,cs),
(356,331,o),
(371,351,o),
(439,357,c),
(425,313,o),
(405,290,o),
(382,290,cs)
);
},
{
closed = 1;
nodes = (
(156,2,o),
(45,134,o),
(45,465,cs),
(45,744,o),
(123,898,o),
(283,898,cs),
(421,898,o),
(466,783,o),
(466,578,cs),
(466,498,o),
(459,434,o),
(448,386,c),
(353,378,o),
(326,344,o),
(326,313,cs),
(326,284,o),
(352,262,o),
(382,262,cs),
(421,262,o),
(450,297,o),
(470,359,c),
(486,359,ls),
(663,359,o),
(738,286,o),
(738,191,cs),
(738,84,o),
(641,2,o),
(426,2,cs)
);
}
);
width = 780;
},
{
anchors = (
{
name = bottom;
pos = (426,0);
},
{
name = center;
pos = (288,600);
},
{
name = top;
pos = (283,900);
},
{
name = topright;
pos = (480,900);
}
);
layerId = "9609D89D-5179-4910-93A4-3439D6828341";
shapes = (
{
closed = 1;
nodes = (
(655,-26,o),
(768,70,o),
(768,191,cs),
(768,300,o),
(677,387,o),
(486,387,cs),
(477,387,l),
(490,438,o),
(496,503,o),
(496,578,cs),
(496,790,o),
(442,926,o),
(283,926,cs),
(103,926,o),
(15,752,o),
(15,465,cs),
(15,122,o),
(140,-26,o),
(426,-26,cs)
);
},
{
closed = 1;
nodes = (
(366,290,o),
(356,298,o),
(356,313,cs),
(356,331,o),
(371,351,o),
(439,357,c),
(425,313,o),
(405,290,o),
(382,290,cs)
);
},
{
closed = 1;
nodes = (
(156,2,o),
(45,134,o),
(45,465,cs),
(45,744,o),
(123,898,o),
(283,898,cs),
(421,898,o),
(466,783,o),
(466,578,cs),
(466,498,o),
(459,434,o),
(448,386,c),
(353,378,o),
(326,344,o),
(326,313,cs),
(326,284,o),
(352,262,o),
(382,262,cs),
(421,262,o),
(450,297,o),
(470,359,c),
(486,359,ls),
(663,359,o),
(738,286,o),
(738,191,cs),
(738,84,o),
(641,2,o),
(426,2,cs)
);
}
);
width = 780;
},
{
anchors = (
{
name = bottom;
pos = (426,0);
},
{
name = center;
pos = (288,600);
},
{
name = top;
pos = (283,900);
},
{
name = topright;
pos = (480,900);
}
);
layerId = m006;
shapes = (
{
closed = 1;
nodes = (
(641,2,o),
(738,84,o),
(738,191,cs),
(738,286,o),
(663,359,o),
(486,359,cs),
(470,359,l),
(450,297,o),
(421,262,o),
(382,262,cs),
(352,262,o),
(326,284,o),
(326,313,cs),
(326,344,o),
(353,378,o),
(448,386,c),
(459,434,o),
(466,498,o),
(466,578,cs),
(466,783,o),
(421,898,o),
(283,898,cs),
(123,898,o),
(45,744,o),
(45,465,cs),
(45,134,o),
(156,2,o),
(426,2,cs)
);
},
{
closed = 1;
nodes = (
(405,290,o),
(425,313,o),
(439,357,c),
(371,351,o),
(356,331,o),
(356,313,cs),
(356,298,o),
(366,290,o),
(382,290,cs)
);
}
);
width = 780;
}
);
unicode = (76,108);
},
{
color = 6;
glyphname = Ldot;
kernLeft = H;
lastChange = "2024-09-27 09:10:39 +0000";
layers = (
{
layerId = "AA01E2DD-0766-4133-B890-CA2A0BF1A57D";
shapes = (
{
closed = 1;
nodes = (
(647,-12,o),
(753,78,o),
(753,191,cs),
(753,292,o),
(669,373,o),
(486,373,cs),
(476,373,o),
(467,373,o),
(458,372,c),
(473,424,o),
(481,494,o),
(481,578,cs),
(481,785,o),
(431,912,o),
(283,912,cs),
(114,912,o),
(30,747,o),
(30,465,cs),
(30,129,o),
(149,-12,o),
(426,-12,cs)
);
},
{
closed = 1;
nodes = (
(543,478,o),
(583,438,o),
(643,438,cs),
(706,438,o),
(747,483,o),
(747,541,cs),
(747,600,o),
(705,642,o),
(649,642,cs),
(590,642,o),
(543,596,o),
(543,533,cs)
);
}
);
width = 780;
},
{
layerId = m006;
shapes = (
{
closed = 1;
nodes = (
(641,2,o),
(738,84,o),
(738,191,cs),
(738,286,o),
(663,359,o),
(486,359,cs),
(470,359,l),
(450,297,o),
(421,262,o),
(382,262,cs),
(352,262,o),
(326,284,o),
(326,313,cs),
(326,344,o),
(353,378,o),
(448,386,c),
(459,434,o),
(466,498,o),
(466,578,cs),
(466,783,o),
(421,898,o),
(283,898,cs),
(123,898,o),
(45,744,o),
(45,465,cs),
(45,134,o),
(156,2,o),
(426,2,cs)
);
},
{
closed = 1;
nodes = (
(405,290,o),
(425,313,o),
(439,357,c),
(371,351,o),
(356,331,o),
(356,313,cs),
(356,298,o),
(366,290,o),
(382,290,cs)
);
},
{
closed = 1;
nodes = (
(699,452,o),
(732,488,o),
(732,541,cs),
(732,594,o),
(698,628,o),
(649,628,cs),
(596,628,o),
(558,590,o),
(558,533,cs),
(558,484,o),
(590,452,o),
(643,452,cs)
);
}
);
width = 780;
},
{
layerId = m01;
shapes = (
{
attr = {
identifier = ID0x7fd118c1d490;
strokeHeight = 28;
strokeWidth = 30;
};
closed = 1;
nodes = (
(647,-12,o),
(753,78,o),
(753,191,cs),
(753,292,o),
(669,373,o),
(486,373,cs),
(370,373,o),
(341,340,o),
(341,313,cs),
(341,292,o),
(360,276,o),
(382,276,cs),
(441,276,o),
(481,393,o),
(481,578,cs),
(481,785,o),
(431,912,o),
(283,912,cs),
(114,912,o),
(30,747,o),
(30,465,cs),
(30,129,o),
(149,-12,o),
(426,-12,cs)
);
},
{
attr = {
identifier = ID0x7fd118c32280;
strokeHeight = 28;
strokeWidth = 30;
};
closed = 1;
nodes = (
(706,438,o),
(747,483,o),
(747,541,cs),
(747,600,o),
(705,642,o),
(649,642,cs),
(590,642,o),
(543,596,o),
(543,533,cs),
(543,478,o),
(583,438,o),
(643,438,cs)
);
}
);
width = 780;
},
{
layerId = "9609D89D-5179-4910-93A4-3439D6828341";
shapes = (
{
closed = 1;
nodes = (
(655,-26,o),
(768,70,o),
(768,191,cs),
(768,300,o),
(677,387,o),
(486,387,cs),
(477,387,l),
(490,438,o),
(496,503,o),
(496,578,cs),
(496,790,o),
(442,926,o),
(283,926,cs),
(103,926,o),
(15,752,o),
(15,465,cs),
(15,122,o),
(140,-26,o),
(426,-26,cs)
);
},
{
closed = 1;
nodes = (
(366,290,o),
(356,298,o),
(356,313,cs),
(356,331,o),
(371,351,o),
(439,357,c),
(425,313,o),
(405,290,o),
(382,290,cs)
);
},
{
closed = 1;
nodes = (
(156,2,o),
(45,134,o),
(45,465,cs),
(45,744,o),
(123,898,o),
(283,898,cs),
(421,898,o),
(466,783,o),
(466,578,cs),
(466,498,o),
(459,434,o),
(448,386,c),
(353,378,o),
(326,344,o),
(326,313,cs),
(326,284,o),
(352,262,o),
(382,262,cs),
(421,262,o),
(450,297,o),
(470,359,c),
(486,359,ls),
(663,359,o),
(738,286,o),
(738,191,cs),
(738,84,o),
(641,2,o),
(426,2,cs)
);
},
{
closed = 1;
nodes = (
(715,424,o),
(762,476,o),
(762,541,cs),
(762,608,o),
(714,656,o),
(649,656,cs),
(582,656,o),
(528,604,o),
(528,533,cs),
(528,470,o),
(574,424,o),
(643,424,cs)
);
},
{
closed = 1;
nodes = (
(590,452,o),
(558,484,o),
(558,533,cs),
(558,590,o),
(596,628,o),
(649,628,cs),
(698,628,o),
(732,594,o),
(732,541,cs),
(732,488,o),
(699,452,o),
(643,452,cs)
);
}
);
width = 780;
},
{
layerId = "F563C7B0-622D-42B3-911E-B48219F56EF3";
shapes = (
{
ref = L;
}
);
width = 780;
},
{
layerId = "18EF3260-CEF7-4699-AE8F-A1FB16D1B078";
shapes = (
{
ref = L;
}
);
width = 780;
},
{
layerId = "F41CCFAE-1054-41CD-BE75-8F05F0A4F59E";
shapes = (
{
closed = 1;
nodes = (
(685,-57,o),
(798,39,o),
(798,161,cs),
(798,214,o),
(776,263,o),
(732,298,c),
(693,348,o),
(620,382,o),
(514,387,c),
(522,433,o),
(526,487,o),
(526,548,cs),
(526,696,o),
(500,807,o),
(430,861,c),
(397,904,o),
(349,927,o),
(283,927,cs),
(103,927,o),
(15,753,o),
(15,465,cs),
(15,267,o),
(56,134,o),
(146,57,c),
(213,-21,o),
(315,-57,o),
(456,-57,cs)
);
},
{
closed = 1;
nodes = (
(366,290,o),
(356,298,o),
(356,313,cs),
(356,331,o),
(371,351,o),
(439,357,c),
(425,313,o),
(405,290,o),
(382,290,cs)
);
},
{
closed = 1;
nodes = (
(156,2,o),
(45,134,o),
(45,465,cs),
(45,744,o),
(123,898,o),
(283,898,cs),
(421,898,o),
(466,783,o),
(466,578,cs),
(466,498,o),
(459,434,o),
(448,386,c),
(353,378,o),
(326,344,o),
(326,313,cs),
(326,284,o),
(352,262,o),
(382,262,cs),
(421,262,o),
(450,297,o),
(470,359,c),
(486,359,ls),
(663,359,o),
(738,286,o),
(738,191,cs),
(738,84,o),
(641,2,o),
(426,2,cs)
);
},
{
closed = 1;
nodes = (
(745,393,o),
(792,445,o),
(792,511,cs),
(792,553,o),
(773,587,o),
(743,607,c),
(736,618,o),
(727,627,o),
(717,634,cs),
(699,649,o),
(675,657,o),
(649,657,cs),
(582,657,o),
(528,604,o),
(528,533,cs),
(528,516,o),
(531,501,o),
(537,487,cs),
(545,469,o),
(558,453,o),
(575,442,c),
(595,412,o),
(630,393,o),
(673,393,cs)
);
},
{
closed = 1;
nodes = (
(590,452,o),
(558,484,o),
(558,533,cs),
(558,590,o),
(596,628,o),
(649,628,cs),
(698,628,o),
(732,594,o),
(732,541,cs),
(732,488,o),
(699,452,o),
(643,452,cs)
);
}
);
width = 780;
}
);
unicode = (319,320);
},
{
color = 6;
glyphname = Lslash;
kernLeft = Eth;
kernRight = L;
lastChange = "2024-09-27 09:10:39 +0000";
layers = (
{
background = {
shapes = (
{
attr = {
strokeHeight = 28;
strokeWidth = 30;
};
closed = 1;
nodes = (
(737,-12,o),
(843,78,o),
(843,191,cs),
(843,292,o),
(759,373,o),
(576,373,cs),
(460,373,o),
(431,340,o),
(431,313,cs),
(431,292,o),
(450,276,o),
(472,276,cs),
(531,276,o),
(571,393,o),
(571,578,cs),
(571,785,o),
(521,912,o),
(373,912,cs),
(204,912,o),
(120,747,o),
(120,465,cs),
(120,129,o),
(239,-12,o),
(516,-12,cs)
);
}
);
};
layerId = m01;
name = Regular;
shapes = (
{
attr = {
strokeHeight = 28;
strokeWidth = 30;
};
closed = 1;
nodes = (
(734,-12,o),
(843,78,o),
(843,192,cs),
(843,292,o),
(759,373,o),
(576,373,cs),
(460,373,o),
(431,340,o),
(431,313,cs),
(431,292,o),
(450,276,o),
(472,276,cs),
(531,276,o),
(571,393,o),
(570,535,c),
(740,605,o),
(772,661,o),
(772,701,cs),
(772,739,o),
(742,766,o),
(689,766,cs),
(630,766,o),
(541,732,o),
(541,701,cs),
(541,695,o),
(545,690,o),
(552,690,cs),
(560,690,o),
(565,697,o),
(565,716,cs),
(565,776,o),
(518,912,o),
(376,912,cs),
(220,912,o),
(155,750,o),
(140,580,c),
(60,539,o),
(27,497,o),
(27,457,cs),
(27,398,o),
(101,388,o),
(129,388,cs),
(159,388,o),
(159,400,o),
(154,405,cs),
(149,410,o),
(138,409,o),
(138,394,cs),
(138,144,o),
(248,-12,o),
(524,-12,cs)
);
}
);
width = 870;
},
{
background = {
shapes = (
{
attr = {
strokeHeight = 28;
strokeWidth = 30;
};
closed = 1;
nodes = (
(737,-12,o),
(843,78,o),
(843,191,cs),
(843,292,o),
(759,373,o),
(576,373,cs),
(460,373,o),
(431,340,o),
(431,313,cs),
(431,292,o),
(450,276,o),
(472,276,cs),
(531,276,o),
(571,393,o),
(571,578,cs),
(571,785,o),
(521,912,o),
(373,912,cs),
(204,912,o),
(120,747,o),
(120,465,cs),
(120,129,o),
(239,-12,o),
(516,-12,cs)
);
}
);
};
layerId = "AA01E2DD-0766-4133-B890-CA2A0BF1A57D";
name = Regular;
shapes = (
{
closed = 1;
nodes = (
(734,-12,o),
(843,78,o),
(843,192,cs),
(843,292,o),
(759,373,o),
(576,373,cs),
(567,373,o),
(558,373,o),
(550,372,c),
(563,417,o),
(570,474,o),
(570,535,c),
(740,605,o),
(772,661,o),
(772,701,cs),
(772,739,o),
(742,766,o),
(689,766,cs),
(649,766,o),
(595,750,o),
(564,730,c),
(558,795,o),
(508,912,o),
(376,912,cs),
(220,912,o),
(155,750,o),
(140,580,c),
(60,539,o),
(27,497,o),
(27,457,cs),
(27,398,o),
(101,388,o),
(129,388,cs),
(138,388,l),
(140,142,o),
(250,-12,o),
(524,-12,cs)
);
}
);
width = 870;
},
{
background = {
shapes = (
{
attr = {
strokeHeight = 28;
strokeWidth = 30;
};
closed = 1;
nodes = (
(737,-12,o),
(843,78,o),
(843,191,cs),
(843,292,o),
(759,373,o),
(576,373,cs),
(460,373,o),
(431,340,o),
(431,313,cs),
(431,292,o),
(450,276,o),
(472,276,cs),
(531,276,o),
(571,393,o),
(571,578,cs),
(571,785,o),
(521,912,o),
(373,912,cs),
(204,912,o),
(120,747,o),
(120,465,cs),
(120,129,o),
(239,-12,o),
(516,-12,cs)
);
}
);
};
layerId = "18EF3260-CEF7-4699-AE8F-A1FB16D1B078";
name = Regular;
shapes = (
{
attr = {
lineCapEnd = 1;
lineCapStart = 1;
strokeHeight = 28;
strokeWidth = 28;
};
closed = 0;
nodes = (
(324,843,l),
(314,840,o),
(306,835,o),
(297,828,c)
);
},
{
attr = {
lineCapEnd = 1;
lineCapStart = 1;
strokeHeight = 28;
strokeWidth = 28;
};
closed = 0;
nodes = (
(263,794,l),
(244,767,o),
(229,732,o),
(218,692,cs)
);
}
);
width = 870;
},
{
background = {
shapes = (
{
attr = {
strokeHeight = 28;
strokeWidth = 30;
};
closed = 1;
nodes = (
(737,-12,o),
(843,78,o),
(843,191,cs),
(843,292,o),
(759,373,o),
(576,373,cs),
(460,373,o),
(431,340,o),
(431,313,cs),
(431,292,o),
(450,276,o),
(472,276,cs),
(531,276,o),
(571,393,o),
(571,578,cs),
(571,785,o),
(521,912,o),
(373,912,cs),
(204,912,o),
(120,747,o),
(120,465,cs),
(120,129,o),
(239,-12,o),
(516,-12,cs)
);
}
);
};
layerId = "F563C7B0-622D-42B3-911E-B48219F56EF3";
name = Regular;
shapes = (
{
attr = {
lineCapEnd = 1;
lineCapStart = 1;
strokeHeight = 28;
strokeWidth = 28;
};
closed = 0;
nodes = (
(324,843,l),
(314,840,o),
(306,835,o),
(297,828,c)
);
},
{
attr = {
lineCapEnd = 1;
lineCapStart = 1;
strokeHeight = 28;
strokeWidth = 28;
};
closed = 0;
nodes = (
(263,794,l),
(244,767,o),
(229,732,o),
(218,692,cs)
);
}
);
width = 870;
},
{
background = {
shapes = (
{
attr = {
strokeHeight = 28;
strokeWidth = 30;
};
closed = 1;
nodes = (
(737,-12,o),
(843,78,o),
(843,191,cs),
(843,292,o),
(759,373,o),
(576,373,cs),
(460,373,o),
(431,340,o),
(431,313,cs),
(431,292,o),
(450,276,o),
(472,276,cs),
(531,276,o),
(571,393,o),
(571,578,cs),
(571,785,o),
(521,912,o),
(373,912,cs),
(204,912,o),
(120,747,o),
(120,465,cs),
(120,129,o),
(239,-12,o),
(516,-12,cs)
);
}
);
};
layerId = "F41CCFAE-1054-41CD-BE75-8F05F0A4F59E";
name = Regular;
shapes = (
{
closed = 1;
nodes = (
(772,-57,o),
(888,39,o),
(888,162,cs),
(888,215,o),
(866,263,o),
(822,298,c),
(783,348,o),
(712,382,o),
(606,387,c),
(612,420,o),
(615,457,o),
(615,495,c),
(784,566,o),
(817,625,o),
(817,671,cs),
(817,700,o),
(803,723,o),
(778,737,c),
(777,738,o),
(777,740,o),
(776,741,c),
(761,766,o),
(730,781,o),
(689,781,cs),
(661,781,o),
(625,774,o),
(594,762,c),
(581,795,o),
(560,830,o),
(528,856,c),
(495,896,o),
(447,927,o),
(376,927,cs),
(274,927,o),
(209,863,o),
(170,774,cs),
(149,726,o),
(136,670,o),
(129,613,cs),
(126,590,l),
(84,567,o),
(54,543,o),
(35,519,cs),
(19,499,o),
(12,478,o),
(12,457,cs),
(12,425,o),
(29,405,o),
(50,392,c),
(65,365,o),
(97,352,o),
(124,347,c),
(127,312,ls),
(133,261,o),
(144,215,o),
(162,174,cs),
(181,129,o),
(209,90,o),
(245,59,c),
(309,-15,o),
(410,-57,o),
(554,-57,cs)
);
},
{
closed = 1;
nodes = (
(456,290,o),
(446,298,o),
(446,313,cs),
(446,332,o),
(461,352,o),
(531,357,c),
(516,315,o),
(496,290,o),
(472,290,cs)
);
},
{
closed = 1;
nodes = (
(262,2,o),
(158,142,o),
(153,378,c),
(175,385,o),
(175,404,o),
(165,415,cs),
(152,427,o),
(129,423,o),
(124,402,c),
(95,403,o),
(42,413,o),
(42,457,cs),
(42,494,o),
(72,531,o),
(154,571,c),
(168,742,o),
(228,898,o),
(376,898,cs),
(493,898,o),
(540,799,o),
(548,737,c),
(535,726,o),
(526,714,o),
(526,701,cs),
(526,687,o),
(537,676,o),
(552,676,cs),
(566,676,o),
(580,685,o),
(580,716,cs),
(580,725,l),
(607,739,o),
(652,752,o),
(689,752,cs),
(736,752,o),
(757,733,o),
(757,701,cs),
(757,664,o),
(728,614,o),
(555,544,c),
(556,483,o),
(550,429,o),
(539,386,c),
(443,379,o),
(416,344,o),
(416,313,cs),
(416,284,o),
(442,262,o),
(472,262,cs),
(512,262,o),
(542,300,o),
(562,359,c),
(576,359,ls),
(753,359,o),
(828,286,o),
(828,192,cs),
(828,84,o),
(728,2,o),
(524,2,cs)
);
}
);
width = 870;
},
{
background = {
shapes = (
{
attr = {
strokeHeight = 28;
strokeWidth = 30;
};
closed = 1;
nodes = (
(737,-12,o),
(843,78,o),
(843,191,cs),
(843,292,o),
(759,373,o),
(576,373,cs),
(460,373,o),
(431,340,o),
(431,313,cs),
(431,292,o),
(450,276,o),
(472,276,cs),
(531,276,o),
(571,393,o),
(571,578,cs),
(571,785,o),
(521,912,o),
(373,912,cs),
(204,912,o),
(120,747,o),
(120,465,cs),
(120,129,o),
(239,-12,o),
(516,-12,cs)
);
}
);
};
layerId = "9609D89D-5179-4910-93A4-3439D6828341";
name = Regular;
shapes = (
{
closed = 1;
nodes = (
(742,-26,o),
(858,70,o),
(858,192,cs),
(858,300,o),
(767,387,o),
(576,387,cs),
(570,387,l),
(579,428,o),
(585,475,o),
(585,526,c),
(754,597,o),
(787,656,o),
(787,701,cs),
(787,747,o),
(750,780,o),
(689,780,cs),
(655,780,o),
(610,770,o),
(576,753,c),
(561,824,o),
(504,926,o),
(376,926,cs),
(211,926,o),
(142,759,o),
(126,589,c),
(46,546,o),
(12,502,o),
(12,457,cs),
(12,389,o),
(89,376,o),
(123,374,c),
(129,129,o),
(245,-26,o),
(524,-26,cs)
);
},
{
closed = 1;
nodes = (
(456,290,o),
(446,298,o),
(446,313,cs),
(446,332,o),
(461,352,o),
(531,357,c),
(516,315,o),
(496,290,o),
(472,290,cs)
);
},
{
closed = 1;
nodes = (
(262,2,o),
(158,142,o),
(153,378,c),
(175,385,o),
(175,404,o),
(165,415,cs),
(152,427,o),
(129,423,o),
(124,402,c),
(95,403,o),
(42,413,o),
(42,457,cs),
(42,494,o),
(72,531,o),
(154,571,c),
(168,742,o),
(228,898,o),
(376,898,cs),
(493,898,o),
(540,799,o),
(548,737,c),
(535,726,o),
(526,714,o),
(526,701,cs),
(526,687,o),
(537,676,o),
(552,676,cs),
(566,676,o),
(580,685,o),
(580,716,cs),
(580,725,l),
(607,739,o),
(652,752,o),
(689,752,cs),
(736,752,o),
(757,733,o),
(757,701,cs),
(757,664,o),
(728,614,o),
(555,544,c),
(556,483,o),
(550,429,o),
(539,386,c),
(443,379,o),
(416,344,o),
(416,313,cs),
(416,284,o),
(442,262,o),
(472,262,cs),
(512,262,o),
(542,300,o),
(562,359,c),
(576,359,ls),
(753,359,o),
(828,286,o),
(828,192,cs),
(828,84,o),
(728,2,o),
(524,2,cs)
);
}
);
width = 870;
},
{
background = {
shapes = (
{
attr = {
strokeHeight = 28;
strokeWidth = 30;
};
closed = 1;
nodes = (
(737,-12,o),
(843,78,o),
(843,191,cs),
(843,292,o),
(759,373,o),
(576,373,cs),
(460,373,o),
(431,340,o),
(431,313,cs),
(431,292,o),
(450,276,o),
(472,276,cs),
(531,276,o),
(571,393,o),
(571,578,cs),
(571,785,o),
(521,912,o),
(373,912,cs),
(204,912,o),
(120,747,o),
(120,465,cs),
(120,129,o),
(239,-12,o),
(516,-12,cs)
);
}
);
};
layerId = m006;
name = Regular;
shapes = (
{
closed = 1;
nodes = (
(728,2,o),
(828,84,o),
(828,192,cs),
(828,286,o),
(753,359,o),
(576,359,cs),
(562,359,l),
(542,300,o),
(512,262,o),
(472,262,cs),
(442,262,o),
(416,284,o),
(416,313,cs),
(416,344,o),
(443,379,o),
(539,386,c),
(550,429,o),
(556,483,o),
(555,544,c),
(728,614,o),
(757,664,o),
(757,701,cs),
(757,733,o),
(736,752,o),
(689,752,cs),
(652,752,o),
(607,739,o),
(580,725,c),
(580,716,ls),
(580,685,o),
(566,676,o),
(552,676,cs),
(537,676,o),
(526,687,o),
(526,701,cs),
(526,714,o),
(535,726,o),
(548,737,c),
(540,799,o),
(493,898,o),
(376,898,cs),
(228,898,o),
(168,742,o),
(154,571,c),
(72,531,o),
(42,494,o),
(42,457,cs),
(42,413,o),
(95,403,o),
(124,402,c),
(129,423,o),
(152,427,o),
(165,415,cs),
(175,404,o),
(175,385,o),
(153,378,c),
(158,142,o),
(262,2,o),
(524,2,cs)
);
},
{
closed = 1;
nodes = (
(496,290,o),
(516,315,o),
(531,357,c),
(461,352,o),
(446,332,o),
(446,313,cs),
(446,298,o),
(456,290,o),
(472,290,cs)
);
}
);
width = 870;
}
);
unicode = (321,322);
},
{
color = 6;
glyphname = M;
kernLeft = M;
kernRight = M;
lastChange = "2024-09-27 09:10:39 +0000";
layers = (
{
layerId = m01;
name = Regular;
shapes = (
{
attr = {
strokeHeight = 28;
strokeWidth = 30;
};
closed = 1;
nodes = (
(1266,-18,o),
(1320,139,o),
(1320,368,cs),
(1320,667,o),
(1228,910,o),
(1017,910,cs),
(792,910,o),
(676,633,o),
(676,557,cs),
(676,543,o),
(680,526,o),
(688,526,cs),
(696,526,o),
(700,545,o),
(700,562,cs),
(700,647,o),
(606,900,o),
(381,900,cs),
(164,900,o),
(30,665,o),
(30,362,cs),
(30,158,o),
(91,-8,o),
(237,-8,cs),
(411,-8,o),
(467,230,o),
(467,346,cs),
(467,395,o),
(456,417,o),
(440,417,cs),
(424,417,o),
(413,395,o),
(413,347,cs),
(413,197,o),
(518,6,o),
(682,6,cs),
(852,6,o),
(952,211,o),
(952,374,cs),
(952,433,o),
(939,454,o),
(921,454,cs),
(901,454,o),
(888,430,o),
(888,371,cs),
(888,240,o),
(951,-18,o),
(1128,-18,cs)
);
}
);
width = 1350;
},
{
layerId = "AA01E2DD-0766-4133-B890-CA2A0BF1A57D";
name = Regular;
shapes = (
{
closed = 1;
nodes = (
(1266,-18,o),
(1320,139,o),
(1320,368,cs),
(1320,667,o),
(1228,910,o),
(1017,910,cs),
(837,910,o),
(727,734,o),
(690,624,c),
(661,732,o),
(564,900,o),
(381,900,cs),
(164,900,o),
(30,665,o),
(30,362,cs),
(30,158,o),
(91,-8,o),
(237,-8,cs),
(351,-8,o),
(414,94,o),
(444,197,c),
(487,94,o),
(571,6,o),
(682,6,cs),
(792,6,o),
(872,91,o),
(916,196,c),
(949,86,o),
(1016,-18,o),
(1128,-18,cs)
);
}
);
width = 1350;
},
{
layerId = "18EF3260-CEF7-4699-AE8F-A1FB16D1B078";
name = Regular;
shapes = (
{
attr = {
lineCapEnd = "1";
lineCapStart = "1";
strokeHeight = 28;
strokeWidth = 28;
};
closed = 0;
nodes = (
(149,674,l),
(170,719,o),
(197,756,o),
(229,783,c)
);
},
{
attr = {
lineCapEnd = "1";
lineCapStart = "1";
strokeHeight = 28;
strokeWidth = 28;
};
closed = 0;
nodes = (
(274,815,l),
(282,819,o),
(291,823,o),
(300,826,cs)
);
},
{
attr = {
lineCapEnd = "1";
lineCapStart = "1";
strokeHeight = 28;
strokeWidth = 28;
};
closed = 0;
nodes = (
(806,726,l),
(828,757,o),
(855,785,o),
(887,808,cs)
);
}
);
width = 1350;
},
{
layerId = "F563C7B0-622D-42B3-911E-B48219F56EF3";
name = Regular;
shapes = (
{
attr = {
lineCapEnd = "1";
lineCapStart = "1";
strokeHeight = 28;
strokeWidth = 28;
};
closed = 0;
nodes = (
(149,674,l),
(170,719,o),
(197,756,o),
(229,783,c)
);
},
{
attr = {
lineCapEnd = "1";
lineCapStart = "1";
strokeHeight = 28;
strokeWidth = 28;
};
closed = 0;
nodes = (
(274,815,l),
(282,819,o),
(291,823,o),
(300,826,cs)
);
},
{
attr = {
lineCapEnd = "1";
lineCapStart = "1";
strokeHeight = 28;
strokeWidth = 28;
};
closed = 0;
nodes = (
(806,726,l),
(828,757,o),
(855,785,o),
(887,808,cs)
);
}
);
width = 1350;
},
{
layerId = "F41CCFAE-1054-41CD-BE75-8F05F0A4F59E";
name = Regular;
shapes = (
{
closed = 1;
nodes = (
(1308,-63,o),
(1365,104,o),
(1365,338,cs),
(1365,554,o),
(1317,744,o),
(1210,836,c),
(1161,892,o),
(1097,925,o),
(1017,925,cs),
(870,925,o),
(768,813,o),
(712,710,cs),
(707,702,o),
(704,695,o),
(700,687,c),
(678,730,o),
(647,774,o),
(607,809,c),
(554,869,o),
(479,915,o),
(381,915,cs),
(153,915,o),
(15,671,o),
(15,362,cs),
(15,241,o),
(36,133,o),
(84,62,cs),
(97,43,o),
(111,27,o),
(127,14,c),
(161,-28,o),
(208,-53,o),
(267,-53,cs),
(371,-53,o),
(436,25,o),
(472,114,c),
(488,91,o),
(506,70,o),
(527,52,c),
(574,-2,o),
(637,-39,o),
(712,-39,cs),
(810,-39,o),
(886,24,o),
(934,109,c),
(940,96,o),
(948,83,o),
(955,72,cs),
(971,48,o),
(988,28,o),
(1008,11,c),
(1046,-33,o),
(1095,-63,o),
(1158,-63,cs)
);
},
{
closed = 1;
nodes = (
(433,281,o),
(428,315,o),
(428,347,cs),
(428,392,o),
(434,403,o),
(440,403,cs),
(446,403,o),
(452,392,o),
(452,346,cs),
(452,318,o),
(449,284,o),
(442,248,c)
);
},
{
closed = 1;
nodes = (
(1025,-4,o),
(963,91,o),
(931,194,c),
(955,253,o),
(967,316,o),
(967,374,cs),
(967,446,o),
(947,468,o),
(921,468,cs),
(893,468,o),
(873,442,o),
(873,371,cs),
(873,324,o),
(881,259,o),
(900,195,c),
(859,98,o),
(783,20,o),
(682,20,cs),
(579,20,o),
(501,100,o),
(460,196,c),
(475,251,o),
(482,306,o),
(482,346,cs),
(482,407,o),
(465,431,o),
(440,431,cs),
(415,431,o),
(398,407,o),
(398,347,cs),
(398,298,o),
(409,245,o),
(429,195,c),
(400,99,o),
(341,6,o),
(237,6,cs),
(102,6,o),
(45,160,o),
(45,362,cs),
(45,662,o),
(173,886,o),
(381,886,cs),
(554,886,o),
(646,729,o),
(675,624,c),
(666,597,o),
(661,573,o),
(661,557,cs),
(661,533,o),
(670,512,o),
(688,512,cs),
(708,512,o),
(715,535,o),
(715,562,cs),
(715,578,o),
(712,599,o),
(705,624,c),
(742,730,o),
(847,896,o),
(1017,896,cs),
(1217,896,o),
(1305,665,o),
(1305,368,cs),
(1305,141,o),
(1255,-4,o),
(1128,-4,cs)
);
},
{
closed = 1;
nodes = (
(908,290,o),
(903,335,o),
(903,371,cs),
(903,427,o),
(910,440,o),
(921,440,cs),
(930,440,o),
(937,429,o),
(937,374,cs),
(937,332,o),
(930,287,o),
(918,244,c)
);
}
);
width = 1350;
},
{
layerId = "9609D89D-5179-4910-93A4-3439D6828341";
name = Regular;
shapes = (
{
closed = 1;
nodes = (
(1278,-32,o),
(1335,134,o),
(1335,368,cs),
(1335,672,o),
(1240,924,o),
(1017,924,cs),
(849,924,o),
(741,780,o),
(691,668,c),
(650,777,o),
(551,914,o),
(381,914,cs),
(153,914,o),
(15,670,o),
(15,362,cs),
(15,152,o),
(79,-22,o),
(237,-22,cs),
(346,-22,o),
(411,63,o),
(447,157,c),
(495,65,o),
(576,-8,o),
(682,-8,cs),
(787,-8,o),
(866,63,o),
(913,156,c),
(951,56,o),
(1019,-32,o),
(1128,-32,cs)
);
},
{
closed = 1;
nodes = (
(433,281,o),
(428,315,o),
(428,347,cs),
(428,392,o),
(434,403,o),
(440,403,cs),
(446,403,o),
(452,392,o),
(452,346,cs),
(452,318,o),
(449,284,o),
(442,248,c)
);
},
{
closed = 1;
nodes = (
(1025,-4,o),
(963,91,o),
(931,194,c),
(955,253,o),
(967,316,o),
(967,374,cs),
(967,446,o),
(947,468,o),
(921,468,cs),
(893,468,o),
(873,442,o),
(873,371,cs),
(873,324,o),
(881,259,o),
(900,195,c),
(859,98,o),
(783,20,o),
(682,20,cs),
(579,20,o),
(501,100,o),
(460,196,c),
(475,251,o),
(482,306,o),
(482,346,cs),
(482,407,o),
(465,431,o),
(440,431,cs),
(415,431,o),
(398,407,o),
(398,347,cs),
(398,298,o),
(409,245,o),
(429,195,c),
(400,99,o),
(341,6,o),
(237,6,cs),
(102,6,o),
(45,160,o),
(45,362,cs),
(45,662,o),
(173,886,o),
(381,886,cs),
(554,886,o),
(646,729,o),
(675,624,c),
(666,597,o),
(661,573,o),
(661,557,cs),
(661,533,o),
(670,512,o),
(688,512,cs),
(708,512,o),
(715,535,o),
(715,562,cs),
(715,578,o),
(712,599,o),
(705,624,c),
(742,730,o),
(847,896,o),
(1017,896,cs),
(1217,896,o),
(1305,665,o),
(1305,368,cs),
(1305,141,o),
(1255,-4,o),
(1128,-4,cs)
);
},
{
closed = 1;
nodes = (
(908,290,o),
(903,335,o),
(903,371,cs),
(903,427,o),
(910,440,o),
(921,440,cs),
(930,440,o),
(937,429,o),
(937,374,cs),
(937,332,o),
(930,287,o),
(918,244,c)
);
}
);
width = 1350;
},
{
layerId = m006;
name = Regular;
shapes = (
{
closed = 1;
nodes = (
(1255,-4,o),
(1305,141,o),
(1305,368,cs),
(1305,665,o),
(1217,896,o),
(1017,896,cs),
(847,896,o),
(742,730,o),
(705,624,c),
(712,599,o),
(715,578,o),
(715,562,cs),
(715,535,o),
(708,512,o),
(688,512,cs),
(670,512,o),
(661,533,o),
(661,557,cs),
(661,573,o),
(666,597,o),
(675,624,c),
(646,729,o),
(554,886,o),
(381,886,cs),
(173,886,o),
(45,662,o),
(45,362,cs),
(45,160,o),
(102,6,o),
(237,6,cs),
(341,6,o),
(400,99,o),
(429,195,c),
(409,245,o),
(398,298,o),
(398,347,cs),
(398,407,o),
(415,431,o),
(440,431,cs),
(465,431,o),
(482,407,o),
(482,346,cs),
(482,306,o),
(475,251,o),
(460,196,c),
(501,100,o),
(579,20,o),
(682,20,cs),
(783,20,o),
(859,98,o),
(900,195,c),
(881,259,o),
(873,324,o),
(873,371,cs),
(873,442,o),
(893,468,o),
(921,468,cs),
(947,468,o),
(967,446,o),
(967,374,cs),
(967,316,o),
(955,253,o),
(931,194,c),
(963,91,o),
(1025,-4,o),
(1128,-4,cs)
);
},
{
closed = 1;
nodes = (
(449,284,o),
(452,318,o),
(452,346,cs),
(452,392,o),
(446,403,o),
(440,403,cs),
(434,403,o),
(428,392,o),
(428,347,cs),
(428,315,o),
(433,281,o),
(442,248,c)
);
},
{
closed = 1;
nodes = (
(930,287,o),
(937,332,o),
(937,374,cs),
(937,429,o),
(930,440,o),
(921,440,cs),
(910,440,o),
(903,427,o),
(903,371,cs),
(903,335,o),
(908,290,o),
(918,244,c)
);
}
);
width = 1350;
}
);
unicode = (77,109);
},
{
color = 6;
glyphname = N;
kernLeft = A;
kernRight = N;
lastChange = "2024-09-27 09:10:39 +0000";
layers = (
{
anchors = (
{
name = bottom;
pos = (600,0);
},
{
name = top;
pos = (600,900);
}
);
layerId = m01;
name = Regular;
shapes = (
{
attr = {
strokeHeight = 28;
strokeWidth = 30;
};
closed = 1;
nodes = (
(1056,-18,o),
(1170,305,o),
(1170,567,cs),
(1170,784,o),
(1092,918,o),
(975,918,cs),
(838,918,o),
(747,737,o),
(747,507,cs),
(747,431,o),
(757,396,o),
(779,396,cs),
(796,396,o),
(806,416,o),
(806,455,cs),
(806,605,o),
(657,866,o),
(414,866,cs),
(191,866,o),
(30,649,o),
(30,351,cs),
(30,144,o),
(108,24,o),
(229,24,cs),
(395,24,o),
(448,252,o),
(448,367,cs),
(448,425,o),
(434,455,o),
(412,455,cs),
(395,455,o),
(384,436,o),
(384,402,cs),
(384,281,o),
(516,-18,o),
(780,-18,cs)
);
}
);
width = 1200;
},
{
anchors = (
{
name = bottom;
pos = (600,0);
},
{
name = top;
pos = (600,900);
}
);
layerId = "AA01E2DD-0766-4133-B890-CA2A0BF1A57D";
name = Regular;
shapes = (
{
closed = 1;
nodes = (
(1056,-18,o),
(1170,305,o),
(1170,567,cs),
(1170,784,o),
(1092,918,o),
(975,918,cs),
(864,918,o),
(783,799,o),
(757,632,c),
(694,752,o),
(574,866,o),
(414,866,cs),
(191,866,o),
(30,649,o),
(30,351,cs),
(30,144,o),
(108,24,o),
(229,24,cs),
(342,24,o),
(403,131,o),
(430,235,c),
(490,112,o),
(606,-18,o),
(780,-18,cs)
);
}
);
width = 1200;
},
{
anchors = (
{
name = bottom;
pos = (600,0);
},
{
name = top;
pos = (600,900);
}
);
layerId = "18EF3260-CEF7-4699-AE8F-A1FB16D1B078";
name = Regular;
shapes = (
{
attr = {
lineCapEnd = 1;
lineCapStart = 1;
strokeWidth = 28;
};
closed = 0;
nodes = (
(236,743,l),
(198,713,o),
(167,671,o),
(143,619,c)
);
},
{
attr = {
lineCapEnd = 1;
lineCapStart = 1;
strokeWidth = 28;
};
closed = 0;
nodes = (
(317,789,l),
(305,785,o),
(294,779,o),
(282,773,c)
);
},
{
attr = {
lineCapEnd = 1;
lineCapStart = 1;
strokeWidth = 28;
};
closed = 0;
nodes = (
(927,846,l),
(890,828,o),
(860,787,o),
(839,728,cs)
);
}
);
width = 1200;
},
{
anchors = (
{
name = bottom;
pos = (600,0);
},
{
name = top;
pos = (600,900);
}
);
layerId = "F563C7B0-622D-42B3-911E-B48219F56EF3";
name = Regular;
shapes = (
{
attr = {
lineCapEnd = 1;
lineCapStart = 1;
strokeWidth = 28;
};
closed = 0;
nodes = (
(236,743,l),
(198,713,o),
(167,671,o),
(143,619,c)
);
},
{
attr = {
lineCapEnd = 1;
lineCapStart = 1;
strokeWidth = 28;
};
closed = 0;
nodes = (
(317,789,l),
(305,785,o),
(294,779,o),
(282,773,c)
);
},
{
attr = {
lineCapEnd = 1;
lineCapStart = 1;
strokeWidth = 28;
};
closed = 0;
nodes = (
(927,846,l),
(890,828,o),
(860,787,o),
(839,728,cs)
);
}
);
width = 1200;
},
{
anchors = (
{
name = bottom;
pos = (600,0);
},
{
name = top;
pos = (600,900);
}
);
layerId = "F41CCFAE-1054-41CD-BE75-8F05F0A4F59E";
name = Regular;
shapes = (
{
closed = 1;
nodes = (
(1098,-63,o),
(1215,270,o),
(1215,537,cs),
(1215,695,o),
(1174,812,o),
(1105,868,c),
(1070,910,o),
(1026,933,o),
(975,933,cs),
(909,933,o),
(854,895,o),
(813,833,cs),
(786,793,o),
(766,743,o),
(752,685,c),
(734,708,o),
(714,730,o),
(692,750,c),
(624,825,o),
(529,881,o),
(414,881,cs),
(181,881,o),
(15,656,o),
(15,351,cs),
(15,206,o),
(53,100,o),
(119,47,c),
(155,3,o),
(203,-21,o),
(259,-21,cs),
(364,-21,o),
(426,61,o),
(460,153,c),
(474,132,o),
(491,111,o),
(509,91,c),
(512,89,o),
(514,86,o),
(517,84,c),
(523,77,o),
(529,71,o),
(536,65,c),
(602,-8,o),
(694,-63,o),
(810,-63,cs)
);
},
{
closed = 1;
nodes = (
(408,328,o),
(399,371,o),
(399,402,cs),
(399,432,o),
(404,441,o),
(412,441,cs),
(424,441,o),
(433,422,o),
(433,367,cs),
(433,342,o),
(431,313,o),
(425,282,c)
);
},
{
closed = 1;
nodes = (
(615,-4,o),
(503,118,o),
(446,235,c),
(458,284,o),
(463,331,o),
(463,367,cs),
(463,437,o),
(443,469,o),
(412,469,cs),
(387,469,o),
(369,446,o),
(369,402,cs),
(369,360,o),
(384,297,o),
(415,233,c),
(389,135,o),
(332,38,o),
(229,38,cs),
(116,38,o),
(45,148,o),
(45,351,cs),
(45,645,o),
(199,852,o),
(414,852,cs),
(567,852,o),
(680,745,o),
(741,631,c),
(735,592,o),
(732,550,o),
(732,507,cs),
(732,418,o),
(746,382,o),
(779,382,cs),
(804,382,o),
(821,405,o),
(821,455,cs),
(821,507,o),
(804,571,o),
(772,634,c),
(798,795,o),
(873,904,o),
(975,904,cs),
(1083,904,o),
(1155,780,o),
(1155,567,cs),
(1155,307,o),
(1045,-4,o),
(780,-4,cs)
);
},
{
closed = 1;
nodes = (
(769,410,o),
(762,433,o),
(762,507,cs),
(762,532,o),
(763,556,o),
(765,579,c),
(782,535,o),
(791,492,o),
(791,455,cs),
(791,419,o),
(786,410,o),
(779,410,cs)
);
}
);
width = 1200;
},
{
anchors = (
{
name = bottom;
pos = (600,0);
},
{
name = top;
pos = (600,900);
}
);
layerId = "9609D89D-5179-4910-93A4-3439D6828341";
name = Regular;
shapes = (
{
closed = 1;
nodes = (
(1068,-32,o),
(1185,301,o),
(1185,567,cs),
(1185,790,o),
(1103,932,o),
(975,932,cs),
(864,932,o),
(783,826,o),
(749,674,c),
(681,784,o),
(565,880,o),
(414,880,cs),
(181,880,o),
(15,655,o),
(15,351,cs),
(15,138,o),
(97,10,o),
(229,10,cs),
(339,10,o),
(402,99,o),
(434,196,c),
(499,79,o),
(614,-32,o),
(780,-32,cs)
);
},
{
closed = 1;
nodes = (
(408,328,o),
(399,371,o),
(399,402,cs),
(399,432,o),
(404,441,o),
(412,441,cs),
(424,441,o),
(433,422,o),
(433,367,cs),
(433,342,o),
(431,313,o),
(425,282,c)
);
},
{
closed = 1;
nodes = (
(615,-4,o),
(503,118,o),
(446,235,c),
(458,284,o),
(463,331,o),
(463,367,cs),
(463,437,o),
(443,469,o),
(412,469,cs),
(387,469,o),
(369,446,o),
(369,402,cs),
(369,360,o),
(384,297,o),
(415,233,c),
(389,135,o),
(332,38,o),
(229,38,cs),
(116,38,o),
(45,148,o),
(45,351,cs),
(45,645,o),
(199,852,o),
(414,852,cs),
(567,852,o),
(680,745,o),
(741,631,c),
(735,592,o),
(732,550,o),
(732,507,cs),
(732,418,o),
(746,382,o),
(779,382,cs),
(804,382,o),
(821,405,o),
(821,455,cs),
(821,507,o),
(804,571,o),
(772,634,c),
(798,795,o),
(873,904,o),
(975,904,cs),
(1083,904,o),
(1155,780,o),
(1155,567,cs),
(1155,307,o),
(1045,-4,o),
(780,-4,cs)
);
},
{
closed = 1;
nodes = (
(769,410,o),
(762,433,o),
(762,507,cs),
(762,532,o),
(763,556,o),
(765,579,c),
(782,535,o),
(791,492,o),
(791,455,cs),
(791,419,o),
(786,410,o),
(779,410,cs)
);
}
);
width = 1200;
},
{
anchors = (
{
name = bottom;
pos = (600,0);
},
{
name = top;
pos = (600,900);
}
);
layerId = m006;
name = Regular;
shapes = (
{
closed = 1;
nodes = (
(1045,-4,o),
(1155,307,o),
(1155,567,cs),
(1155,780,o),
(1083,904,o),
(975,904,cs),
(873,904,o),
(798,795,o),
(772,634,c),
(804,571,o),
(821,507,o),
(821,455,cs),
(821,405,o),
(804,382,o),
(779,382,cs),
(746,382,o),
(732,418,o),
(732,507,cs),
(732,550,o),
(735,592,o),
(741,631,c),
(680,745,o),
(567,852,o),
(414,852,cs),
(199,852,o),
(45,645,o),
(45,351,cs),
(45,148,o),
(116,38,o),
(229,38,cs),
(332,38,o),
(389,135,o),
(415,233,c),
(384,297,o),
(369,360,o),
(369,402,cs),
(369,446,o),
(387,469,o),
(412,469,cs),
(443,469,o),
(463,437,o),
(463,367,cs),
(463,331,o),
(458,284,o),
(446,235,c),
(503,118,o),
(615,-4,o),
(780,-4,cs)
);
},
{
closed = 1;
nodes = (
(431,313,o),
(433,342,o),
(433,367,cs),
(433,422,o),
(424,441,o),
(412,441,cs),
(404,441,o),
(399,432,o),
(399,402,cs),
(399,371,o),
(408,328,o),
(425,282,c)
);
},
{
closed = 1;
nodes = (
(786,410,o),
(791,419,o),
(791,455,cs),
(791,492,o),
(782,535,o),
(765,579,c),
(763,556,o),
(762,532,o),
(762,507,cs),
(762,433,o),
(769,410,o),
(779,410,cs)
);
}
);
width = 1200;
}
);
unicode = (78,110);
},
{
color = 6;
glyphname = Eng;
kernLeft = A;
kernRight = N;
lastChange = "2024-09-27 09:10:39 +0000";
layers = (
{
layerId = "AA01E2DD-0766-4133-B890-CA2A0BF1A57D";
shapes = (
{
closed = 1;
nodes = (
(955,-255,o),
(1170,48,o),
(1170,493,cs),
(1170,761,o),
(1092,918,o),
(971,918,cs),
(862,918,o),
(778,791,o),
(754,617,c),
(687,739,o),
(559,866,o),
(401,866,cs),
(191,866,o),
(30,642,o),
(30,349,cs),
(30,145,o),
(108,24,o),
(229,24,cs),
(343,24,o),
(403,131,o),
(430,235,c),
(487,131,o),
(592,35,o),
(728,18,c),
(668,-17,o),
(615,-92,o),
(615,-154,cs),
(615,-216,o),
(667,-255,o),
(745,-255,cs)
);
}
);
width = 1200;
},
{
layerId = m006;
shapes = (
{
closed = 1;
nodes = (
(947,-241,o),
(1155,52,o),
(1155,493,cs),
(1155,758,o),
(1082,904,o),
(971,904,cs),
(871,904,o),
(793,787,o),
(769,620,c),
(803,559,o),
(821,498,o),
(821,455,cs),
(821,415,o),
(804,392,o),
(779,392,cs),
(745,392,o),
(732,430,o),
(732,512,cs),
(732,548,o),
(734,583,o),
(739,616,c),
(673,733,o),
(551,852,o),
(401,852,cs),
(199,852,o),
(45,638,o),
(45,349,cs),
(45,149,o),
(116,38,o),
(229,38,cs),
(332,38,o),
(389,135,o),
(415,233,c),
(385,289,o),
(369,347,o),
(369,397,cs),
(369,448,o),
(386,469,o),
(412,469,cs),
(443,469,o),
(463,438,o),
(463,367,cs),
(463,331,o),
(458,284,o),
(446,236,c),
(500,138,o),
(598,50,o),
(724,32,c),
(747,45,o),
(770,52,o),
(792,52,cs),
(817,52,o),
(831,42,o),
(831,27,cs),
(831,9,o),
(813,1,o),
(771,1,cs),
(757,1,o),
(743,2,o),
(730,3,c),
(677,-30,o),
(630,-97,o),
(630,-154,cs),
(630,-209,o),
(672,-241,o),
(745,-241,cs)
);
},
{
closed = 1;
nodes = (
(430,311,o),
(433,342,o),
(433,367,cs),
(433,423,o),
(424,441,o),
(412,441,cs),
(403,441,o),
(399,433,o),
(399,397,cs),
(399,360,o),
(408,320,o),
(425,279,c)
);
},
{
closed = 1;
nodes = (
(786,420,o),
(791,429,o),
(791,455,cs),
(791,485,o),
(781,524,o),
(764,565,c),
(763,548,o),
(762,530,o),
(762,512,cs),
(762,444,o),
(768,420,o),
(779,420,cs)
);
}
);
width = 1200;
},
{
layerId = m01;
shapes = (
{
attr = {
strokeHeight = 28;
strokeWidth = 30;
};
closed = 1;
nodes = (
(1170,48,o),
(1170,493,cs),
(1170,761,o),
(1092,918,o),
(971,918,cs),
(841,918,o),
(747,737,o),
(747,512,cs),
(747,442,o),
(756,406,o),
(779,406,cs),
(796,406,o),
(806,426,o),
(806,455,cs),
(806,583,o),
(637,866,o),
(401,866,cs),
(191,866,o),
(30,642,o),
(30,349,cs),
(30,145,o),
(108,24,o),
(229,24,cs),
(395,24,o),
(448,252,o),
(448,367,cs),
(448,426,o),
(434,455,o),
(412,455,cs),
(394,455,o),
(384,436,o),
(384,397,cs),
(384,244,o),
(540,15,o),
(771,15,cs),
(802,15,o),
(816,19,o),
(816,27,cs),
(816,34,o),
(807,38,o),
(792,38,cs),
(714,38,o),
(615,-69,o),
(615,-154,cs),
(615,-216,o),
(667,-255,o),
(745,-255,cs),
(955,-255,o)
);
}
);
width = 1200;
},
{
layerId = "9609D89D-5179-4910-93A4-3439D6828341";
shapes = (
{
closed = 1;
nodes = (
(965,-269,o),
(1185,41,o),
(1185,493,cs),
(1185,766,o),
(1104,932,o),
(971,932,cs),
(861,932,o),
(778,818,o),
(746,659,c),
(673,773,o),
(550,880,o),
(401,880,cs),
(181,880,o),
(15,648,o),
(15,349,cs),
(15,139,o),
(97,10,o),
(229,10,cs),
(339,10,o),
(403,101,o),
(435,198,c),
(491,111,o),
(580,35,o),
(691,10,c),
(640,-32,o),
(600,-97,o),
(600,-154,cs),
(600,-225,o),
(660,-269,o),
(745,-269,cs)
);
},
{
closed = 1;
nodes = (
(408,320,o),
(399,360,o),
(399,397,cs),
(399,433,o),
(403,441,o),
(412,441,cs),
(424,441,o),
(433,423,o),
(433,367,cs),
(433,342,o),
(430,311,o),
(425,279,c)
);
},
{
closed = 1;
nodes = (
(672,-241,o),
(630,-209,o),
(630,-154,cs),
(630,-97,o),
(677,-30,o),
(730,3,c),
(743,2,o),
(757,1,o),
(771,1,cs),
(813,1,o),
(831,9,o),
(831,27,cs),
(831,42,o),
(817,52,o),
(792,52,cs),
(770,52,o),
(747,45,o),
(724,32,c),
(598,50,o),
(500,138,o),
(446,236,c),
(458,284,o),
(463,331,o),
(463,367,cs),
(463,438,o),
(443,469,o),
(412,469,cs),
(386,469,o),
(369,448,o),
(369,397,cs),
(369,347,o),
(385,289,o),
(415,233,c),
(389,135,o),
(332,38,o),
(229,38,cs),
(116,38,o),
(45,149,o),
(45,349,cs),
(45,638,o),
(199,852,o),
(401,852,cs),
(551,852,o),
(673,733,o),
(739,616,c),
(734,583,o),
(732,548,o),
(732,512,cs),
(732,430,o),
(745,392,o),
(779,392,cs),
(804,392,o),
(821,415,o),
(821,455,cs),
(821,498,o),
(803,559,o),
(769,620,c),
(793,787,o),
(871,904,o),
(971,904,cs),
(1082,904,o),
(1155,758,o),
(1155,493,cs),
(1155,52,o),
(947,-241,o),
(745,-241,cs)
);
},
{
closed = 1;
nodes = (
(768,420,o),
(762,444,o),
(762,512,cs),
(762,530,o),
(763,548,o),
(764,565,c),
(781,524,o),
(791,485,o),
(791,455,cs),
(791,429,o),
(786,420,o),
(779,420,cs)
);
}
);
width = 1200;
},
{
layerId = "F563C7B0-622D-42B3-911E-B48219F56EF3";
shapes = (
{
attr = {
lineCapEnd = "1";
lineCapStart = "1";
strokeWidth = 28;
};
closed = 0;
nodes = (
(233,742,l),
(195,708,o),
(167,669,o),
(143,618,c)
);
},
{
attr = {
lineCapEnd = "1";
lineCapStart = "1";
strokeWidth = 28;
};
closed = 0;
nodes = (
(316,791,l),
(304,787,o),
(289,780,o),
(280,775,c)
);
},
{
attr = {
lineCapEnd = "1";
lineCapStart = "1";
strokeWidth = 28;
};
closed = 0;
nodes = (
(925,846,l),
(890,828,o),
(860,787,o),
(839,728,cs)
);
}
);
width = 1200;
},
{
layerId = "18EF3260-CEF7-4699-AE8F-A1FB16D1B078";
shapes = (
{
closed = 1;
nodes = (
(149,604,o),
(153,607,o),
(156,612,cs),
(179,662,o),
(205,699,o),
(242,732,cs),
(245,734,o),
(247,738,o),
(247,742,cs),
(247,750,o),
(241,756,o),
(233,756,cs),
(229,756,o),
(226,755,o),
(224,752,c),
(185,717,o),
(155,676,o),
(130,624,cs),
(127,616,o),
(131,604,o),
(143,604,cs)
);
},
{
closed = 1;
nodes = (
(282,761,o),
(285,762,o),
(287,763,cs),
(295,768,o),
(309,774,o),
(320,778,cs),
(326,780,o),
(330,785,o),
(330,791,cs),
(330,801,o),
(320,807,o),
(312,804,cs),
(299,800,o),
(283,792,o),
(273,787,cs),
(269,785,o),
(266,780,o),
(266,775,cs),
(266,767,o),
(272,761,o),
(280,761,cs)
);
},
{
closed = 1;
nodes = (
(845,714,o),
(850,718,o),
(852,723,cs),
(873,780,o),
(899,817,o),
(931,834,cs),
(936,836,o),
(939,841,o),
(939,846,cs),
(939,856,o),
(928,863,o),
(919,858,cs),
(880,839,o),
(848,794,o),
(826,733,cs),
(823,725,o),
(829,714,o),
(839,714,cs)
);
}
);
width = 1200;
},
{
layerId = "F41CCFAE-1054-41CD-BE75-8F05F0A4F59E";
shapes = (
{
closed = 1;
nodes = (
(995,-300,o),
(1215,11,o),
(1215,463,cs),
(1215,666,o),
(1170,809,o),
(1094,870,c),
(1060,911,o),
(1019,933,o),
(971,933,cs),
(864,933,o),
(782,823,o),
(748,670,c),
(729,695,o),
(707,720,o),
(682,743,c),
(610,821,o),
(513,881,o),
(401,881,cs),
(181,881,o),
(15,649,o),
(15,349,cs),
(15,206,o),
(53,100,o),
(119,47,c),
(155,3,o),
(203,-21,o),
(259,-21,cs),
(366,-21,o),
(429,65,o),
(462,160,c),
(478,140,o),
(495,121,o),
(514,104,c),
(557,57,o),
(610,17,o),
(673,-6,c),
(668,-11,o),
(662,-17,o),
(657,-23,cs),
(623,-62,o),
(600,-110,o),
(600,-154,cs),
(600,-193,o),
(618,-223,o),
(647,-244,c),
(671,-279,o),
(717,-300,o),
(775,-300,cs)
);
},
{
closed = 1;
nodes = (
(408,320,o),
(399,360,o),
(399,397,cs),
(399,433,o),
(403,441,o),
(412,441,cs),
(424,441,o),
(433,423,o),
(433,367,cs),
(433,342,o),
(430,311,o),
(425,279,c)
);
},
{
closed = 1;
nodes = (
(672,-241,o),
(630,-209,o),
(630,-154,cs),
(630,-97,o),
(677,-30,o),
(730,3,c),
(743,2,o),
(757,1,o),
(771,1,cs),
(813,1,o),
(831,9,o),
(831,27,cs),
(831,42,o),
(817,52,o),
(792,52,cs),
(770,52,o),
(747,45,o),
(724,32,c),
(598,50,o),
(500,138,o),
(446,236,c),
(458,284,o),
(463,331,o),
(463,367,cs),
(463,438,o),
(443,469,o),
(412,469,cs),
(386,469,o),
(369,448,o),
(369,397,cs),
(369,347,o),
(385,289,o),
(415,233,c),
(389,135,o),
(332,38,o),
(229,38,cs),
(116,38,o),
(45,149,o),
(45,349,cs),
(45,638,o),
(199,852,o),
(401,852,cs),
(551,852,o),
(673,733,o),
(739,616,c),
(734,583,o),
(732,548,o),
(732,512,cs),
(732,430,o),
(745,392,o),
(779,392,cs),
(804,392,o),
(821,415,o),
(821,455,cs),
(821,498,o),
(803,559,o),
(769,620,c),
(793,787,o),
(871,904,o),
(971,904,cs),
(1082,904,o),
(1155,758,o),
(1155,493,cs),
(1155,52,o),
(947,-241,o),
(745,-241,cs)
);
},
{
closed = 1;
nodes = (
(768,420,o),
(762,444,o),
(762,512,cs),
(762,530,o),
(763,548,o),
(764,565,c),
(781,524,o),
(791,485,o),
(791,455,cs),
(791,429,o),
(786,420,o),
(779,420,cs)
);
}
);
width = 1200;
},
{
associatedMasterId = m01;
layerId = "3680BCEB-7460-4BF8-B198-05FD600E3986";
name = "16 Jan 24 at 11:57";
shapes = (
{
attr = {
strokeHeight = 28;
strokeWidth = 30;
};
closed = 1;
nodes = (
(1170,48,o),
(1170,493,cs),
(1170,761,o),
(1092,918,o),
(971,918,cs),
(841,918,o),
(747,737,o),
(747,512,cs),
(747,442,o),
(756,406,o),
(779,406,cs),
(796,406,o),
(806,426,o),
(806,455,cs),
(806,583,o),
(637,866,o),
(401,866,cs),
(191,866,o),
(30,642,o),
(30,349,cs),
(30,145,o),
(108,24,o),
(229,24,cs),
(395,24,o),
(448,252,o),
(448,367,cs),
(448,426,o),
(434,455,o),
(412,455,cs),
(394,455,o),
(384,436,o),
(384,397,cs),
(384,244,o),
(540,15,o),
(771,15,cs),
(802,15,o),
(816,19,o),
(816,27,cs),
(816,34,o),
(807,38,o),
(792,38,cs),
(714,38,o),
(615,-69,o),
(615,-154,cs),
(615,-216,o),
(667,-258,o),
(745,-258,cs),
(955,-258,o)
);
}
);
width = 1200;
}
);
metricWidth = N;
unicode = (330,331);
},
{
color = 6;
glyphname = O;
kernLeft = O;
kernRight = O;
lastChange = "2024-09-27 09:10:39 +0000";
layers = (
{
anchors = (
{
name = bottom;
pos = (496,0);
},
{
name = center;
pos = (522,468);
},
{
name = ogonek;
pos = (918,10);
},
{
name = top;
pos = (526,900);
},
{
name = topleft;
pos = (20,900);
},
{
name = topright;
pos = (900,900);
}
);
layerId = m01;
shapes = (
{
attr = {
strokeHeight = 28;
strokeWidth = 30;
};
closed = 1;
nodes = (
(798,-12,o),
(990,192,o),
(990,455,cs),
(990,722,o),
(791,912,o),
(526,912,cs),
(248,912,o),
(30,704,o),
(30,423,cs),
(30,167,o),
(214,-12,o),
(496,-12,cs)
);
},
{
attr = {
strokeHeight = 27;
strokeWidth = 29;
};
closed = 1;
nodes = (
(478,384,o),
(447,426,o),
(447,468,cs),
(447,510,o),
(478,552,o),
(522,552,cs),
(566,552,o),
(597,510,o),
(597,468,cs),
(597,426,o),
(566,384,o),
(522,384,cs)
);
}
);
width = 1020;
},
{
anchors = (
{
name = bottom;
pos = (496,0);
},
{
name = center;
pos = (522,468);
},
{
name = ogonek;
pos = (918,10);
},
{
name = top;
pos = (526,900);
},
{
name = topleft;
pos = (20,900);
},
{
name = topright;
pos = (900,900);
}
);
layerId = "AA01E2DD-0766-4133-B890-CA2A0BF1A57D";
shapes = (
{
closed = 1;
nodes = (
(798,-12,o),
(990,192,o),
(990,455,cs),
(990,722,o),
(791,912,o),
(526,912,cs),
(248,912,o),
(30,704,o),
(30,423,cs),
(30,167,o),
(214,-12,o),
(496,-12,cs)
);
},
{
closed = 1;
nodes = (
(447,510,o),
(478,552,o),
(522,552,cs),
(566,552,o),
(597,510,o),
(597,468,cs),
(597,426,o),
(566,384,o),
(522,384,cs),
(478,384,o),
(447,426,o),
(447,468,cs)
);
}
);
width = 1020;
},
{
anchors = (
{
name = bottom;
pos = (496,0);
},
{
name = center;
pos = (522,468);
},
{
name = ogonek;
pos = (918,10);
},
{
name = top;
pos = (526,900);
},
{
name = topleft;
pos = (20,900);
},
{
name = topright;
pos = (900,900);
}
);
layerId = "18EF3260-CEF7-4699-AE8F-A1FB16D1B078";
shapes = (
{
attr = {
lineCapEnd = "1";
lineCapStart = "1";
strokeWidth = 28;
};
closed = 0;
nodes = (
(243,760,l),
(198,724,o),
(162,678,o),
(136,626,c)
);
},
{
attr = {
lineCapEnd = "1";
lineCapStart = "1";
strokeWidth = 28;
};
closed = 0;
nodes = (
(328,811,l),
(314,805,o),
(301,798,o),
(289,791,c)
);
}
);
width = 1020;
},
{
anchors = (
{
name = bottom;
pos = (496,0);
},
{
name = center;
pos = (522,468);
},
{
name = ogonek;
pos = (918,10);
},
{
name = top;
pos = (526,900);
},
{
name = topleft;
pos = (20,900);
},
{
name = topright;
pos = (900,900);
}
);
layerId = "F563C7B0-622D-42B3-911E-B48219F56EF3";
shapes = (
{
attr = {
lineCapEnd = "1";
lineCapStart = "1";
strokeWidth = 28;
};
closed = 0;
nodes = (
(243,760,l),
(198,724,o),
(162,678,o),
(136,626,c)
);
},
{
attr = {
lineCapEnd = "1";
lineCapStart = "1";
strokeWidth = 28;
};
closed = 0;
nodes = (
(328,811,l),
(314,805,o),
(301,798,o),
(289,791,c)
);
}
);
width = 1020;
},
{
anchors = (
{
name = bottom;
pos = (496,0);
},
{
name = center;
pos = (522,468);
},
{
name = ogonek;
pos = (918,10);
},
{
name = top;
pos = (526,900);
},
{
name = topleft;
pos = (20,900);
},
{
name = topright;
pos = (900,900);
}
);
layerId = "F41CCFAE-1054-41CD-BE75-8F05F0A4F59E";
shapes = (
{
closed = 1;
nodes = (
(836,-57,o),
(1035,154,o),
(1035,425,cs),
(1035,569,o),
(979,691,o),
(886,775,c),
(800,870,o),
(673,927,o),
(526,927,cs),
(240,927,o),
(15,712,o),
(15,423,cs),
(15,287,o),
(65,172,o),
(154,92,c),
(238,-1,o),
(367,-57,o),
(526,-57,cs)
);
},
{
closed = 1;
nodes = (
(220,2,o),
(45,173,o),
(45,423,cs),
(45,698,o),
(254,898,o),
(526,898,cs),
(785,898,o),
(975,716,o),
(975,455,cs),
(975,197,o),
(791,2,o),
(496,2,cs)
);
},
{
closed = 1;
nodes = (
(514,399,o),
(506,401,o),
(500,404,c),
(495,414,o),
(492,426,o),
(492,438,cs),
(492,475,o),
(516,507,o),
(552,507,cs),
(560,507,o),
(568,505,o),
(574,502,c),
(579,492,o),
(582,480,o),
(582,468,cs),
(582,431,o),
(558,399,o),
(522,399,cs)
);
},
{
closed = 1;
nodes = (
(576,371,o),
(612,420,o),
(612,468,cs),
(612,516,o),
(576,566,o),
(522,566,cs),
(468,566,o),
(433,516,o),
(433,468,cs),
(433,420,o),
(468,371,o),
(522,371,cs)
);
}
);
width = 1020;
},
{
anchors = (
{
name = bottom;
pos = (496,0);
},
{
name = center;
pos = (522,468);
},
{
name = ogonek;
pos = (918,10);
},
{
name = top;
pos = (526,900);
},
{
name = topleft;
pos = (20,900);
},
{
name = topright;
pos = (900,900);
}
);
layerId = "9609D89D-5179-4910-93A4-3439D6828341";
shapes = (
{
closed = 1;
nodes = (
(807,-26,o),
(1005,185,o),
(1005,455,cs),
(1005,730,o),
(799,926,o),
(526,926,cs),
(240,926,o),
(15,712,o),
(15,423,cs),
(15,159,o),
(206,-26,o),
(496,-26,cs)
);
},
{
closed = 1;
nodes = (
(220,2,o),
(45,173,o),
(45,423,cs),
(45,698,o),
(254,898,o),
(526,898,cs),
(785,898,o),
(975,716,o),
(975,455,cs),
(975,197,o),
(791,2,o),
(496,2,cs)
);
},
{
closed = 1;
nodes = (
(576,371,o),
(612,420,o),
(612,468,cs),
(612,516,o),
(576,566,o),
(522,566,cs),
(468,566,o),
(433,516,o),
(433,468,cs),
(433,420,o),
(468,371,o),
(522,371,cs)
);
},
{
closed = 1;
nodes = (
(486,398,o),
(462,430,o),
(462,468,cs),
(462,506,o),
(486,539,o),
(522,539,cs),
(558,539,o),
(583,506,o),
(583,468,cs),
(583,430,o),
(558,398,o),
(522,398,cs)
);
}
);
width = 1020;
},
{
anchors = (
{
name = bottom;
pos = (496,0);
},
{
name = center;
pos = (522,468);
},
{
name = ogonek;
pos = (918,10);
},
{
name = top;
pos = (526,900);
},
{
name = topleft;
pos = (20,900);
},
{
name = topright;
pos = (900,900);
}
);
layerId = m006;
shapes = (
{
closed = 1;
nodes = (
(791,2,o),
(975,197,o),
(975,455,cs),
(975,716,o),
(785,898,o),
(526,898,cs),
(254,898,o),
(45,698,o),
(45,423,cs),
(45,173,o),
(220,2,o),
(496,2,cs)
);
},
{
closed = 1;
nodes = (
(468,371,o),
(433,420,o),
(433,468,cs),
(433,516,o),
(468,566,o),
(522,566,cs),
(576,566,o),
(612,516,o),
(612,468,cs),
(612,420,o),
(576,371,o),
(522,371,cs)
);
}
);
width = 1020;
}
);
unicode = (79,111);
},
{
color = 6;
glyphname = Ohorn;
kernLeft = O;
kernRight = Ohorn;
lastChange = "2024-09-27 09:10:39 +0000";
layers = (
{
anchors = (
{
name = bottom;
pos = (510,0);
},
{
name = top;
pos = (510,900);
}
);
layerId = "AA01E2DD-0766-4133-B890-CA2A0BF1A57D";
shapes = (
{
closed = 1;
nodes = (
(798,-12,o),
(990,195,o),
(990,447,cs),
(990,554,o),
(955,654,o),
(909,697,c),
(985,717,o),
(1057,795,o),
(1057,889,cs),
(1057,975,o),
(996,1050,o),
(910,1050,cs),
(839,1050,o),
(784,999,o),
(784,930,cs),
(784,912,o),
(788,896,o),
(793,883,c),
(746,899,o),
(666,912,o),
(581,912,cs),
(238,912,o),
(30,704,o),
(30,427,cs),
(30,166,o),
(214,-12,o),
(495,-12,cs)
);
},
{
closed = 1;
nodes = (
(478,384,o),
(447,426,o),
(447,468,cs),
(447,510,o),
(478,552,o),
(522,552,cs),
(566,552,o),
(597,510,o),
(597,468,cs),
(597,426,o),
(566,384,o),
(522,384,cs)
);
}
);
width = 1020;
},
{
anchors = (
{
name = bottom;
pos = (510,0);
},
{
name = top;
pos = (510,900);
}
);
layerId = m006;
shapes = (
{
closed = 1;
nodes = (
(576,371,o),
(612,420,o),
(612,468,cs),
(612,516,o),
(576,566,o),
(522,566,cs),
(468,566,o),
(433,516,o),
(433,468,cs),
(433,420,o),
(468,371,o),
(522,371,cs)
);
},
{
closed = 1;
nodes = (
(220,2,o),
(45,172,o),
(45,427,cs),
(45,698,o),
(245,898,o),
(581,898,cs),
(664,898,o),
(737,887,o),
(781,874,c),
(792,849,o),
(812,832,o),
(831,832,cs),
(844,832,o),
(854,840,o),
(854,852,cs),
(854,868,o),
(835,883,o),
(804,894,c),
(801,904,o),
(799,916,o),
(799,930,cs),
(799,993,o),
(845,1036,o),
(910,1036,cs),
(989,1036,o),
(1042,970,o),
(1042,889,cs),
(1042,803,o),
(980,734,o),
(913,713,c),
(896,726,o),
(878,734,o),
(859,734,cs),
(838,734,o),
(825,723,o),
(825,708,cs),
(825,693,o),
(836,678,o),
(872,678,cs),
(883,678,o),
(894,679,o),
(906,682,c),
(945,640,o),
(975,549,o),
(975,447,cs),
(975,200,o),
(791,2,o),
(495,2,cs)
);
}
);
width = 1020;
},
{
anchors = (
{
name = bottom;
pos = (510,0);
},
{
name = top;
pos = (510,900);
}
);
layerId = m01;
shapes = (
{
attr = {
strokeHeight = 28;
strokeWidth = 30;
};
closed = 1;
nodes = (
(798,-12,o),
(990,195,o),
(990,447,cs),
(990,590,o),
(928,720,o),
(859,720,cs),
(846,720,o),
(840,715,o),
(840,708,cs),
(840,699,o),
(848,692,o),
(872,692,cs),
(959,692,o),
(1057,780,o),
(1057,889,cs),
(1057,975,o),
(996,1050,o),
(910,1050,cs),
(839,1050,o),
(784,999,o),
(784,930,cs),
(784,882,o),
(810,846,o),
(831,846,cs),
(836,846,o),
(839,848,o),
(839,852,cs),
(839,879,o),
(718,912,o),
(581,912,cs),
(238,912,o),
(30,704,o),
(30,427,cs),
(30,166,o),
(214,-12,o),
(495,-12,cs)
);
},
{
attr = {
strokeHeight = 27;
strokeWidth = 29;
};
closed = 1;
nodes = (
(478,384,o),
(447,426,o),
(447,468,cs),
(447,510,o),
(478,552,o),
(522,552,cs),
(566,552,o),
(597,510,o),
(597,468,cs),
(597,426,o),
(566,384,o),
(522,384,cs)
);
}
);
width = 1020;
},
{
anchors = (
{
name = bottom;
pos = (510,0);
},
{
name = top;
pos = (510,900);
}
);
layerId = "9609D89D-5179-4910-93A4-3439D6828341";
shapes = (
{
closed = 1;
nodes = (
(807,-26,o),
(1005,188,o),
(1005,447,cs),
(1005,545,o),
(977,638,o),
(934,691,c),
(1008,720,o),
(1072,798,o),
(1072,889,cs),
(1072,982,o),
(1005,1064,o),
(910,1064,cs),
(831,1064,o),
(769,1007,o),
(769,930,cs),
(769,921,o),
(770,913,o),
(771,905,c),
(720,918,o),
(652,926,o),
(581,926,cs),
(229,926,o),
(15,712,o),
(15,427,cs),
(15,158,o),
(206,-26,o),
(495,-26,cs)
);
},
{
closed = 1;
nodes = (
(576,371,o),
(612,420,o),
(612,468,cs),
(612,516,o),
(576,566,o),
(522,566,cs),
(468,566,o),
(433,516,o),
(433,468,cs),
(433,420,o),
(468,371,o),
(522,371,cs)
);
},
{
closed = 1;
nodes = (
(486,398,o),
(462,430,o),
(462,468,cs),
(462,506,o),
(486,539,o),
(522,539,cs),
(558,539,o),
(583,506,o),
(583,468,cs),
(583,430,o),
(558,398,o),
(522,398,cs)
);
},
{
closed = 1;
nodes = (
(220,2,o),
(45,172,o),
(45,427,cs),
(45,698,o),
(245,898,o),
(581,898,cs),
(664,898,o),
(737,887,o),
(781,874,c),
(792,849,o),
(812,832,o),
(831,832,cs),
(844,832,o),
(854,840,o),
(854,852,cs),
(854,868,o),
(835,883,o),
(804,894,c),
(801,904,o),
(799,916,o),
(799,930,cs),
(799,993,o),
(845,1036,o),
(910,1036,cs),
(989,1036,o),
(1042,970,o),
(1042,889,cs),
(1042,803,o),
(980,734,o),
(913,713,c),
(896,726,o),
(878,734,o),
(859,734,cs),
(838,734,o),
(825,723,o),
(825,708,cs),
(825,693,o),
(836,678,o),
(872,678,cs),
(883,678,o),
(894,679,o),
(906,682,c),
(945,640,o),
(975,549,o),
(975,447,cs),
(975,200,o),
(791,2,o),
(495,2,cs)
);
}
);
width = 1020;
},
{
anchors = (
{
name = bottom;
pos = (510,0);
},
{
name = top;
pos = (510,900);
}
);
layerId = "F563C7B0-622D-42B3-911E-B48219F56EF3";
shapes = (
{
attr = {
lineCapEnd = 1;
lineCapStart = 1;
strokeWidth = 28;
};
closed = 0;
nodes = (
(245,757,l),
(197,722,o),
(161,678,o),
(135,627,cs)
);
},
{
attr = {
lineCapEnd = 1;
lineCapStart = 1;
strokeWidth = 28;
};
closed = 0;
nodes = (
(330,806,l),
(316,800,o),
(303,794,o),
(291,787,cs)
);
},
{
attr = {
lineCapEnd = 1;
lineCapStart = 1;
strokeWidth = 28;
};
closed = 0;
nodes = (
(877,986,l),
(860,981,o),
(850,970,o),
(846,951,cs)
);
}
);
width = 1020;
},
{
anchors = (
{
name = bottom;
pos = (510,0);
},
{
name = top;
pos = (510,900);
}
);
layerId = "18EF3260-CEF7-4699-AE8F-A1FB16D1B078";
shapes = (
{
closed = 1;
nodes = (
(140,613,o),
(145,616,o),
(147,621,cs),
(173,670,o),
(207,712,o),
(253,746,c),
(257,748,o),
(259,752,o),
(259,757,cs),
(259,765,o),
(253,771,o),
(245,771,cs),
(242,771,o),
(239,770,o),
(237,768,c),
(187,732,o),
(149,686,o),
(123,633,cs),
(118,624,o),
(125,613,o),
(135,613,cs)
);
},
{
closed = 1;
nodes = (
(294,773,o),
(296,774,o),
(298,775,cs),
(309,782,o),
(322,787,o),
(336,793,cs),
(341,795,o),
(344,800,o),
(344,806,cs),
(344,818,o),
(332,822,o),
(324,819,cs),
(310,813,o),
(297,806,o),
(284,799,cs),
(280,797,o),
(277,792,o),
(277,787,cs),
(277,779,o),
(283,773,o),
(291,773,cs)
);
},
{
closed = 1;
nodes = (
(853,937,o),
(858,942,o),
(860,948,cs),
(863,963,o),
(868,969,o),
(881,973,cs),
(887,974,o),
(891,980,o),
(891,986,cs),
(891,995,o),
(882,1002,o),
(873,999,cs),
(851,993,o),
(837,978,o),
(832,954,cs),
(831,946,o),
(836,937,o),
(846,937,cs)
);
}
);
width = 1020;
},
{
anchors = (
{
name = bottom;
pos = (510,0);
},
{
name = top;
pos = (510,900);
}
);
layerId = "F41CCFAE-1054-41CD-BE75-8F05F0A4F59E";
shapes = (
{
closed = 1;
nodes = (
(837,-57,o),
(1035,157,o),
(1035,417,cs),
(1035,514,o),
(1007,607,o),
(965,660,c),
(1038,690,o),
(1102,767,o),
(1102,859,cs),
(1102,917,o),
(1076,971,o),
(1034,1003,c),
(1005,1041,o),
(962,1065,o),
(910,1065,cs),
(831,1065,o),
(769,1008,o),
(769,930,cs),
(769,921,o),
(770,914,o),
(771,906,c),
(721,919,o),
(652,927,o),
(581,927,cs),
(375,927,o),
(215,853,o),
(119,734,cs),
(52,650,o),
(15,545,o),
(15,427,cs),
(15,288,o),
(66,172,o),
(155,91,c),
(239,-2,o),
(367,-57,o),
(525,-57,cs)
);
},
{
closed = 1;
nodes = (
(514,399,o),
(506,401,o),
(500,404,c),
(495,414,o),
(492,426,o),
(492,438,cs),
(492,475,o),
(516,507,o),
(552,507,cs),
(560,507,o),
(568,505,o),
(574,502,c),
(579,492,o),
(582,480,o),
(582,468,cs),
(582,431,o),
(558,399,o),
(522,399,cs)
);
},
{
closed = 1;
nodes = (
(576,371,o),
(612,420,o),
(612,468,cs),
(612,516,o),
(576,566,o),
(522,566,cs),
(468,566,o),
(433,516,o),
(433,468,cs),
(433,420,o),
(468,371,o),
(522,371,cs)
);
},
{
closed = 1;
nodes = (
(220,2,o),
(45,172,o),
(45,427,cs),
(45,698,o),
(245,898,o),
(581,898,cs),
(664,898,o),
(737,887,o),
(781,874,c),
(792,849,o),
(812,832,o),
(831,832,cs),
(844,832,o),
(854,840,o),
(854,852,cs),
(854,868,o),
(835,883,o),
(804,894,c),
(801,904,o),
(799,916,o),
(799,930,cs),
(799,993,o),
(845,1036,o),
(910,1036,cs),
(989,1036,o),
(1042,970,o),
(1042,889,cs),
(1042,803,o),
(980,734,o),
(913,713,c),
(896,726,o),
(878,734,o),
(859,734,cs),
(838,734,o),
(825,723,o),
(825,708,cs),
(825,693,o),
(836,678,o),
(872,678,cs),
(883,678,o),
(894,679,o),
(906,682,c),
(945,640,o),
(975,549,o),
(975,447,cs),
(975,200,o),
(791,2,o),
(495,2,cs)
);
}
);
width = 1020;
},
{
associatedMasterId = m01;
layerId = "B5B8FB82-DC84-4824-B6F8-EBA88EB6224E";
name = "16 Jan 24 at 10:17";
shapes = (
{
attr = {
identifier = ID0x7ff09b3e94d0;
strokeHeight = 28;
strokeWidth = 30;
};
closed = 1;
nodes = (
(798,-12,o),
(990,192,o),
(990,455,cs),
(990,722,o),
(837,912,o),
(526,912,cs),
(248,912,o),
(30,704,o),
(30,423,cs),
(30,167,o),
(214,-12,o),
(496,-12,cs)
);
},
{
attr = {
identifier = ID0x7ff09b3e94d0;
strokeHeight = 27;
strokeWidth = 29;
};
closed = 1;
nodes = (
(478,384,o),
(447,426,o),
(447,468,cs),
(447,510,o),
(478,552,o),
(522,552,cs),
(566,552,o),
(597,510,o),
(597,468,cs),
(597,426,o),
(566,384,o),
(522,384,cs)
);
},
{
attr = {
strokeHeight = 27;
strokeWidth = 29;
};
closed = 1;
nodes = (
(966,753,o),
(1065,837,o),
(1065,932,cs),
(1065,1008,o),
(1013,1065,o),
(929,1065,cs),
(856,1065,o),
(804,1021,o),
(804,970,cs),
(804,920,o),
(855,895,o),
(897,895,cs),
(919,895,o),
(934,902,o),
(934,911,cs),
(934,917,o),
(928,920,o),
(921,920,cs),
(890,920,o),
(798,856,o),
(798,806,cs),
(798,776,o),
(820,753,o),
(870,753,cs)
);
}
);
width = 1020;
},
{
associatedMasterId = m01;
layerId = "5BF79859-8ACB-46B8-99F1-6B1DFBB57D09";
name = "16 Jan 24 at 10:22";
shapes = (
{
attr = {
strokeHeight = 28;
strokeWidth = 30;
};
closed = 1;
nodes = (
(798,-12,o),
(990,192,o),
(990,455,cs),
(990,585,o),
(932,748,o),
(864,748,cs),
(850,748,o),
(844,743,o),
(844,736,cs),
(844,730,o),
(851,720,o),
(869,720,cs),
(966,720,o),
(1057,815,o),
(1057,904,cs),
(1057,987,o),
(987,1050,o),
(899,1050,cs),
(829,1050,o),
(784,1007,o),
(784,954,cs),
(784,912,o),
(821,868,o),
(855,868,cs),
(870,868,o),
(876,873,o),
(876,879,cs),
(876,884,o),
(870,890,o),
(858,890,cs),
(838,890,o),
(809,888,o),
(785,888,cs),
(751,888,o),
(649,912,o),
(526,912,cs),
(248,912,o),
(30,704,o),
(30,423,cs),
(30,167,o),
(214,-12,o),
(496,-12,cs)
);
},
{
attr = {
strokeHeight = 27;
strokeWidth = 29;
};
closed = 1;
nodes = (
(478,384,o),
(447,426,o),
(447,468,cs),
(447,510,o),
(478,552,o),
(522,552,cs),
(566,552,o),
(597,510,o),
(597,468,cs),
(597,426,o),
(566,384,o),
(522,384,cs)
);
}
);
width = 1020;
},
{
associatedMasterId = m01;
layerId = "BD74BC76-D2FD-4129-A5D1-506E800EF93D";
name = "16 Jan 24 at 10:44";
shapes = (
{
attr = {
strokeHeight = 28;
strokeWidth = 30;
};
closed = 1;
nodes = (
(798,-12,o),
(990,195,o),
(990,447,cs),
(990,590,o),
(928,720,o),
(859,720,cs),
(846,720,o),
(840,715,o),
(840,708,cs),
(840,699,o),
(848,692,o),
(872,692,cs),
(959,692,o),
(1057,780,o),
(1057,889,cs),
(1057,975,o),
(996,1050,o),
(910,1050,cs),
(839,1050,o),
(784,999,o),
(784,930,cs),
(784,882,o),
(810,846,o),
(831,846,cs),
(836,846,o),
(839,848,o),
(839,852,cs),
(839,879,o),
(718,912,o),
(581,912,cs),
(238,912,o),
(30,704,o),
(30,427,cs),
(30,166,o),
(214,-12,o),
(495,-12,cs)
);
},
{
attr = {
strokeHeight = 27;
strokeWidth = 29;
};
closed = 1;
nodes = (
(478,384,o),
(447,426,o),
(447,468,cs),
(447,510,o),
(478,552,o),
(522,552,cs),
(566,552,o),
(597,510,o),
(597,468,cs),
(597,426,o),
(566,384,o),
(522,384,cs)
);
}
);
width = 1020;
}
);
metricWidth = O;
unicode = (416,417);
},
